# This file uses centimeters as units for non-parametric coordinates.

mtllib cerealbox.mtl
g default
v -10.587925 2.226420 5.788725
v -10.579312 2.222850 5.788725
v -10.579312 2.226420 5.797343
v -10.579312 2.235037 5.800912
v -10.587925 2.235037 5.797343
v -10.591494 2.235037 5.788725
v -10.351318 2.226420 5.788725
v -10.347749 2.235037 5.788725
v -10.351318 2.235037 5.797343
v -10.359933 2.235037 5.800912
v -10.359933 2.226420 5.797343
v -10.359933 2.222850 5.788725
v -10.587925 3.032708 5.788725
v -10.591494 3.024091 5.788725
v -10.587925 3.024091 5.797343
v -10.579312 3.024091 5.800912
v -10.579312 3.032708 5.797343
v -10.579312 3.036277 5.788725
v -10.351318 3.032708 5.788725
v -10.359933 3.036277 5.788725
v -10.359933 3.032708 5.797343
v -10.359933 3.024091 5.800912
v -10.351318 3.024091 5.797343
v -10.347749 3.024091 5.788725
v -10.587925 3.024091 5.240125
v -10.591494 3.024091 5.248742
v -10.587925 3.032708 5.248742
v -10.579312 3.036277 5.248742
v -10.579312 3.032708 5.240125
v -10.579312 3.024091 5.236555
v -10.351318 3.024091 5.240125
v -10.359933 3.024091 5.236555
v -10.359933 3.032708 5.240125
v -10.359933 3.036277 5.248742
v -10.351318 3.032708 5.248742
v -10.347749 3.024091 5.248742
v -10.587925 2.226420 5.248742
v -10.591494 2.235037 5.248742
v -10.587925 2.235037 5.240125
v -10.579312 2.235037 5.236555
v -10.579312 2.226420 5.240125
v -10.579312 2.222850 5.248742
v -10.351318 2.226420 5.248742
v -10.359933 2.222850 5.248742
v -10.359933 2.226420 5.240125
v -10.359933 2.235037 5.236555
v -10.351318 2.235037 5.240125
v -10.347749 2.235037 5.248742
v -10.586346 2.228004 5.795758
v -10.352897 2.228004 5.795758
v -10.586346 3.031124 5.795758
v -10.352897 3.031124 5.795758
v -10.586346 3.031124 5.241709
v -10.352897 3.031124 5.241709
v -10.586346 2.228004 5.241709
v -10.352897 2.228004 5.241709
vt 0.564676 0.036890
vt 0.565583 0.030864
vt 0.030790 0.375986
vt 0.726437 0.062237
vt 0.185812 0.039899
vt 0.037455 0.377992
vt 0.676768 0.267848
vt 0.676470 0.266481
vt 0.538144 0.188647
vt 0.776857 0.247782
vt 0.540833 0.189051
vt 0.188122 0.032078
vt 0.694417 0.376583
vt 0.528590 0.190210
vt 0.698397 0.375719
vt 0.094981 0.504214
vt 0.095134 0.496682
vt 0.701690 0.220428
vt 0.490594 0.560538
vt 0.702594 0.214398
vt 0.780838 0.246917
vt 0.029160 0.905149
vt 0.798485 0.355652
vt 0.037985 0.905282
vt 0.535255 0.192217
vt 0.648857 0.363319
vt 0.380232 0.528301
vt 0.512487 0.329881
vt 0.649880 0.358200
vt 0.510203 0.329425
vt 0.798783 0.357019
vt 0.539125 0.200642
vt 0.540149 0.195521
vt 0.433448 0.969136
vt 0.676518 0.228961
vt 0.433600 0.961604
vt 0.377922 0.536121
vt 0.756168 0.062923
vt 0.912427 0.119553
vt 0.754384 0.068804
vt 0.914448 0.120165
vt 0.678802 0.229417
vt 0.865336 0.266195
vt 0.863551 0.272077
vt 0.499418 0.560671
vt 0.707293 0.215445
vt 0.729125 0.062641
vt 0.705274 0.214834
vt 0.563254 0.031605
vt 0.088090 0.496816
vt 0.536886 0.185914
vt 0.538125 0.196060
vt 0.382727 0.537336
vt 0.865423 0.271554
vt 0.029160 0.382288
vt 0.704065 0.219719
vt 0.499287 0.555309
vt 0.705319 0.221257
vt 0.492590 0.553306
vt 0.440492 0.969002
vt 0.677603 0.223855
vt 0.442082 0.963877
vt 0.029292 0.910511
vt 0.802487 0.354916
vt 0.035990 0.912514
vt 0.086499 0.501941
vt 0.537862 0.193648
vt 0.539853 0.195065
vt 0.536847 0.200158
vt 0.802005 0.356109
vt 0.532719 0.183226
vt 0.695323 0.377498
vt 0.698648 0.377094
vt 0.779932 0.246002
vt 0.776605 0.246406
vt 0.561993 0.036452
vt 0.673250 0.267391
vt 0.672767 0.268585
vt 0.867334 0.266874
vt 0.679248 0.225149
vt 0.386172 0.531872
vt 0.650880 0.362781
vt 0.652158 0.358684
vt 0.511403 0.334986
vt 0.509757 0.333692
vt 0.033326 0.384976
vt 0.729407 0.057642
vt 0.754297 0.063446
vt 0.752385 0.068125
vt 0.727416 0.056225
vt 0.914396 0.113739
vt 0.915614 0.115252
vt 0.179872 0.036328
vt 0.183317 0.030864
vn -0.015583 -0.999858 0.006434
vn -0.382529 -0.923938 0.003112
vn -0.382529 -0.923938 -0.003112
vn -0.015583 -0.999858 -0.006434
vn -0.924093 -0.382133 0.005150
vn -0.999969 -0.004436 0.006468
vn -0.999969 -0.004436 -0.006468
vn -0.924093 -0.382133 -0.005150
vn -0.015599 -0.004420 0.999869
vn -0.010469 -0.381459 0.924327
vn 0.010468 -0.381458 0.924327
vn 0.015599 -0.004420 0.999869
vn -0.010035 -0.924314 0.381501
vn 0.015583 -0.999858 0.006434
vn 0.010035 -0.924314 0.381500
vn -0.924041 -0.003406 0.382278
vn -0.924041 0.003406 0.382278
vn -0.999969 0.004436 0.006468
vn -0.382615 -0.001940 0.923906
vn -0.015599 0.004420 0.999869
vn -0.382615 0.001940 0.923906
vn 0.999969 -0.004436 0.006468
vn 0.924093 -0.382132 0.005150
vn 0.924093 -0.382132 -0.005150
vn 0.999969 -0.004436 -0.006468
vn 0.382423 -0.923982 0.003113
vn 0.015583 -0.999858 -0.006434
vn 0.382423 -0.923982 -0.003113
vn 0.382509 -0.001940 0.923950
vn 0.382509 0.001940 0.923950
vn 0.015599 0.004420 0.999869
vn 0.924041 -0.003406 0.382278
vn 0.999969 0.004436 0.006468
vn 0.924041 0.003406 0.382278
vn -0.924093 0.382133 0.005150
vn -0.924093 0.382133 -0.005150
vn -0.999969 0.004436 -0.006468
vn -0.382529 0.923938 0.003112
vn -0.015583 0.999858 0.006434
vn -0.015583 0.999858 -0.006434
vn -0.382529 0.923938 -0.003112
vn -0.010034 0.924314 0.381500
vn 0.010035 0.924315 0.381499
vn 0.015583 0.999858 0.006434
vn -0.010469 0.381459 0.924327
vn 0.010469 0.381458 0.924327
vn 0.382423 0.923982 0.003112
vn 0.382423 0.923982 -0.003112
vn 0.015583 0.999858 -0.006434
vn 0.924093 0.382132 0.005150
vn 0.999969 0.004436 -0.006468
vn 0.924093 0.382132 -0.005150
vn -0.924016 0.003406 -0.382339
vn -0.924016 -0.003406 -0.382339
vn -0.382761 0.001940 -0.923845
vn -0.015606 0.004422 -0.999868
vn -0.015606 -0.004422 -0.999868
vn -0.382762 -0.001940 -0.923845
vn -0.010468 0.381602 -0.924267
vn 0.010468 0.381601 -0.924268
vn 0.015606 0.004422 -0.999868
vn -0.010035 0.924290 -0.381560
vn 0.010035 0.924290 -0.381559
vn 0.382656 0.001940 -0.923889
vn 0.382656 -0.001940 -0.923889
vn 0.015606 -0.004422 -0.999868
vn 0.924016 0.003406 -0.382339
vn 0.924016 -0.003406 -0.382339
vn -0.010036 -0.924289 -0.381561
vn 0.010036 -0.924290 -0.381560
vn -0.010468 -0.381602 -0.924267
vn 0.010468 -0.381602 -0.924268
vn -0.888081 -0.325074 0.325022
vn -0.325402 -0.887908 0.325164
vn -0.325411 -0.325228 0.887882
vn 0.325298 -0.887945 0.325168
vn 0.888080 -0.325075 0.325022
vn 0.325307 -0.325230 0.887919
vn -0.325383 0.887922 0.325146
vn -0.888086 0.325068 0.325015
vn -0.325404 0.325221 0.887887
vn 0.888085 0.325069 0.325016
vn 0.325279 0.887959 0.325150
vn 0.325301 0.325223 0.887924
vn -0.325405 0.325221 -0.887887
vn -0.888086 0.325037 -0.325046
vn -0.325352 0.887923 -0.325176
vn 0.888086 0.325038 -0.325045
vn 0.325301 0.325223 -0.887924
vn 0.325248 0.887959 -0.325181
vn -0.325371 -0.887909 -0.325194
vn -0.888081 -0.325044 -0.325052
vn -0.325411 -0.325228 -0.887882
vn 0.888081 -0.325044 -0.325052
vn 0.325268 -0.887945 -0.325199
vn 0.325308 -0.325230 -0.887919
s 1
g pCube39
usemtl initialShadingGroup
f 2/1/1 1/2/2 37/90/3 42/4/4
s 2
f 1/93/5 6/5/6 38/6/7 37/3/8
s 3
f 4/7/9 3/8/10 11/75/11 10/10/12
s 1
f 3/76/13 2/1/1 12/11/14 11/9/15
s 2
f 6/5/6 5/12/16 15/71/17 14/14/18
s 3
f 5/78/19 4/7/9 16/15/20 15/13/21
s 4
f 8/16/22 7/17/23 43/59/24 48/19/25
s 1
f 7/68/26 12/11/14 44/20/27 43/18/28
s 3
f 10/10/12 9/21/29 23/64/30 22/23/31
s 4
f 9/66/32 8/16/22 24/24/33 23/22/34
s 2
f 14/14/18 13/25/35 27/81/36 26/27/37
s 5
f 13/84/38 18/28/39 28/29/40 27/26/41
f 18/28/39 17/30/42 21/69/43 20/32/44
s 3
f 17/73/45 16/15/20 22/23/31 21/31/46
s 5
f 20/32/44 19/33/47 35/61/48 34/35/49
s 4
f 19/65/50 24/24/33 36/36/51 35/34/52
s 2
f 26/27/37 25/37/53 39/86/54 38/6/7
s 6
f 25/91/55 30/39/56 40/40/57 39/38/58
f 30/39/56 29/41/59 33/79/60 32/43/61
s 5
f 29/83/62 28/29/40 34/35/49 33/42/63
s 6
f 32/43/61 31/44/64 47/58/65 46/46/66
s 4
f 31/62/67 36/36/51 48/19/25 47/45/68
s 1
f 42/4/4 41/47/69 45/48/70 44/20/27
s 6
f 41/89/71 40/40/57 46/46/66 45/48/72
s 3
f 4/7/9 10/10/12 22/23/31 16/15/20
s 5
f 18/28/39 20/32/44 34/35/49 28/29/40
s 6
f 30/39/56 32/43/61 46/46/66 40/40/57
s 1
f 42/4/4 44/20/27 12/11/14 2/1/1
s 4
f 8/16/22 48/19/25 36/36/51 24/24/33
s 2
f 38/6/7 6/5/6 14/14/18 26/27/37
f 5/12/16 6/5/6 1/93/5 49/94/73
s 1
f 1/2/2 2/1/1 3/76/13 49/49/74
s 3
f 3/8/10 4/7/9 5/78/19 49/77/75
s 1
f 11/9/15 12/11/14 7/68/26 50/67/76
s 4
f 7/17/23 8/16/22 9/66/32 50/50/77
s 3
f 9/21/29 10/10/12 11/75/11 50/74/78
s 5
f 17/30/42 18/28/39 13/84/38 51/85/79
s 2
f 13/25/35 14/14/18 15/71/17 51/51/80
s 3
f 15/13/21 16/15/20 17/73/45 51/72/81
s 4
f 23/22/34 24/24/33 19/65/50 52/63/82
s 5
f 19/33/47 20/32/44 21/69/43 52/52/83
s 3
f 21/31/46 22/23/31 23/64/30 52/70/84
s 6
f 29/41/59 30/39/56 25/91/55 53/92/85
s 2
f 25/37/53 26/27/37 27/81/36 53/53/86
s 5
f 27/26/41 28/29/40 29/83/62 53/82/87
s 4
f 35/34/52 36/36/51 31/62/67 54/60/88
s 6
f 31/44/64 32/43/61 33/79/60 54/54/89
s 5
f 33/42/63 34/35/49 35/61/48 54/80/90
s 1
f 41/47/69 42/4/4 37/90/3 55/87/91
s 2
f 37/3/8 38/6/7 39/86/54 55/55/92
s 6
f 39/38/58 40/40/57 41/89/71 55/88/93
s 4
f 47/45/68 48/19/25 43/59/24 56/57/94
s 1
f 43/18/28 44/20/27 45/48/70 56/56/95
s 6
f 45/48/72 46/46/66 47/58/65 56/56/96
