# 3ds Max Wavefront OBJ Exporter v0.97b - (c)2007 guruware
# File Created: 17.03.2019 21:05:44

#
# object cup
#

v  0.0000 0.0000 -0.0000
v  6.0715 0.0000 -2.5149
v  6.5718 0.0000 0.0000
v  4.6469 0.0000 -4.6469
v  2.5149 0.0000 -6.0715
v  -0.0000 0.0000 -6.5718
v  -2.5149 0.0000 -6.0715
v  -4.6469 0.0000 -4.6469
v  -6.0715 0.0000 -2.5149
v  -6.5718 0.0000 -0.0000
v  -6.0715 0.0000 2.5149
v  -4.6469 0.0000 4.6469
v  -2.5149 0.0000 6.0715
v  0.0000 0.0000 6.5718
v  2.5149 0.0000 6.0715
v  4.6470 0.0000 4.6469
v  6.0715 0.0000 2.5149
v  6.7454 1.4308 -2.7940
v  7.3011 1.4308 -0.0000
v  5.1627 1.4308 -5.1627
v  2.7940 1.4308 -6.7454
v  -0.0000 1.4308 -7.3011
v  -2.7940 1.4308 -6.7454
v  -5.1627 1.4308 -5.1627
v  -6.7454 1.4308 -2.7940
v  -7.3011 1.4308 -0.0000
v  -6.7454 1.4308 2.7940
v  -5.1627 1.4308 5.1627
v  -2.7940 1.4308 6.7454
v  0.0000 1.4308 7.3011
v  2.7940 1.4308 6.7454
v  5.1627 1.4308 5.1627
v  6.7454 1.4308 2.7940
v  6.4614 6.0007 -2.6764
v  6.9937 6.0007 -0.0000
v  4.9453 6.0007 -4.9453
v  2.6764 6.0007 -6.4614
v  -0.0000 6.0007 -6.9937
v  -2.6764 6.0007 -6.4614
v  -4.9453 6.0007 -4.9453
v  -6.4614 6.0007 -2.6764
v  -6.9937 6.0007 -0.0000
v  -6.4614 6.0007 2.6764
v  -4.9453 6.0007 4.9453
v  -2.6764 6.0007 6.4614
v  0.0000 6.0007 6.9937
v  2.6764 6.0007 6.4614
v  4.9453 6.0007 4.9453
v  6.4614 6.0007 2.6764
v  6.5967 10.5706 -2.7325
v  7.1403 10.5706 0.0000
v  5.0489 10.5706 -5.0489
v  2.7325 10.5706 -6.5967
v  -0.0000 10.5706 -7.1403
v  -2.7325 10.5706 -6.5967
v  -5.0489 10.5706 -5.0489
v  -6.5967 10.5706 -2.7325
v  -7.1403 10.5706 -0.0000
v  -6.5967 10.5706 2.7325
v  -5.0489 10.5706 5.0489
v  -2.7325 10.5706 6.5967
v  -0.0000 10.5706 7.1403
v  2.7325 10.5706 6.5967
v  5.0489 10.5706 5.0489
v  6.5968 10.5706 2.7325
v  7.1515 15.1405 -2.9623
v  7.7408 15.1405 -0.0000
v  5.4735 15.1405 -5.4735
v  2.9623 15.1405 -7.1515
v  -0.0000 15.1405 -7.7408
v  -2.9623 15.1405 -7.1515
v  -5.4735 15.1405 -5.4735
v  -7.1515 15.1405 -2.9623
v  -7.7408 15.1405 -0.0000
v  -7.1515 15.1405 2.9623
v  -5.4735 15.1405 5.4735
v  -2.9623 15.1405 7.1515
v  0.0000 15.1405 7.7408
v  2.9623 15.1405 7.1515
v  5.4735 15.1405 5.4735
v  7.1515 15.1405 2.9623
v  8.1257 19.7105 -3.3658
v  8.7952 19.7105 -0.0000
v  6.2191 19.7105 -6.2191
v  3.3658 19.7105 -8.1257
v  -0.0000 19.7105 -8.7952
v  -3.3658 19.7105 -8.1257
v  -6.2191 19.7105 -6.2191
v  -8.1257 19.7105 -3.3658
v  -8.7952 19.7105 -0.0000
v  -8.1257 19.7105 3.3658
v  -6.2192 19.7105 6.2191
v  -3.3658 19.7105 8.1257
v  0.0000 19.7105 8.7952
v  3.3658 19.7105 8.1257
v  6.2192 19.7105 6.2191
v  8.1257 19.7105 3.3658
v  7.1289 19.7105 -2.9529
v  7.7163 19.7105 0.0000
v  5.4562 19.7105 -5.4562
v  2.9529 19.7105 -7.1289
v  -0.0000 19.7105 -7.7163
v  -2.9529 19.7105 -7.1289
v  -5.4562 19.7105 -5.4562
v  -7.1289 19.7105 -2.9529
v  -7.7163 19.7105 -0.0000
v  -7.1289 19.7105 2.9529
v  -5.4562 19.7105 5.4562
v  -2.9529 19.7105 7.1289
v  0.0000 19.7105 7.7163
v  2.9529 19.7105 7.1289
v  5.4562 19.7105 5.4562
v  7.1289 19.7105 2.9529
v  0.0000 3.0466 0.0000
v  6.2646 3.0466 0.0000
v  5.7877 3.0466 -2.3974
v  4.4297 3.0466 -4.4297
v  2.3974 3.0466 -5.7877
v  0.0000 3.0466 -6.2646
v  -2.3974 3.0466 -5.7877
v  -4.4297 3.0466 -4.4297
v  -5.7877 3.0466 -2.3974
v  -6.2646 3.0466 -0.0000
v  -5.7877 3.0466 2.3974
v  -4.4297 3.0466 4.4297
v  -2.3974 3.0466 5.7877
v  0.0000 3.0466 6.2646
v  2.3974 3.0466 5.7877
v  4.4297 3.0466 4.4297
v  5.7877 3.0466 2.3974
v  5.7596 10.1234 -2.3857
v  6.2342 10.1234 0.0000
v  4.4082 10.1234 -4.4082
v  2.3857 10.1234 -5.7596
v  -0.0000 10.1234 -6.2342
v  -2.3857 10.1234 -5.7596
v  -4.4082 10.1234 -4.4082
v  -5.7596 10.1234 -2.3857
v  -6.2342 10.1234 -0.0000
v  -5.7596 10.1234 2.3857
v  -4.4082 10.1234 4.4082
v  -2.3857 10.1234 5.7596
v  0.0000 10.1234 6.2342
v  2.3857 10.1234 5.7596
v  4.4082 10.1234 4.4082
v  5.7596 10.1234 2.3857
# 146 vertices

vn 0.0000 -1.0000 -0.0000
vn 0.5236 -0.8239 -0.2169
vn 0.5667 -0.8239 0.0000
vn 0.4007 -0.8239 -0.4007
vn 0.2169 -0.8239 -0.5236
vn 0.0000 -0.8239 -0.5667
vn -0.2169 -0.8239 -0.5236
vn -0.4007 -0.8239 -0.4007
vn -0.5236 -0.8239 -0.2169
vn -0.5667 -0.8239 -0.0000
vn -0.5236 -0.8239 0.2169
vn -0.4007 -0.8239 0.4007
vn -0.2169 -0.8239 0.5236
vn 0.0000 -0.8239 0.5667
vn 0.2169 -0.8239 0.5236
vn 0.4007 -0.8239 0.4007
vn 0.5236 -0.8239 0.2169
vn 0.9062 -0.1945 -0.3754
vn 0.9809 -0.1945 -0.0000
vn 0.6936 -0.1945 -0.6936
vn 0.3754 -0.1945 -0.9062
vn -0.0000 -0.1945 -0.9809
vn -0.3754 -0.1945 -0.9062
vn -0.6936 -0.1945 -0.6936
vn -0.9062 -0.1945 -0.3754
vn -0.9809 -0.1945 0.0000
vn -0.9062 -0.1945 0.3754
vn -0.6936 -0.1945 0.6936
vn -0.3754 -0.1945 0.9062
vn 0.0000 -0.1945 0.9809
vn 0.3754 -0.1945 0.9062
vn 0.6936 -0.1945 0.6936
vn 0.9062 -0.1945 0.3754
vn 0.9237 0.0177 -0.3826
vn 0.9998 0.0177 -0.0000
vn 0.7070 0.0177 -0.7070
vn 0.3826 0.0177 -0.9237
vn -0.0000 0.0177 -0.9998
vn -0.3826 0.0177 -0.9237
vn -0.7070 0.0177 -0.7070
vn -0.9237 0.0177 -0.3826
vn -0.9998 0.0177 -0.0000
vn -0.9237 0.0177 0.3826
vn -0.7070 0.0177 0.7070
vn -0.3826 0.0177 0.9237
vn 0.0000 0.0177 0.9998
vn 0.3826 0.0177 0.9237
vn 0.7070 0.0177 0.7070
vn 0.9237 0.0177 0.3826
vn 0.9208 -0.0818 -0.3814
vn 0.9967 -0.0818 -0.0000
vn 0.7047 -0.0818 -0.7047
vn 0.3814 -0.0818 -0.9208
vn 0.0000 -0.0818 -0.9967
vn -0.3814 -0.0818 -0.9208
vn -0.7047 -0.0818 -0.7047
vn -0.9208 -0.0818 -0.3814
vn -0.9967 -0.0818 -0.0000
vn -0.9208 -0.0818 0.3814
vn -0.7047 -0.0818 0.7047
vn -0.3814 -0.0818 0.9208
vn 0.0000 -0.0818 0.9967
vn 0.3814 -0.0818 0.9208
vn 0.7047 -0.0818 0.7047
vn 0.9208 -0.0818 0.3814
vn 0.9090 -0.1788 -0.3765
vn 0.9839 -0.1788 -0.0000
vn 0.6957 -0.1788 -0.6957
vn 0.3765 -0.1788 -0.9090
vn 0.0000 -0.1788 -0.9839
vn -0.3765 -0.1788 -0.9090
vn -0.6957 -0.1788 -0.6957
vn -0.9090 -0.1788 -0.3765
vn -0.9839 -0.1788 -0.0000
vn -0.9090 -0.1788 0.3765
vn -0.6957 -0.1788 0.6957
vn -0.3765 -0.1788 0.9090
vn 0.0000 -0.1788 0.9839
vn 0.3765 -0.1788 0.9090
vn 0.6957 -0.1788 0.6957
vn 0.9090 -0.1788 0.3765
vn 0.7532 0.5791 -0.3120
vn 0.8153 0.5791 -0.0000
vn 0.5765 0.5791 -0.5765
vn 0.3120 0.5791 -0.7532
vn -0.0000 0.5791 -0.8153
vn -0.3120 0.5791 -0.7532
vn -0.5765 0.5791 -0.5765
vn -0.7532 0.5791 -0.3120
vn -0.8153 0.5791 0.0000
vn -0.7532 0.5791 0.3120
vn -0.5765 0.5791 0.5765
vn -0.3120 0.5791 0.7532
vn 0.0000 0.5791 0.8153
vn 0.3120 0.5791 0.7532
vn 0.5765 0.5791 0.5765
vn 0.7532 0.5791 0.3120
vn -0.5533 0.8008 0.2292
vn -0.5989 0.8008 0.0000
vn -0.4235 0.8008 0.4235
vn -0.2292 0.8008 0.5533
vn 0.0000 0.8008 0.5989
vn 0.2292 0.8008 0.5533
vn 0.4235 0.8008 0.4235
vn 0.5533 0.8008 0.2292
vn 0.5989 0.8008 -0.0000
vn 0.5533 0.8008 -0.2292
vn 0.4235 0.8008 -0.4235
vn 0.2292 0.8008 -0.5533
vn -0.0000 0.8008 -0.5989
vn -0.2292 0.8008 -0.5533
vn -0.4235 0.8008 -0.4235
vn -0.5533 0.8008 -0.2292
vn 0.0000 1.0000 -0.0000
vn -0.7476 0.6641 -0.0000
vn -0.6907 0.6641 0.2861
vn -0.5286 0.6641 0.5286
vn -0.2861 0.6641 0.6907
vn -0.0000 0.6641 0.7476
vn 0.2861 0.6641 0.6907
vn 0.5286 0.6641 0.5286
vn 0.6907 0.6641 0.2861
vn 0.7476 0.6641 -0.0000
vn 0.6907 0.6641 -0.2861
vn 0.5286 0.6641 -0.5286
vn 0.2861 0.6641 -0.6907
vn -0.0000 0.6641 -0.7476
vn -0.2861 0.6641 -0.6907
vn -0.5286 0.6641 -0.5286
vn -0.6907 0.6641 -0.2861
vn -0.9213 0.0752 0.3816
vn -0.9972 0.0752 0.0000
vn -0.7051 0.0752 0.7051
vn -0.3816 0.0752 0.9213
vn 0.0000 0.0752 0.9972
vn 0.3816 0.0752 0.9213
vn 0.7051 0.0752 0.7051
vn 0.9213 0.0752 0.3816
vn 0.9972 0.0752 0.0000
vn 0.9213 0.0752 -0.3816
vn 0.7051 0.0752 -0.7051
vn 0.3816 0.0752 -0.9213
vn -0.0000 0.0752 -0.9972
vn -0.3816 0.0752 -0.9213
vn -0.7051 0.0752 -0.7051
vn -0.9213 0.0752 -0.3816
# 146 vertex normals

vt 0.3914 0.8729 0.0014
vt 0.4630 0.7665 0.0014
vt 0.4983 0.8020 0.0014
vt 0.4169 0.7472 0.0014
vt 0.3668 0.7470 0.0014
vt 0.3205 0.7660 0.0014
vt 0.2850 0.8013 0.0014
vt 0.2657 0.8474 0.0014
vt 0.2656 0.8974 0.0014
vt 0.2846 0.9437 0.0014
vt 0.3198 0.9792 0.0014
vt 0.3660 0.9985 0.0014
vt 0.4160 0.9987 0.0014
vt 0.4623 0.9797 -0.0014
vt 0.4978 0.9444 0.0014
vt 0.5171 0.8983 0.0014
vt 0.5173 0.8483 0.0014
vt 0.6894 0.0010 0.0090
vt 0.7460 0.0010 0.0090
vt 0.7460 0.0348 0.0090
vt 0.6894 0.0348 0.0090
vt 0.8026 0.0010 0.0090
vt 0.8026 0.0348 0.0090
vt 0.8615 0.0010 0.0090
vt 0.8615 0.0348 0.0090
vt 0.9194 0.0010 0.0090
vt 0.9194 0.0348 0.0090
vt 0.0010 0.0010 0.0090
vt 0.0624 0.0010 0.0090
vt 0.0624 0.0348 0.0090
vt 0.0010 0.0348 0.0090
vt 0.1186 0.0010 0.0090
vt 0.1186 0.0348 0.0090
vt 0.1748 0.0010 0.0090
vt 0.1748 0.0348 0.0090
vt 0.2312 0.0010 0.0090
vt 0.2312 0.0348 0.0090
vt 0.2876 0.0010 0.0090
vt 0.2876 0.0348 0.0090
vt 0.3441 0.0010 0.0090
vt 0.3441 0.0348 0.0090
vt 0.4005 0.0010 0.0090
vt 0.4005 0.0348 0.0090
vt 0.4602 0.0010 0.0090
vt 0.4602 0.0348 0.0090
vt 0.5200 0.0010 0.0090
vt 0.5200 0.0348 0.0090
vt 0.5764 0.0010 0.0090
vt 0.5764 0.0348 0.0090
vt 0.6329 0.0010 0.0090
vt 0.6329 0.0348 0.0090
vt 0.7460 0.1003 0.0090
vt 0.6894 0.1003 0.0090
vt 0.8026 0.1003 0.0090
vt 0.8615 0.1003 0.0090
vt 0.9194 0.1003 0.0090
vt 0.0624 0.1003 0.0090
vt 0.0010 0.1003 0.0090
vt 0.1186 0.1003 0.0090
vt 0.1748 0.1003 0.0090
vt 0.2312 0.1003 0.0090
vt 0.2876 0.1003 0.0090
vt 0.3441 0.1003 0.0090
vt 0.4005 0.1003 0.0090
vt 0.4602 0.1003 0.0090
vt 0.5200 0.1003 0.0090
vt 0.5764 0.1003 0.0090
vt 0.6329 0.1003 0.0090
vt 0.7460 0.1956 0.0090
vt 0.6894 0.1956 0.0090
vt 0.8026 0.1956 0.0090
vt 0.8615 0.1956 0.0090
vt 0.9194 0.1956 0.0090
vt 0.0624 0.1956 0.0090
vt 0.0010 0.1956 0.0090
vt 0.1186 0.1956 0.0090
vt 0.1748 0.1956 0.0090
vt 0.2312 0.1956 0.0090
vt 0.2876 0.1956 0.0090
vt 0.3441 0.1956 0.0090
vt 0.4005 0.1956 0.0090
vt 0.4602 0.1956 0.0090
vt 0.5200 0.1956 0.0090
vt 0.5764 0.1956 0.0090
vt 0.6329 0.1956 0.0090
vt 0.7460 0.2908 0.0090
vt 0.6894 0.2908 0.0090
vt 0.8026 0.2908 0.0090
vt 0.8615 0.2908 0.0090
vt 0.9194 0.2908 0.0090
vt 0.0624 0.2908 0.0090
vt 0.0010 0.2908 0.0090
vt 0.1186 0.2908 0.0090
vt 0.1748 0.2908 0.0090
vt 0.2312 0.2908 0.0090
vt 0.2876 0.2908 0.0090
vt 0.3441 0.2908 0.0090
vt 0.4005 0.2908 0.0090
vt 0.4602 0.2908 0.0090
vt 0.5200 0.2908 0.0090
vt 0.5764 0.2908 0.0090
vt 0.6329 0.2908 0.0090
vt 0.7460 0.3855 0.0090
vt 0.6894 0.3855 0.0090
vt 0.8026 0.3855 0.0090
vt 0.8615 0.3855 -0.0053
vt 0.9194 0.3855 0.0090
vt 0.0624 0.3855 0.0090
vt 0.0010 0.3855 0.0090
vt 0.1186 0.3855 0.0090
vt 0.1748 0.3855 0.0090
vt 0.2312 0.3855 0.0090
vt 0.2876 0.3855 0.0090
vt 0.3441 0.3855 0.0090
vt 0.4005 0.3855 0.0090
vt 0.4602 0.3855 -0.0090
vt 0.5200 0.3855 0.0090
vt 0.5764 0.3855 0.0090
vt 0.6329 0.3855 0.0090
vt 0.2757 0.4093 0.0002
vt 0.2094 0.4093 0.0002
vt 0.2094 0.3914 0.0002
vt 0.2757 0.3914 0.0002
vt 0.1419 0.4093 0.0002
vt 0.1419 0.3914 0.0002
vt 0.0738 0.4093 0.0002
vt 0.0738 0.3914 0.0002
vt 0.0010 0.4093 0.0002
vt 0.0010 0.3914 0.0002
vt 0.8573 0.4093 -0.0002
vt 0.8195 0.4093 0.0002
vt 0.8195 0.3914 0.0002
vt 0.8573 0.3914 0.0002
vt 0.7808 0.4093 0.0002
vt 0.7808 0.3914 0.0002
vt 0.7417 0.4093 0.0002
vt 0.7417 0.3914 0.0002
vt 0.7015 0.4093 0.0002
vt 0.7015 0.3914 0.0002
vt 0.6595 0.4093 0.0002
vt 0.6595 0.3914 0.0002
vt 0.6148 0.4093 0.0002
vt 0.6148 0.3914 0.0002
vt 0.5668 0.4093 0.0002
vt 0.5668 0.3914 0.0002
vt 0.5152 0.4093 0.0002
vt 0.5152 0.3914 0.0002
vt 0.4599 0.4093 0.0002
vt 0.4599 0.3914 0.0002
vt 0.4010 0.4093 0.0002
vt 0.4010 0.3914 0.0002
vt 0.3391 0.4093 0.0002
vt 0.3391 0.3914 0.0002
vt 0.1270 0.8730 0.0000
vt 0.1532 0.9985 0.0000
vt 0.1032 0.9990 0.0000
vt 0.0568 0.9803 0.0000
vt 0.0211 0.9453 0.0000
vt 0.0015 0.8992 0.0000
vt 0.0010 0.8492 0.0000
vt 0.0197 0.8028 0.0000
vt 0.0547 0.7671 0.0000
vt 0.1008 0.7475 0.0000
vt 0.1508 0.7470 0.0000
vt 0.1972 0.7657 0.0000
vt 0.2329 0.8007 0.0000
vt 0.2525 0.8468 0.0000
vt 0.2530 0.8968 0.0000
vt 0.2343 0.9432 0.0000
vt 0.1993 0.9789 0.0000
vt 0.1937 0.7419 0.0000
vt 0.1455 0.7419 0.0000
vt 0.1455 0.5617 0.0000
vt 0.1937 0.5617 0.0000
vt 0.0974 0.7419 0.0000
vt 0.0974 0.5617 0.0000
vt 0.0492 0.7419 0.0000
vt 0.0492 0.5617 0.0014
vt 0.0010 0.7419 0.0000
vt 0.0010 0.5617 0.0000
vt 0.7719 0.7419 -0.0014
vt 0.7237 0.7419 0.0000
vt 0.7237 0.5617 0.0000
vt 0.7719 0.5617 0.0000
vt 0.6755 0.7419 0.0000
vt 0.6755 0.5617 0.0000
vt 0.6273 0.7419 0.0000
vt 0.6273 0.5617 0.0000
vt 0.5791 0.7419 0.0000
vt 0.5791 0.5617 0.0000
vt 0.5309 0.7419 0.0000
vt 0.5309 0.5617 0.0000
vt 0.4828 0.7419 0.0000
vt 0.4828 0.5617 0.0000
vt 0.4346 0.7419 0.0000
vt 0.4346 0.5617 0.0000
vt 0.3864 0.7419 0.0000
vt 0.3864 0.5617 0.0000
vt 0.3382 0.7419 0.0000
vt 0.3382 0.5617 0.0000
vt 0.2901 0.7419 0.0000
vt 0.2901 0.5617 0.0000
vt 0.2419 0.7419 0.0000
vt 0.2419 0.5617 0.0000
vt 0.1455 0.4130 0.0000
vt 0.1937 0.4130 0.0000
vt 0.0974 0.4130 0.0000
vt 0.0492 0.4130 0.0000
vt 0.0010 0.4130 0.0000
vt 0.7237 0.4130 0.0000
vt 0.7719 0.4130 0.0000
vt 0.6755 0.4130 0.0000
vt 0.6273 0.4130 0.0000
vt 0.5791 0.4130 0.0000
vt 0.5309 0.4130 0.0000
vt 0.4828 0.4130 0.0000
vt 0.4346 0.4130 0.0000
vt 0.3864 0.4130 0.0000
vt 0.3382 0.4130 0.0000
vt 0.2901 0.4130 0.0000
vt 0.2419 0.4130 0.0000
# 221 texture coords

o cup
g cup
s 1
f 1/1/1 2/2/2 3/3/3 
f 1/1/1 4/4/4 2/2/2 
f 1/1/1 5/5/5 4/4/4 
f 1/1/1 6/6/6 5/5/5 
f 1/1/1 7/7/7 6/6/6 
f 1/1/1 8/8/8 7/7/7 
f 1/1/1 9/9/9 8/8/8 
f 1/1/1 10/10/10 9/9/9 
f 1/1/1 11/11/11 10/10/10 
f 1/1/1 12/12/12 11/11/11 
f 1/1/1 13/13/13 12/12/12 
f 1/1/1 14/14/14 13/13/13 
f 1/1/1 15/15/15 14/14/14 
f 1/1/1 16/16/16 15/15/15 
f 1/1/1 17/17/17 16/16/16 
f 1/1/1 3/3/3 17/17/17 
s 2
f 3/18/3 2/19/2 18/20/18 19/21/19 
f 2/19/2 4/22/4 20/23/20 18/20/18 
f 4/22/4 5/24/5 21/25/21 20/23/20 
f 5/24/5 6/26/6 22/27/22 21/25/21 
f 6/28/6 7/29/7 23/30/23 22/31/22 
f 7/29/7 8/32/8 24/33/24 23/30/23 
f 8/32/8 9/34/9 25/35/25 24/33/24 
f 9/34/9 10/36/10 26/37/26 25/35/25 
f 10/36/10 11/38/11 27/39/27 26/37/26 
f 11/38/11 12/40/12 28/41/28 27/39/27 
f 12/40/12 13/42/13 29/43/29 28/41/28 
f 13/42/13 14/44/14 30/45/30 29/43/29 
f 14/44/14 15/46/15 31/47/31 30/45/30 
f 15/46/15 16/48/16 32/49/32 31/47/31 
f 16/48/16 17/50/17 33/51/33 32/49/32 
f 17/50/17 3/18/3 19/21/19 33/51/33 
f 19/21/19 18/20/18 34/52/34 35/53/35 
f 18/20/18 20/23/20 36/54/36 34/52/34 
f 20/23/20 21/25/21 37/55/37 36/54/36 
f 21/25/21 22/27/22 38/56/38 37/55/37 
f 22/31/22 23/30/23 39/57/39 38/58/38 
f 23/30/23 24/33/24 40/59/40 39/57/39 
f 24/33/24 25/35/25 41/60/41 40/59/40 
f 25/35/25 26/37/26 42/61/42 41/60/41 
f 26/37/26 27/39/27 43/62/43 42/61/42 
f 27/39/27 28/41/28 44/63/44 43/62/43 
f 28/41/28 29/43/29 45/64/45 44/63/44 
f 29/43/29 30/45/30 46/65/46 45/64/45 
f 30/45/30 31/47/31 47/66/47 46/65/46 
f 31/47/31 32/49/32 48/67/48 47/66/47 
f 32/49/32 33/51/33 49/68/49 48/67/48 
f 33/51/33 19/21/19 35/53/35 49/68/49 
f 35/53/35 34/52/34 50/69/50 51/70/51 
f 34/52/34 36/54/36 52/71/52 50/69/50 
f 36/54/36 37/55/37 53/72/53 52/71/52 
f 37/55/37 38/56/38 54/73/54 53/72/53 
f 38/58/38 39/57/39 55/74/55 54/75/54 
f 39/57/39 40/59/40 56/76/56 55/74/55 
f 40/59/40 41/60/41 57/77/57 56/76/56 
f 41/60/41 42/61/42 58/78/58 57/77/57 
f 42/61/42 43/62/43 59/79/59 58/78/58 
f 43/62/43 44/63/44 60/80/60 59/79/59 
f 44/63/44 45/64/45 61/81/61 60/80/60 
f 45/64/45 46/65/46 62/82/62 61/81/61 
f 46/65/46 47/66/47 63/83/63 62/82/62 
f 47/66/47 48/67/48 64/84/64 63/83/63 
f 48/67/48 49/68/49 65/85/65 64/84/64 
f 49/68/49 35/53/35 51/70/51 65/85/65 
f 51/70/51 50/69/50 66/86/66 67/87/67 
f 50/69/50 52/71/52 68/88/68 66/86/66 
f 52/71/52 53/72/53 69/89/69 68/88/68 
f 53/72/53 54/73/54 70/90/70 69/89/69 
f 54/75/54 55/74/55 71/91/71 70/92/70 
f 55/74/55 56/76/56 72/93/72 71/91/71 
f 56/76/56 57/77/57 73/94/73 72/93/72 
f 57/77/57 58/78/58 74/95/74 73/94/73 
f 58/78/58 59/79/59 75/96/75 74/95/74 
f 59/79/59 60/80/60 76/97/76 75/96/75 
f 60/80/60 61/81/61 77/98/77 76/97/76 
f 61/81/61 62/82/62 78/99/78 77/98/77 
f 62/82/62 63/83/63 79/100/79 78/99/78 
f 63/83/63 64/84/64 80/101/80 79/100/79 
f 64/84/64 65/85/65 81/102/81 80/101/80 
f 65/85/65 51/70/51 67/87/67 81/102/81 
f 67/87/67 66/86/66 82/103/82 83/104/83 
f 66/86/66 68/88/68 84/105/84 82/103/82 
f 68/88/68 69/89/69 85/106/85 84/105/84 
f 69/89/69 70/90/70 86/107/86 85/106/85 
f 70/92/70 71/91/71 87/108/87 86/109/86 
f 71/91/71 72/93/72 88/110/88 87/108/87 
f 72/93/72 73/94/73 89/111/89 88/110/88 
f 73/94/73 74/95/74 90/112/90 89/111/89 
f 74/95/74 75/96/75 91/113/91 90/112/90 
f 75/96/75 76/97/76 92/114/92 91/113/91 
f 76/97/76 77/98/77 93/115/93 92/114/92 
f 77/98/77 78/99/78 94/116/94 93/115/93 
f 78/99/78 79/100/79 95/117/95 94/116/94 
f 79/100/79 80/101/80 96/118/96 95/117/95 
f 80/101/80 81/102/81 97/119/97 96/118/96 
f 81/102/81 67/87/67 83/104/83 97/119/97 
s 1
f 83/120/83 82/121/82 98/122/98 99/123/99 
f 82/121/82 84/124/84 100/125/100 98/122/98 
f 84/124/84 85/126/85 101/127/101 100/125/100 
f 85/126/85 86/128/86 102/129/102 101/127/101 
f 86/130/86 87/131/87 103/132/103 102/133/102 
f 87/131/87 88/134/88 104/135/104 103/132/103 
f 88/134/88 89/136/89 105/137/105 104/135/104 
f 89/136/89 90/138/90 106/139/106 105/137/105 
f 90/138/90 91/140/91 107/141/107 106/139/106 
f 91/140/91 92/142/92 108/143/108 107/141/107 
f 92/142/92 93/144/93 109/145/109 108/143/108 
f 93/144/93 94/146/94 110/147/110 109/145/109 
f 94/146/94 95/148/95 111/149/111 110/147/110 
f 95/148/95 96/150/96 112/151/112 111/149/111 
f 96/150/96 97/152/97 113/153/113 112/151/112 
f 97/152/97 83/120/83 99/123/99 113/153/113 
f 114/154/114 115/155/115 116/156/116 
f 114/154/114 116/156/116 117/157/117 
f 114/154/114 117/157/117 118/158/118 
f 114/154/114 118/158/118 119/159/119 
f 114/154/114 119/159/119 120/160/120 
f 114/154/114 120/160/120 121/161/121 
f 114/154/114 121/161/121 122/162/122 
f 114/154/114 122/162/122 123/163/123 
f 114/154/114 123/163/123 124/164/124 
f 114/154/114 124/164/124 125/165/125 
f 114/154/114 125/165/125 126/166/126 
f 114/154/114 126/166/126 127/167/127 
f 114/154/114 127/167/127 128/168/128 
f 114/154/114 128/168/128 129/169/129 
f 114/154/114 129/169/129 130/170/130 
f 114/154/114 130/170/130 115/155/115 
s 2
f 99/171/99 98/172/98 131/173/131 132/174/132 
f 98/172/98 100/175/100 133/176/133 131/173/131 
f 100/175/100 101/177/101 134/178/134 133/176/133 
f 101/177/101 102/179/102 135/180/135 134/178/134 
f 102/181/102 103/182/103 136/183/136 135/184/135 
f 103/182/103 104/185/104 137/186/137 136/183/136 
f 104/185/104 105/187/105 138/188/138 137/186/137 
f 105/187/105 106/189/106 139/190/139 138/188/138 
f 106/189/106 107/191/107 140/192/140 139/190/139 
f 107/191/107 108/193/108 141/194/141 140/192/140 
f 108/193/108 109/195/109 142/196/142 141/194/141 
f 109/195/109 110/197/110 143/198/143 142/196/142 
f 110/197/110 111/199/111 144/200/144 143/198/143 
f 111/199/111 112/201/112 145/202/145 144/200/144 
f 112/201/112 113/203/113 146/204/146 145/202/145 
f 113/203/113 99/171/99 132/174/132 146/204/146 
f 131/173/131 116/205/116 115/206/115 132/174/132 
f 133/176/133 117/207/117 116/205/116 131/173/131 
f 134/178/134 118/208/118 117/207/117 133/176/133 
f 135/180/135 119/209/119 118/208/118 134/178/134 
f 136/183/136 120/210/120 119/211/119 135/184/135 
f 137/186/137 121/212/121 120/210/120 136/183/136 
f 138/188/138 122/213/122 121/212/121 137/186/137 
f 139/190/139 123/214/123 122/213/122 138/188/138 
f 140/192/140 124/215/124 123/214/123 139/190/139 
f 141/194/141 125/216/125 124/215/124 140/192/140 
f 142/196/142 126/217/126 125/216/125 141/194/141 
f 143/198/143 127/218/127 126/217/126 142/196/142 
f 144/200/144 128/219/128 127/218/127 143/198/143 
f 145/202/145 129/220/129 128/219/128 144/200/144 
f 146/204/146 130/221/130 129/220/129 145/202/145 
f 132/174/132 115/206/115 130/221/130 146/204/146 
# 128 polygons - 32 triangles

