# 3ds Max Wavefront OBJ Exporter v0.97b - (c)2007 guruware
# File Created: 03.04.2019 14:01:29

#
# object frame_wall
#

v  0.0000 30.8045 5.1494
v  0.0000 30.0474 10.2988
v  0.0000 24.9289 9.1308
v  0.0000 25.3770 4.5654
v  0.0000 19.6492 8.7616
v  0.0000 19.8690 4.3808
v  0.0000 20.0887 -0.0000
v  0.0000 25.8252 -0.0000
v  0.0000 31.5617 -0.0000
v  -0.0000 14.2085 9.1912
v  -0.0000 8.6066 10.4197
v  -0.0000 8.6111 5.2098
v  -0.0000 14.2803 4.5956
v  -0.0000 8.6157 -0.0000
v  -0.0000 14.3522 -0.0000
v  -0.0000 8.6202 -5.2098
v  -0.0000 8.6247 -10.4197
v  -0.0000 14.4959 -9.1912
v  -0.0000 14.4240 -4.5956
v  0.0000 20.5281 -8.7616
v  0.0000 20.3084 -4.3808
v  0.0000 26.7215 -9.1308
v  0.0000 33.0760 -10.2988
v  0.0000 32.3189 -5.1494
v  0.0000 26.2734 -4.5654
v  1.1843 33.0760 -10.2988
v  1.1843 32.3189 -5.1494
v  1.1843 31.5617 -0.0000
v  1.1843 30.8045 5.1494
v  1.1843 30.0474 10.2988
v  1.1843 8.6247 -10.4197
v  1.1843 14.4959 -9.1912
v  1.1843 20.5281 -8.7616
v  1.1843 26.7215 -9.1308
v  1.1843 8.6066 10.4197
v  1.1843 8.6111 5.2098
v  1.1843 8.6157 -0.0000
v  1.1843 8.6202 -5.2098
v  1.1843 24.9289 9.1308
v  1.1843 19.6492 8.7616
v  1.1843 14.2085 9.1912
v  1.1843 34.2948 -11.4597
v  1.1843 33.4094 -5.7299
v  1.1843 32.5240 -0.0000
v  1.1843 31.6386 5.7299
v  1.1843 30.7532 11.4597
v  1.1843 7.6558 -11.6018
v  1.1843 14.0078 -10.0405
v  1.1843 20.5650 -9.4965
v  1.1843 27.3273 -9.9695
v  1.1843 7.6509 11.6018
v  1.1843 7.6522 5.8009
v  1.1843 7.6534 0.0000
v  1.1843 7.6546 -5.8009
v  1.1843 25.2853 9.9695
v  1.1843 19.6124 9.4965
v  1.1843 13.7342 10.0405
v  0.0000 35.5392 -12.6932
v  0.0000 34.5128 -6.3466
v  0.0000 33.4865 -0.0000
v  0.0000 32.4601 6.3466
v  0.0000 31.4338 12.6932
v  -0.0000 6.6909 -12.8581
v  0.0000 13.5181 -10.9087
v  0.0000 20.6019 -10.2315
v  0.0000 27.9422 -10.8263
v  -0.0000 6.6909 12.8581
v  -0.0000 6.6909 6.4290
v  -0.0000 6.6909 -0.0000
v  -0.0000 6.6909 -6.4290
v  0.0000 25.6329 10.8263
v  0.0000 19.5755 10.2315
v  0.0000 13.2615 10.9087
# 73 vertices

vn 0.7071 -0.6996 -0.1029
vn 0.5733 -0.4627 -0.6762
vn 0.7249 0.1009 -0.6814
vn 1.0000 -0.0000 -0.0000
vn 0.7242 -0.0031 -0.6896
vn 0.7229 -0.1014 -0.6835
vn 0.5668 0.5167 -0.6417
vn 0.7071 0.7071 0.0006
vn 0.5673 0.5190 0.6394
vn 0.7226 -0.0956 0.6846
vn 0.7221 -0.0040 0.6918
vn 0.7211 0.0834 0.6878
vn 0.5620 -0.5743 0.5952
vn 0.9400 -0.2369 0.2455
vn 0.9136 -0.2297 -0.3355
vn 0.9275 0.2356 0.2902
vn 0.6922 -0.0998 0.7148
vn 0.6927 -0.0042 0.7212
vn 0.6936 0.0867 0.7151
vn 0.9287 0.2326 -0.2888
vn 0.6902 0.1060 -0.7158
vn 0.6908 -0.0033 -0.7231
vn 0.6920 -0.1060 -0.7141
vn 0.9006 0.2848 -0.3282
vn 0.9066 0.4171 0.0645
vn 0.9017 0.4272 0.0660
vn 0.8966 0.4377 0.0676
vn 0.8763 0.2850 0.3885
vn 0.8905 -0.2842 -0.3552
vn 0.8916 0.0640 -0.4483
vn 0.8839 0.0035 -0.4676
vn 0.8888 -0.0547 -0.4549
vn 0.8900 -0.2823 0.3582
vn 0.9028 -0.4300 -0.0001
vn 0.9030 -0.4297 -0.0001
vn 0.9031 -0.4294 -0.0001
vn 0.8934 -0.0699 0.4438
vn 0.8854 0.0014 0.4649
vn 0.8912 0.0686 0.4484
vn 0.8284 0.3848 -0.4072
vn 0.6417 0.7571 0.1224
vn 0.6258 0.7700 0.1245
vn 0.6091 0.7829 0.1266
vn 0.7653 0.3302 0.5526
vn 0.8009 -0.3617 -0.4772
vn 0.5326 0.1787 -0.8273
vn 0.5275 0.0050 -0.8496
vn 0.5235 -0.1582 -0.8372
vn 0.8004 -0.3600 0.4794
vn 0.6302 -0.7764 0.0000
vn 0.6307 -0.7760 0.0000
vn 0.6312 -0.7756 -0.0000
vn 0.5377 -0.1919 0.8210
vn 0.5272 0.0055 0.8497
vn 0.5310 0.1876 0.8264
# 55 vertex normals

vt 0.0622 0.4674 0.0000
vt 0.0622 0.2900 0.0000
vt 0.2470 0.2900 0.0000
vt 0.2470 0.4674 0.0000
vt 0.4318 0.2900 0.0000
vt 0.4318 0.4674 0.0000
vt 0.4318 0.6447 0.0000
vt 0.2470 0.6447 0.0000
vt 0.0622 0.6447 0.0000
vt 0.6167 0.2900 0.0000
vt 0.8015 0.2900 0.0000
vt 0.8015 0.4674 0.0000
vt 0.6167 0.4674 0.0000
vt 0.8015 0.6447 0.0000
vt 0.6167 0.6447 0.0000
vt 0.8015 0.8221 0.0000
vt 0.8015 0.9995 0.0000
vt 0.6167 0.9995 0.0000
vt 0.6167 0.8221 0.0000
vt 0.4318 0.9995 0.0000
vt 0.4318 0.8221 0.0000
vt 0.2470 0.9995 0.0000
vt 0.0622 0.9995 0.0000
vt 0.0622 0.8221 0.0000
vt 0.2470 0.8221 0.0000
vt 0.8547 0.9900 0.0000
vt 0.8547 0.8126 0.0000
vt 0.8929 0.8126 0.0000
vt 0.8929 0.9900 0.0000
vt 0.8547 0.6353 0.0000
vt 0.8929 0.6353 0.0000
vt 0.8929 0.2805 0.0000
vt 0.8929 0.4579 0.0000
vt 0.8547 0.4579 0.0000
vt 0.8547 0.2805 0.0000
vt 0.8974 0.8489 0.0000
vt 0.8974 0.6641 0.0000
vt 0.9356 0.6641 0.0000
vt 0.9356 0.8489 0.0000
vt 0.8974 0.4793 0.0000
vt 0.9356 0.4793 0.0000
vt 0.9356 0.1097 0.0000
vt 0.9356 0.2945 0.0000
vt 0.8974 0.2945 0.0000
vt 0.8974 0.1097 0.0000
vt 0.8120 0.9900 0.0000
vt 0.8120 0.8126 0.0000
vt 0.8502 0.8126 0.0000
vt 0.8502 0.9900 0.0000
vt 0.8120 0.6353 0.0000
vt 0.8502 0.6353 0.0000
vt 0.8502 0.2805 0.0000
vt 0.8502 0.4579 0.0000
vt 0.8120 0.4579 0.0000
vt 0.8120 0.2805 0.0000
vt 0.9878 0.0052 0.0000
vt 0.9878 0.1901 0.0000
vt 0.9496 0.1901 0.0000
vt 0.9496 0.0052 0.0000
vt 0.9878 0.3749 0.0000
vt 0.9496 0.3749 0.0000
vt 0.9496 0.7445 0.0000
vt 0.9496 0.5597 0.0000
vt 0.9878 0.5597 0.0000
vt 0.9878 0.7445 0.0000
vt 0.0622 0.2568 0.0000
vt 0.2544 0.2568 0.0000
vt 0.2693 0.2878 0.0000
vt 0.0919 0.2878 0.0000
vt 0.4467 0.2568 0.0000
vt 0.4467 0.2878 0.0000
vt 0.8015 0.2878 0.0000
vt 0.6241 0.2878 0.0000
vt 0.6390 0.2568 0.0000
vt 0.8312 0.2568 0.0000
vt 0.0622 0.1571 0.0000
vt 0.2625 0.1571 0.0000
vt 0.2780 0.1869 0.0000
vt 0.0932 0.1869 0.0000
vt 0.4628 0.1571 0.0000
vt 0.4628 0.1869 0.0000
vt 0.8325 0.1869 0.0000
vt 0.6477 0.1869 0.0000
vt 0.6632 0.1571 0.0000
vt 0.8635 0.1571 0.0000
vt 0.0622 0.2235 0.0000
vt 0.2544 0.2235 0.0000
vt 0.2693 0.2546 0.0000
vt 0.0919 0.2546 0.0000
vt 0.4467 0.2235 0.0000
vt 0.4467 0.2546 0.0000
vt 0.8015 0.2546 0.0000
vt 0.6241 0.2546 0.0000
vt 0.6390 0.2235 0.0000
vt 0.8312 0.2235 0.0000
vt 0.0622 0.1903 0.0000
vt 0.2625 0.1903 0.0000
vt 0.2780 0.2201 0.0000
vt 0.0932 0.2201 0.0000
vt 0.4628 0.1903 0.0000
vt 0.4628 0.2201 0.0000
vt 0.8325 0.2201 0.0000
vt 0.6477 0.2201 0.0000
vt 0.6632 0.1903 0.0000
vt 0.8635 0.1903 0.0000
vt 0.0622 0.0527 0.0000
vt 0.2693 0.0527 0.0000
vt 0.2842 0.1019 0.0000
vt 0.0920 0.1019 0.0000
vt 0.4765 0.0527 0.0000
vt 0.4765 0.1019 0.0000
vt 0.8610 0.1019 0.0000
vt 0.6687 0.1019 0.0000
vt 0.6836 0.0527 0.0000
vt 0.8907 0.0527 0.0000
vt 0.0005 0.8686 0.0000
vt 0.0005 0.6527 0.0000
vt 0.0489 0.6372 0.0000
vt 0.0489 0.8376 0.0000
vt 0.0005 0.4369 0.0000
vt 0.0489 0.4369 0.0000
vt 0.0489 0.0363 0.0000
vt 0.0489 0.2366 0.0000
vt 0.0005 0.2211 0.0000
vt 0.0005 0.0052 0.0000
vt 0.0622 0.1049 0.0000
vt 0.2693 0.1049 0.0000
vt 0.2842 0.1541 0.0000
vt 0.0920 0.1541 0.0000
vt 0.4765 0.1049 0.0000
vt 0.4765 0.1541 0.0000
vt 0.8610 0.1541 0.0000
vt 0.6687 0.1541 0.0000
vt 0.6836 0.1049 0.0000
vt 0.8907 0.1049 0.0000
vt 0.0290 0.0005 0.0000
vt 0.2448 0.0005 0.0000
vt 0.2603 0.0489 0.0000
vt 0.0600 0.0489 0.0000
vt 0.4606 0.0005 0.0000
vt 0.4606 0.0489 0.0000
vt 0.8613 0.0489 0.0000
vt 0.6610 0.0489 0.0000
vt 0.6765 0.0005 0.0000
vt 0.8923 0.0005 0.0000
# 145 texture coords

o frame_wall
g frame_wall
s 1
f 1/1/1 2/2/2 3/3/3 4/4/4 
f 3/3/3 5/5/5 6/6/4 4/4/4 
f 6/6/4 7/7/4 8/8/4 4/4/4 
f 8/8/4 9/9/1 1/1/1 4/4/4 
f 10/10/6 11/11/7 12/12/8 13/13/4 
f 12/12/8 14/14/8 15/15/4 13/13/4 
f 15/15/4 7/7/4 6/6/4 13/13/4 
f 6/6/4 5/5/5 10/10/6 13/13/4 
f 16/16/8 17/17/9 18/18/10 19/19/4 
f 18/18/10 20/20/11 21/21/4 19/19/4 
f 21/21/4 7/7/4 15/15/4 19/19/4 
f 15/15/4 14/14/8 16/16/8 19/19/4 
f 22/22/12 23/23/13 24/24/1 25/25/4 
f 24/24/1 9/9/1 8/8/4 25/25/4 
f 8/8/4 7/7/4 21/21/4 25/25/4 
f 21/21/4 20/20/11 22/22/12 25/25/4 
s off
f 26/26/14 27/27/1 24/28/1 23/29/13 
f 27/27/1 28/30/1 9/31/1 24/28/1 
f 2/32/2 1/33/1 29/34/1 30/35/15 
f 1/33/1 9/31/1 28/30/1 29/34/1 
f 31/36/16 32/37/17 18/38/10 17/39/9 
f 32/37/17 33/40/18 20/41/11 18/38/10 
f 23/42/13 22/43/12 34/44/19 26/45/14 
f 22/43/12 20/41/11 33/40/18 34/44/19 
f 35/46/20 36/47/8 12/48/8 11/49/7 
f 36/47/8 37/50/8 14/51/8 12/48/8 
f 17/52/9 16/53/8 38/54/8 31/55/16 
f 16/53/8 14/51/8 37/50/8 38/54/8 
f 30/56/15 39/57/21 3/58/3 2/59/2 
f 39/57/21 40/60/22 5/61/5 3/58/3 
f 11/62/7 10/63/6 41/64/23 35/65/20 
f 10/63/6 5/61/5 40/60/22 41/64/23 
f 42/66/24 43/67/25 27/68/1 26/69/14 
f 43/67/25 44/70/26 28/71/1 27/68/1 
f 30/72/15 29/73/1 45/74/27 46/75/28 
f 29/73/1 28/71/1 44/70/26 45/74/27 
f 47/76/29 48/77/30 32/78/17 31/79/16 
f 48/77/30 49/80/31 33/81/18 32/78/17 
f 26/82/14 34/83/19 50/84/32 42/85/24 
f 34/83/19 33/81/18 49/80/31 50/84/32 
f 51/86/33 52/87/34 36/88/8 35/89/20 
f 52/87/34 53/90/35 37/91/8 36/88/8 
f 31/92/16 38/93/8 54/94/36 47/95/29 
f 38/93/8 37/91/8 53/90/35 54/94/36 
f 46/96/28 55/97/37 39/98/21 30/99/15 
f 55/97/37 56/100/38 40/101/22 39/98/21 
f 35/102/20 41/103/23 57/104/39 51/105/33 
f 41/103/23 40/101/22 56/100/38 57/104/39 
f 58/106/40 59/107/41 43/108/25 42/109/24 
f 59/107/41 60/110/42 44/111/26 43/108/25 
f 46/112/28 45/113/27 61/114/43 62/115/44 
f 45/113/27 44/111/26 60/110/42 61/114/43 
f 63/116/45 64/117/46 48/118/30 47/119/29 
f 64/117/46 65/120/47 49/121/31 48/118/30 
f 42/122/24 50/123/32 66/124/48 58/125/40 
f 50/123/32 49/121/31 65/120/47 66/124/48 
f 67/126/49 68/127/50 52/128/34 51/129/33 
f 68/127/50 69/130/51 53/131/35 52/128/34 
f 47/132/29 54/133/36 70/134/52 63/135/45 
f 54/133/36 53/131/35 69/130/51 70/134/52 
f 62/136/44 71/137/53 55/138/37 46/139/28 
f 71/137/53 72/140/54 56/141/38 55/138/37 
f 51/142/33 57/143/39 73/144/55 67/145/49 
f 57/143/39 56/141/38 72/140/54 73/144/55 
# 64 polygons

