# 3ds Max Wavefront OBJ Exporter v0.97b - (c)2007 guruware
# File Created: 03.04.2019 14:01:39

#
# object frame_wall001
#

v  0.0105 27.8903 -17.3920
v  0.0105 27.8903 -14.7422
v  0.0329 23.9895 -14.2752
v  0.0329 23.9895 -16.8229
v  0.0568 20.0887 -14.2689
v  0.0568 20.0887 -16.7079
v  0.0568 20.0887 -19.1469
v  0.0329 23.9895 -19.3706
v  0.0105 27.8903 -20.0418
v  0.0821 16.1879 -14.7234
v  0.1089 12.2870 -15.6386
v  0.1089 12.2870 -17.8402
v  0.0821 16.1879 -17.0470
v  0.1089 12.2870 -20.0418
v  0.0821 16.1879 -19.3706
v  0.1089 12.2870 -22.2433
v  0.1089 12.2870 -24.4449
v  0.0821 16.1879 -24.0178
v  0.0821 16.1879 -21.6942
v  0.0568 20.0887 -24.0249
v  0.0568 20.0887 -21.5859
v  0.0329 23.9895 -24.4660
v  0.0105 27.8903 -25.3413
v  0.0105 27.8903 -22.6915
v  0.0329 23.9895 -21.9183
v  1.1738 27.8903 -25.3413
v  1.1738 27.8903 -22.6915
v  1.1738 27.8903 -20.0418
v  1.1738 27.8903 -17.3920
v  1.1738 27.8903 -14.7422
v  1.0754 12.2870 -24.4449
v  1.1022 16.1879 -24.0178
v  1.1275 20.0887 -24.0249
v  1.1514 23.9895 -24.4660
v  1.0754 12.2870 -15.6386
v  1.0754 12.2870 -17.8402
v  1.0754 12.2870 -20.0418
v  1.0754 12.2870 -22.2433
v  1.1514 23.9895 -14.2752
v  1.1275 20.0887 -14.2689
v  1.1022 16.1879 -14.7234
v  1.1791 28.8526 -26.5393
v  1.1791 28.8526 -23.4077
v  1.1791 28.8526 -20.2761
v  1.1791 28.8526 -17.1445
v  1.1791 28.8526 -14.0129
v  1.0685 11.3248 -25.3601
v  1.0989 15.7067 -24.8375
v  1.1275 20.0887 -24.8598
v  1.1542 24.4706 -25.4271
v  1.0685 11.3248 -15.1922
v  1.0685 11.3248 -17.7341
v  1.0685 11.3248 -20.2761
v  1.0685 11.3248 -22.8181
v  1.1542 24.4706 -13.4313
v  1.1275 20.0887 -13.4339
v  1.0989 15.7067 -14.0209
v  0.0000 29.8151 -27.7803
v  0.0000 29.8151 -24.1590
v  0.0000 29.8151 -20.5378
v  0.0000 29.8151 -16.9165
v  0.0000 29.8151 -13.2952
v  0.1226 10.3623 -26.2802
v  0.0886 15.2255 -25.6538
v  0.0568 20.0887 -25.6950
v  0.0273 24.9519 -26.4038
v  0.1226 10.3623 -14.7953
v  0.1226 10.3623 -17.6665
v  0.1226 10.3623 -20.5378
v  0.1226 10.3623 -23.4090
v  0.0273 24.9519 -12.5854
v  0.0568 20.0887 -12.5988
v  0.0886 15.2255 -13.3354
# 73 vertices

vn 0.7091 -0.7051 -0.0000
vn 0.5858 -0.6056 -0.5386
vn 0.6943 -0.0395 -0.7186
vn 1.0000 0.0059 0.0000
vn 0.6940 0.0453 -0.7185
vn 1.0000 0.0063 0.0000
vn 1.0000 0.0063 -0.0000
vn 1.0000 0.0059 -0.0000
vn 0.7091 -0.7051 0.0000
vn 0.6941 0.1284 -0.7084
vn 0.5881 0.6346 -0.5014
vn 0.7047 0.7095 -0.0000
vn 1.0000 0.0067 0.0000
vn 1.0000 0.0067 -0.0000
vn 0.7047 0.7095 0.0000
vn 0.5698 0.5493 0.6113
vn 0.7199 -0.0322 0.6933
vn 0.7197 0.0444 0.6929
vn 0.7192 0.1195 0.6845
vn 0.5683 -0.5137 0.6428
vn 0.9282 -0.2363 0.2873
vn 0.7052 -0.7091 0.0000
vn 0.7052 -0.7091 -0.0000
vn 0.8891 -0.3451 -0.3007
vn 0.9183 0.2601 0.2986
vn 0.6948 -0.0430 0.7180
vn 0.6950 0.0369 0.7180
vn 0.6956 0.1153 0.7092
vn 0.8781 0.3722 -0.3007
vn 0.7096 0.7046 0.0000
vn 0.7096 0.7046 -0.0000
vn 0.7205 -0.0463 -0.6919
vn 0.7207 0.0349 -0.6923
vn 0.7207 0.1147 -0.6837
vn 0.8903 0.2783 -0.3605
vn 0.9046 0.4262 -0.0000
vn 0.9046 0.4262 0.0000
vn 0.8629 0.3641 0.3506
vn 0.8989 -0.2677 -0.3468
vn 0.9067 0.0115 -0.4215
vn 0.9050 -0.0335 -0.4240
vn 0.9047 -0.0784 -0.4188
vn 0.8672 -0.3549 0.3492
vn 0.9242 -0.3819 -0.0000
vn 0.8900 0.0190 0.4556
vn 0.8909 -0.0367 0.4527
vn 0.8878 -0.0909 0.4512
vn 0.7997 0.3669 -0.4753
vn 0.6324 0.7747 -0.0000
vn 0.6324 0.7747 0.0000
vn 0.7130 0.5392 0.4482
vn 0.8145 -0.3889 -0.4305
vn 0.6081 0.0654 -0.7912
vn 0.6140 -0.0584 -0.7872
vn 0.5996 -0.1789 -0.7800
vn 0.7331 -0.5633 0.3811
vn 0.7132 -0.7009 -0.0000
vn 0.7132 -0.7009 0.0000
vn 0.6177 0.0697 0.7833
vn 0.6141 -0.0547 0.7873
vn 0.6091 -0.1779 0.7729
# 61 vertex normals

vt 0.0622 0.4674 0.0000
vt 0.0622 0.2900 0.0000
vt 0.2470 0.2900 0.0000
vt 0.2470 0.4674 0.0000
vt 0.4318 0.2900 0.0000
vt 0.4318 0.4674 0.0000
vt 0.4318 0.6447 0.0000
vt 0.2470 0.6447 0.0000
vt 0.0622 0.6447 0.0000
vt 0.6167 0.2900 0.0000
vt 0.8015 0.2900 0.0000
vt 0.8015 0.4674 0.0000
vt 0.6167 0.4674 0.0000
vt 0.8015 0.6447 0.0000
vt 0.6167 0.6447 0.0000
vt 0.8015 0.8221 0.0000
vt 0.8015 0.9995 0.0000
vt 0.6167 0.9995 0.0000
vt 0.6167 0.8221 0.0000
vt 0.4318 0.9995 0.0000
vt 0.4318 0.8221 0.0000
vt 0.2470 0.9995 0.0000
vt 0.0622 0.9995 0.0000
vt 0.0622 0.8221 0.0000
vt 0.2470 0.8221 0.0000
vt 0.8547 0.9900 0.0000
vt 0.8547 0.8126 0.0000
vt 0.8929 0.8126 0.0000
vt 0.8929 0.9900 0.0000
vt 0.8547 0.6353 0.0000
vt 0.8929 0.6353 0.0000
vt 0.8929 0.2805 0.0000
vt 0.8929 0.4579 0.0000
vt 0.8547 0.4579 0.0000
vt 0.8547 0.2805 0.0000
vt 0.8974 0.8489 0.0000
vt 0.8974 0.6641 0.0000
vt 0.9356 0.6641 0.0000
vt 0.9356 0.8489 0.0000
vt 0.8974 0.4793 0.0000
vt 0.9356 0.4793 0.0000
vt 0.9356 0.1097 0.0000
vt 0.9356 0.2945 0.0000
vt 0.8974 0.2945 0.0000
vt 0.8974 0.1097 0.0000
vt 0.8120 0.9900 0.0000
vt 0.8120 0.8126 0.0000
vt 0.8502 0.8126 0.0000
vt 0.8502 0.9900 0.0000
vt 0.8120 0.6353 0.0000
vt 0.8502 0.6353 0.0000
vt 0.8502 0.2805 0.0000
vt 0.8502 0.4579 0.0000
vt 0.8120 0.4579 0.0000
vt 0.8120 0.2805 0.0000
vt 0.9878 0.0052 0.0000
vt 0.9878 0.1901 0.0000
vt 0.9496 0.1901 0.0000
vt 0.9496 0.0052 0.0000
vt 0.9878 0.3749 0.0000
vt 0.9496 0.3749 0.0000
vt 0.9496 0.7445 0.0000
vt 0.9496 0.5597 0.0000
vt 0.9878 0.5597 0.0000
vt 0.9878 0.7445 0.0000
vt 0.0622 0.2568 0.0000
vt 0.2544 0.2568 0.0000
vt 0.2693 0.2878 0.0000
vt 0.0919 0.2878 0.0000
vt 0.4467 0.2568 0.0000
vt 0.4467 0.2878 0.0000
vt 0.8015 0.2878 0.0000
vt 0.6241 0.2878 0.0000
vt 0.6390 0.2568 0.0000
vt 0.8312 0.2568 0.0000
vt 0.0622 0.1571 0.0000
vt 0.2625 0.1571 0.0000
vt 0.2780 0.1869 0.0000
vt 0.0932 0.1869 0.0000
vt 0.4628 0.1571 0.0000
vt 0.4628 0.1869 0.0000
vt 0.8325 0.1869 0.0000
vt 0.6477 0.1869 0.0000
vt 0.6632 0.1571 0.0000
vt 0.8635 0.1571 0.0000
vt 0.0622 0.2235 0.0000
vt 0.2544 0.2235 0.0000
vt 0.2693 0.2546 0.0000
vt 0.0919 0.2546 0.0000
vt 0.4467 0.2235 0.0000
vt 0.4467 0.2546 0.0000
vt 0.8015 0.2546 0.0000
vt 0.6241 0.2546 0.0000
vt 0.6390 0.2235 0.0000
vt 0.8312 0.2235 0.0000
vt 0.0622 0.1903 0.0000
vt 0.2625 0.1903 0.0000
vt 0.2780 0.2201 0.0000
vt 0.0932 0.2201 0.0000
vt 0.4628 0.1903 0.0000
vt 0.4628 0.2201 0.0000
vt 0.8325 0.2201 0.0000
vt 0.6477 0.2201 0.0000
vt 0.6632 0.1903 0.0000
vt 0.8635 0.1903 0.0000
vt 0.0622 0.0527 0.0000
vt 0.2693 0.0527 0.0000
vt 0.2842 0.1019 0.0000
vt 0.0920 0.1019 0.0000
vt 0.4765 0.0527 0.0000
vt 0.4765 0.1019 0.0000
vt 0.8610 0.1019 0.0000
vt 0.6687 0.1019 0.0000
vt 0.6836 0.0527 0.0000
vt 0.8907 0.0527 0.0000
vt 0.0005 0.8686 0.0000
vt 0.0005 0.6527 0.0000
vt 0.0489 0.6372 0.0000
vt 0.0489 0.8376 0.0000
vt 0.0005 0.4369 0.0000
vt 0.0489 0.4369 0.0000
vt 0.0489 0.0363 0.0000
vt 0.0489 0.2366 0.0000
vt 0.0005 0.2211 0.0000
vt 0.0005 0.0052 0.0000
vt 0.0622 0.1049 0.0000
vt 0.2693 0.1049 0.0000
vt 0.2842 0.1541 0.0000
vt 0.0920 0.1541 0.0000
vt 0.4765 0.1049 0.0000
vt 0.4765 0.1541 0.0000
vt 0.8610 0.1541 0.0000
vt 0.6687 0.1541 0.0000
vt 0.6836 0.1049 0.0000
vt 0.8907 0.1049 0.0000
vt 0.0290 0.0005 0.0000
vt 0.2448 0.0005 0.0000
vt 0.2603 0.0489 0.0000
vt 0.0600 0.0489 0.0000
vt 0.4606 0.0005 0.0000
vt 0.4606 0.0489 0.0000
vt 0.8613 0.0489 0.0000
vt 0.6610 0.0489 0.0000
vt 0.6765 0.0005 0.0000
vt 0.8923 0.0005 0.0000
# 145 texture coords

o frame_wall001
g frame_wall001
s 1
f 1/1/1 2/2/2 3/3/3 4/4/4 
f 3/3/3 5/5/5 6/6/6 4/4/4 
f 6/6/6 7/7/7 8/8/8 4/4/4 
f 8/8/8 9/9/9 1/1/1 4/4/4 
f 10/10/10 11/11/11 12/12/12 13/13/13 
f 12/12/12 14/14/12 15/15/14 13/13/13 
f 15/15/14 7/7/7 6/6/6 13/13/13 
f 6/6/6 5/5/5 10/10/10 13/13/13 
f 16/16/15 17/17/16 18/18/17 19/19/14 
f 18/18/17 20/20/18 21/21/6 19/19/14 
f 21/21/6 7/7/7 15/15/14 19/19/14 
f 15/15/14 14/14/12 16/16/15 19/19/14 
f 22/22/19 23/23/20 24/24/1 25/25/4 
f 24/24/1 9/9/9 8/8/8 25/25/4 
f 8/8/8 7/7/7 21/21/6 25/25/4 
f 21/21/6 20/20/18 22/22/19 25/25/4 
s off
f 26/26/21 27/27/22 24/28/1 23/29/20 
f 27/27/22 28/30/22 9/31/9 24/28/1 
f 2/32/2 1/33/1 29/34/23 30/35/24 
f 1/33/1 9/31/9 28/30/22 29/34/23 
f 31/36/25 32/37/26 18/38/17 17/39/16 
f 32/37/26 33/40/27 20/41/18 18/38/17 
f 23/42/20 22/43/19 34/44/28 26/45/21 
f 22/43/19 20/41/18 33/40/27 34/44/28 
f 35/46/29 36/47/30 12/48/12 11/49/11 
f 36/47/30 37/50/31 14/51/12 12/48/12 
f 17/52/16 16/53/15 38/54/30 31/55/25 
f 16/53/15 14/51/12 37/50/31 38/54/30 
f 30/56/24 39/57/32 3/58/3 2/59/2 
f 39/57/32 40/60/33 5/61/5 3/58/3 
f 11/62/11 10/63/10 41/64/34 35/65/29 
f 10/63/10 5/61/5 40/60/33 41/64/34 
f 42/66/35 43/67/36 27/68/22 26/69/21 
f 43/67/36 44/70/37 28/71/22 27/68/22 
f 30/72/24 29/73/23 45/74/36 46/75/38 
f 29/73/23 28/71/22 44/70/37 45/74/36 
f 47/76/39 48/77/40 32/78/26 31/79/25 
f 48/77/40 49/80/41 33/81/27 32/78/26 
f 26/82/21 34/83/28 50/84/42 42/85/35 
f 34/83/28 33/81/27 49/80/41 50/84/42 
f 51/86/43 52/87/44 36/88/30 35/89/29 
f 52/87/44 53/90/44 37/91/31 36/88/30 
f 31/92/25 38/93/30 54/94/44 47/95/39 
f 38/93/30 37/91/31 53/90/44 54/94/44 
f 46/96/38 55/97/45 39/98/32 30/99/24 
f 55/97/45 56/100/46 40/101/33 39/98/32 
f 35/102/29 41/103/34 57/104/47 51/105/43 
f 41/103/34 40/101/33 56/100/46 57/104/47 
f 58/106/48 59/107/49 43/108/36 42/109/35 
f 59/107/49 60/110/50 44/111/37 43/108/36 
f 46/112/38 45/113/36 61/114/49 62/115/51 
f 45/113/36 44/111/37 60/110/50 61/114/49 
f 63/116/52 64/117/53 48/118/40 47/119/39 
f 64/117/53 65/120/54 49/121/41 48/118/40 
f 42/122/35 50/123/42 66/124/55 58/125/48 
f 50/123/42 49/121/41 65/120/54 66/124/55 
f 67/126/56 68/127/57 52/128/44 51/129/43 
f 68/127/57 69/130/58 53/131/44 52/128/44 
f 47/132/39 54/133/44 70/134/57 63/135/52 
f 54/133/44 53/131/44 69/130/58 70/134/57 
f 62/136/51 71/137/59 55/138/45 46/139/38 
f 71/137/59 72/140/60 56/141/46 55/138/45 
f 51/142/43 57/143/47 73/144/61 67/145/56 
f 57/143/47 56/141/46 72/140/60 73/144/61 
# 64 polygons

