# 3ds Max Wavefront OBJ Exporter v0.97b - (c)2007 guruware
# File Created: 03.04.2019 14:01:09

#
# object frame_wall002
#

v  0.0000 39.6092 23.6602
v  0.0000 39.6092 25.5714
v  0.0000 35.8805 26.8149
v  0.0000 35.8805 24.6746
v  0.0000 32.1518 27.6088
v  0.0000 32.1518 25.2025
v  0.0000 32.1518 22.7962
v  0.0000 35.8805 22.5344
v  0.0000 39.6092 21.7491
v  -0.0000 28.4230 27.9533
v  -0.0000 24.6943 27.8483
v  -0.0000 24.6943 24.7987
v  -0.0000 28.4230 25.2439
v  -0.0000 24.6943 21.7491
v  -0.0000 28.4230 22.5344
v  -0.0000 24.6943 18.6995
v  -0.0000 24.6943 15.6499
v  -0.0000 28.4230 17.1155
v  -0.0000 28.4230 19.8250
v  0.0000 32.1518 17.9835
v  0.0000 32.1518 20.3899
v  0.0000 35.8805 18.2540
v  0.0000 39.6092 17.9269
v  0.0000 39.6092 19.8380
v  0.0000 35.8805 20.3942
v  1.1843 39.6092 17.9269
v  1.1843 39.6092 19.8380
v  1.1843 39.6092 21.7491
v  1.1843 39.6092 23.6602
v  1.1843 39.6092 25.5714
v  1.1843 24.6943 15.6499
v  1.1843 28.4230 17.1155
v  1.1843 32.1518 17.9835
v  1.1843 35.8805 18.2540
v  1.1843 24.6943 27.8483
v  1.1843 24.6943 24.7987
v  1.1843 24.6943 21.7491
v  1.1843 24.6943 18.6995
v  1.1843 35.8805 26.8149
v  1.1843 32.1518 27.6088
v  1.1843 28.4230 27.9533
v  1.1843 40.5715 16.9959
v  1.1843 40.5715 19.2287
v  1.1843 40.5715 21.4615
v  1.1843 40.5715 23.6943
v  1.1843 40.5715 25.9271
v  1.1843 23.7320 13.9066
v  1.1843 27.9419 15.8500
v  1.1843 32.1518 17.0127
v  1.1843 36.3616 17.3947
v  1.1843 23.7320 29.0164
v  1.1843 23.7320 25.2389
v  1.1843 23.7320 21.4615
v  1.1843 23.7320 17.6840
v  1.1843 36.3616 27.5303
v  1.1843 32.1518 28.5796
v  1.1843 27.9419 29.0750
v  0.0000 41.5340 16.0657
v  0.0000 41.5340 18.6023
v  0.0000 41.5340 21.1389
v  0.0000 41.5340 23.6754
v  0.0000 41.5340 26.2120
v  -0.0000 22.7695 12.0453
v  0.0000 27.4607 14.5401
v  0.0000 32.1518 16.0417
v  0.0000 36.8429 16.5503
v  -0.0000 22.7695 30.2324
v  -0.0000 22.7695 25.6856
v  -0.0000 22.7695 21.1389
v  -0.0000 22.7695 16.5921
v  0.0000 36.8429 28.2134
v  0.0000 32.1518 29.5506
v  0.0000 27.4607 30.2236
# 73 vertices

vn 0.7071 -0.7071 -0.0000
vn 0.5962 -0.6513 -0.4694
vn 0.6947 -0.1890 -0.6941
vn 1.0000 -0.0000 -0.0000
vn 0.6941 -0.1083 -0.7117
vn 0.7071 -0.7071 0.0000
vn 0.6939 -0.0230 -0.7197
vn 0.5788 0.5847 -0.5684
vn 0.7071 0.7071 -0.0000
vn 0.5602 0.4665 0.6846
vn 0.7239 -0.2049 0.6588
vn 0.7251 -0.1033 0.6808
vn 0.7255 0.0052 0.6882
vn 0.5729 -0.5537 0.6044
vn 0.9146 -0.2732 0.2982
vn 0.8648 -0.4073 -0.2935
vn 0.9445 0.1850 0.2714
vn 0.6911 -0.2147 0.6902
vn 0.6899 -0.1086 0.7157
vn 0.6896 0.0055 0.7242
vn 0.9012 0.3107 -0.3021
vn 0.7071 0.7071 0.0000
vn 0.7200 -0.1823 -0.6696
vn 0.7205 -0.1043 -0.6855
vn 0.7209 -0.0222 -0.6927
vn 0.8695 0.3144 -0.3809
vn 0.9030 0.4297 -0.0000
vn 0.9030 0.4297 0.0000
vn 0.8309 0.4210 0.3638
vn 0.9183 -0.2597 -0.2988
vn 0.9231 0.1230 -0.3644
vn 0.9118 0.0710 -0.4045
vn 0.9008 0.0069 -0.4343
vn 0.8922 -0.3496 0.2859
vn 0.9030 -0.4297 -0.0000
vn 0.9030 -0.4297 0.0000
vn 0.8748 0.1418 0.4632
vn 0.8952 0.0822 0.4379
vn 0.9119 0.0269 0.4095
vn 0.7485 0.4520 -0.4852
vn 0.6307 0.7760 0.0000
vn 0.6307 0.7760 -0.0000
vn 0.6351 0.6651 0.3928
vn 0.8704 -0.2460 -0.4266
vn 0.6406 0.3216 -0.6973
vn 0.6249 0.1687 -0.7622
vn 0.5760 -0.0164 -0.8173
vn 0.7936 -0.4179 0.4421
vn 0.6307 -0.7760 -0.0000
vn 0.6307 -0.7760 0.0000
vn 0.5626 0.2808 0.7776
vn 0.6260 0.1584 0.7635
vn 0.6868 0.0421 0.7257
# 53 vertex normals

vt 0.0622 0.4674 0.0000
vt 0.0622 0.2900 0.0000
vt 0.2470 0.2900 0.0000
vt 0.2470 0.4674 0.0000
vt 0.4318 0.2900 0.0000
vt 0.4318 0.4674 0.0000
vt 0.4318 0.6447 0.0000
vt 0.2470 0.6447 0.0000
vt 0.0622 0.6447 0.0000
vt 0.6167 0.2900 0.0000
vt 0.8015 0.2900 0.0000
vt 0.8015 0.4674 0.0000
vt 0.6167 0.4674 0.0000
vt 0.8015 0.6447 0.0000
vt 0.6167 0.6447 0.0000
vt 0.8015 0.8221 0.0000
vt 0.8015 0.9995 0.0000
vt 0.6167 0.9995 0.0000
vt 0.6167 0.8221 0.0000
vt 0.4318 0.9995 0.0000
vt 0.4318 0.8221 0.0000
vt 0.2470 0.9995 0.0000
vt 0.0622 0.9995 0.0000
vt 0.0622 0.8221 0.0000
vt 0.2470 0.8221 0.0000
vt 0.8547 0.9900 0.0000
vt 0.8547 0.8126 0.0000
vt 0.8929 0.8126 0.0000
vt 0.8929 0.9900 0.0000
vt 0.8547 0.6353 0.0000
vt 0.8929 0.6353 0.0000
vt 0.8929 0.2805 0.0000
vt 0.8929 0.4579 0.0000
vt 0.8547 0.4579 0.0000
vt 0.8547 0.2805 0.0000
vt 0.8974 0.8489 0.0000
vt 0.8974 0.6641 0.0000
vt 0.9356 0.6641 0.0000
vt 0.9356 0.8489 0.0000
vt 0.8974 0.4793 0.0000
vt 0.9356 0.4793 0.0000
vt 0.9356 0.1097 0.0000
vt 0.9356 0.2945 0.0000
vt 0.8974 0.2945 0.0000
vt 0.8974 0.1097 0.0000
vt 0.8120 0.9900 0.0000
vt 0.8120 0.8126 0.0000
vt 0.8502 0.8126 0.0000
vt 0.8502 0.9900 0.0000
vt 0.8120 0.6353 0.0000
vt 0.8502 0.6353 0.0000
vt 0.8502 0.2805 0.0000
vt 0.8502 0.4579 0.0000
vt 0.8120 0.4579 0.0000
vt 0.8120 0.2805 0.0000
vt 0.9878 0.0052 0.0000
vt 0.9878 0.1901 0.0000
vt 0.9496 0.1901 0.0000
vt 0.9496 0.0052 0.0000
vt 0.9878 0.3749 0.0000
vt 0.9496 0.3749 0.0000
vt 0.9496 0.7445 0.0000
vt 0.9496 0.5597 0.0000
vt 0.9878 0.5597 0.0000
vt 0.9878 0.7445 0.0000
vt 0.0622 0.2568 0.0000
vt 0.2544 0.2568 0.0000
vt 0.2693 0.2878 0.0000
vt 0.0919 0.2878 0.0000
vt 0.4467 0.2568 0.0000
vt 0.4467 0.2878 0.0000
vt 0.8015 0.2878 0.0000
vt 0.6241 0.2878 0.0000
vt 0.6390 0.2568 0.0000
vt 0.8312 0.2568 0.0000
vt 0.0622 0.1571 0.0000
vt 0.2625 0.1571 0.0000
vt 0.2780 0.1869 0.0000
vt 0.0932 0.1869 0.0000
vt 0.4628 0.1571 0.0000
vt 0.4628 0.1869 0.0000
vt 0.8325 0.1869 0.0000
vt 0.6477 0.1869 0.0000
vt 0.6632 0.1571 0.0000
vt 0.8635 0.1571 0.0000
vt 0.0622 0.2235 0.0000
vt 0.2544 0.2235 0.0000
vt 0.2693 0.2546 0.0000
vt 0.0919 0.2546 0.0000
vt 0.4467 0.2235 0.0000
vt 0.4467 0.2546 0.0000
vt 0.8015 0.2546 0.0000
vt 0.6241 0.2546 0.0000
vt 0.6390 0.2235 0.0000
vt 0.8312 0.2235 0.0000
vt 0.0622 0.1903 0.0000
vt 0.2625 0.1903 0.0000
vt 0.2780 0.2201 0.0000
vt 0.0932 0.2201 0.0000
vt 0.4628 0.1903 0.0000
vt 0.4628 0.2201 0.0000
vt 0.8325 0.2201 0.0000
vt 0.6477 0.2201 0.0000
vt 0.6632 0.1903 0.0000
vt 0.8635 0.1903 0.0000
vt 0.0622 0.0527 0.0000
vt 0.2693 0.0527 0.0000
vt 0.2842 0.1019 0.0000
vt 0.0920 0.1019 0.0000
vt 0.4765 0.0527 0.0000
vt 0.4765 0.1019 0.0000
vt 0.8610 0.1019 0.0000
vt 0.6687 0.1019 0.0000
vt 0.6836 0.0527 0.0000
vt 0.8907 0.0527 0.0000
vt 0.0005 0.8686 0.0000
vt 0.0005 0.6527 0.0000
vt 0.0489 0.6372 0.0000
vt 0.0489 0.8376 0.0000
vt 0.0005 0.4369 0.0000
vt 0.0489 0.4369 0.0000
vt 0.0489 0.0363 0.0000
vt 0.0489 0.2366 0.0000
vt 0.0005 0.2211 0.0000
vt 0.0005 0.0052 0.0000
vt 0.0622 0.1049 0.0000
vt 0.2693 0.1049 0.0000
vt 0.2842 0.1541 0.0000
vt 0.0920 0.1541 0.0000
vt 0.4765 0.1049 0.0000
vt 0.4765 0.1541 0.0000
vt 0.8610 0.1541 0.0000
vt 0.6687 0.1541 0.0000
vt 0.6836 0.1049 0.0000
vt 0.8907 0.1049 0.0000
vt 0.0290 0.0005 0.0000
vt 0.2448 0.0005 0.0000
vt 0.2603 0.0489 0.0000
vt 0.0600 0.0489 0.0000
vt 0.4606 0.0005 0.0000
vt 0.4606 0.0489 0.0000
vt 0.8613 0.0489 0.0000
vt 0.6610 0.0489 0.0000
vt 0.6765 0.0005 0.0000
vt 0.8923 0.0005 0.0000
# 145 texture coords

o frame_wall002
g frame_wall002
s 1
f 1/1/1 2/2/2 3/3/3 4/4/4 
f 3/3/3 5/5/5 6/6/4 4/4/4 
f 6/6/4 7/7/4 8/8/4 4/4/4 
f 8/8/4 9/9/6 1/1/1 4/4/4 
f 10/10/7 11/11/8 12/12/9 13/13/4 
f 12/12/9 14/14/9 15/15/4 13/13/4 
f 15/15/4 7/7/4 6/6/4 13/13/4 
f 6/6/4 5/5/5 10/10/7 13/13/4 
f 16/16/9 17/17/10 18/18/11 19/19/4 
f 18/18/11 20/20/12 21/21/4 19/19/4 
f 21/21/4 7/7/4 15/15/4 19/19/4 
f 15/15/4 14/14/9 16/16/9 19/19/4 
f 22/22/13 23/23/14 24/24/6 25/25/4 
f 24/24/6 9/9/6 8/8/4 25/25/4 
f 8/8/4 7/7/4 21/21/4 25/25/4 
f 21/21/4 20/20/12 22/22/13 25/25/4 
s off
f 26/26/15 27/27/6 24/28/6 23/29/14 
f 27/27/6 28/30/6 9/31/6 24/28/6 
f 2/32/2 1/33/1 29/34/1 30/35/16 
f 1/33/1 9/31/6 28/30/6 29/34/1 
f 31/36/17 32/37/18 18/38/11 17/39/10 
f 32/37/18 33/40/19 20/41/12 18/38/11 
f 23/42/14 22/43/13 34/44/20 26/45/15 
f 22/43/13 20/41/12 33/40/19 34/44/20 
f 35/46/21 36/47/22 12/48/9 11/49/8 
f 36/47/22 37/50/22 14/51/9 12/48/9 
f 17/52/10 16/53/9 38/54/9 31/55/17 
f 16/53/9 14/51/9 37/50/22 38/54/9 
f 30/56/16 39/57/23 3/58/3 2/59/2 
f 39/57/23 40/60/24 5/61/5 3/58/3 
f 11/62/8 10/63/7 41/64/25 35/65/21 
f 10/63/7 5/61/5 40/60/24 41/64/25 
f 42/66/26 43/67/27 27/68/6 26/69/15 
f 43/67/27 44/70/28 28/71/6 27/68/6 
f 30/72/16 29/73/1 45/74/28 46/75/29 
f 29/73/1 28/71/6 44/70/28 45/74/28 
f 47/76/30 48/77/31 32/78/18 31/79/17 
f 48/77/31 49/80/32 33/81/19 32/78/18 
f 26/82/15 34/83/20 50/84/33 42/85/26 
f 34/83/20 33/81/19 49/80/32 50/84/33 
f 51/86/34 52/87/35 36/88/22 35/89/21 
f 52/87/35 53/90/35 37/91/22 36/88/22 
f 31/92/17 38/93/9 54/94/36 47/95/30 
f 38/93/9 37/91/22 53/90/35 54/94/36 
f 46/96/29 55/97/37 39/98/23 30/99/16 
f 55/97/37 56/100/38 40/101/24 39/98/23 
f 35/102/21 41/103/25 57/104/39 51/105/34 
f 41/103/25 40/101/24 56/100/38 57/104/39 
f 58/106/40 59/107/41 43/108/27 42/109/26 
f 59/107/41 60/110/41 44/111/28 43/108/27 
f 46/112/29 45/113/28 61/114/42 62/115/43 
f 45/113/28 44/111/28 60/110/41 61/114/42 
f 63/116/44 64/117/45 48/118/31 47/119/30 
f 64/117/45 65/120/46 49/121/32 48/118/31 
f 42/122/26 50/123/33 66/124/47 58/125/40 
f 50/123/33 49/121/32 65/120/46 66/124/47 
f 67/126/48 68/127/49 52/128/35 51/129/34 
f 68/127/49 69/130/50 53/131/35 52/128/35 
f 47/132/30 54/133/36 70/134/50 63/135/44 
f 54/133/36 53/131/35 69/130/50 70/134/50 
f 62/136/43 71/137/51 55/138/37 46/139/29 
f 71/137/51 72/140/52 56/141/38 55/138/37 
f 51/142/34 57/143/39 73/144/53 67/145/48 
f 57/143/39 56/141/38 72/140/52 73/144/53 
# 64 polygons

