# 3ds Max Wavefront OBJ Exporter v0.97b - (c)2007 guruware
# File Created: 03.04.2019 14:26:18

#
# object rug
#

v  -25.7726 0.8860 -34.4071
v  -24.9525 0.8753 -17.1468
v  -17.0680 0.8860 -17.0680
v  -17.0452 0.8788 -33.3653
v  -26.2649 0.7629 34.9575
v  -25.4161 0.7560 17.1467
v  -26.4339 0.0184 17.1467
v  -27.3516 0.0000 36.4038
v  -26.2649 0.7629 -34.9575
v  -17.0459 0.7581 -33.8603
v  -17.0459 0.0131 -35.1773
v  -27.3516 0.0000 -36.4038
v  26.2649 0.7629 -34.9575
v  25.4161 0.7560 -17.1467
v  26.4339 0.0184 -17.1467
v  27.3516 0.0000 -36.4038
v  26.2649 0.7629 34.9575
v  17.0459 0.7581 33.8603
v  17.0459 0.0131 35.1773
v  27.3516 0.0000 36.4038
v  -25.4161 0.7560 -17.1467
v  25.7726 0.8860 -34.4071
v  17.0459 0.7581 -33.8603
v  17.0452 0.8788 -33.3653
v  25.7726 0.8860 34.4071
v  25.4161 0.7560 17.1467
v  24.9525 0.8753 17.1468
v  -25.7726 0.8860 34.4071
v  -17.0459 0.7581 33.8603
v  -17.0452 0.8788 33.3653
v  -24.9525 0.8753 17.1468
v  -17.0680 0.8860 17.0680
v  -26.4339 0.0184 -17.1467
v  26.4339 0.0184 17.1467
v  24.9525 0.8753 -17.1468
v  17.0680 0.8860 -17.0680
v  17.0459 0.0131 -35.1773
v  -17.0459 0.0131 35.1773
v  17.0452 0.8788 33.3653
v  17.0680 0.8860 17.0680
# 40 vertices

vn -0.0899 0.9919 -0.0901
vn -0.1245 0.9922 0.0032
vn -0.0007 1.0000 -0.0002
vn 0.0070 0.9933 -0.1150
vn -0.2633 0.9396 0.2187
vn -0.4232 0.9060 -0.0102
vn -0.5868 0.8096 -0.0138
vn -0.2574 0.9210 0.2924
vn -0.2633 0.9396 -0.2187
vn 0.0216 0.9313 -0.3635
vn 0.0296 0.8700 -0.4922
vn -0.2574 0.9210 -0.2924
vn 0.2633 0.9396 -0.2187
vn 0.4232 0.9060 0.0102
vn 0.5868 0.8096 0.0138
vn 0.2574 0.9210 -0.2924
vn 0.2633 0.9396 0.2187
vn -0.0216 0.9313 0.3635
vn -0.0296 0.8700 0.4922
vn 0.2574 0.9210 0.2924
vn -0.4232 0.9060 0.0102
vn 0.0899 0.9919 -0.0901
vn -0.0216 0.9313 -0.3635
vn -0.0070 0.9933 -0.1150
vn 0.0899 0.9919 0.0901
vn 0.4232 0.9060 -0.0102
vn 0.1245 0.9922 -0.0032
vn -0.0899 0.9919 0.0901
vn 0.0216 0.9313 0.3635
vn 0.0070 0.9933 0.1150
vn -0.1245 0.9922 -0.0032
vn -0.0007 1.0000 0.0002
vn -0.5868 0.8096 0.0138
vn 0.5868 0.8096 -0.0138
vn 0.1245 0.9922 0.0032
vn 0.0007 1.0000 -0.0002
vn -0.0296 0.8700 -0.4922
vn 0.0296 0.8700 0.4922
vn -0.0070 0.9933 0.1150
vn 0.0007 1.0000 0.0002
# 40 vertex normals

vt 0.0442 0.9514 0.0000
vt 0.0525 0.7205 0.0000
vt 0.1579 0.7206 0.0000
vt 0.1617 0.9419 0.0000
vt 0.0376 0.0417 0.0000
vt 0.0452 0.2800 0.0000
vt 0.0285 0.2799 0.0000
vt 0.0200 0.0203 0.0000
vt 0.0376 0.9586 0.0000
vt 0.1615 0.9491 0.0000
vt 0.1612 0.9695 0.0000
vt 0.0200 0.9800 0.0000
vt 0.7296 0.9583 0.0000
vt 0.7220 0.7200 0.0000
vt 0.7387 0.7201 0.0000
vt 0.7471 0.9797 0.0000
vt 0.7296 0.0414 0.0000
vt 0.6056 0.0509 0.0000
vt 0.6059 0.0305 0.0000
vt 0.7471 0.0200 0.0000
vt 0.0455 0.7205 0.0000
vt 0.7229 0.9511 0.0000
vt 0.6054 0.9487 0.0000
vt 0.6053 0.9415 0.0000
vt 0.7229 0.0486 0.0000
vt 0.7216 0.2795 0.0000
vt 0.7147 0.2795 0.0000
vt 0.0442 0.0489 0.0000
vt 0.1617 0.0513 0.0000
vt 0.1619 0.0585 0.0000
vt 0.0521 0.2800 0.0000
vt 0.1574 0.2805 0.0000
vt 0.0288 0.7206 0.0000
vt 0.7384 0.2794 0.0000
vt 0.7150 0.7200 0.0000
vt 0.6097 0.7195 0.0000
vt 0.6058 0.9691 0.0000
vt 0.1614 0.0309 0.0000
vt 0.6054 0.0581 0.0000
vt 0.6092 0.2794 0.0000
# 40 texture coords

o rug
g rug
s 1
f 1/1/1 2/2/2 3/3/3 4/4/4 
f 5/5/5 6/6/6 7/7/7 8/8/8 
f 9/9/9 10/10/10 11/11/11 12/12/12 
f 13/13/13 14/14/14 15/15/15 16/16/16 
f 17/17/17 18/18/18 19/19/19 20/20/20 
f 1/1/1 9/9/9 21/21/21 2/2/2 
f 22/22/22 13/13/13 23/23/23 24/24/24 
f 25/25/25 17/17/17 26/26/26 27/27/27 
f 28/28/28 5/5/5 29/29/29 30/30/30 
f 31/31/31 28/28/28 30/30/30 32/32/32 
f 21/21/21 9/9/9 12/12/12 33/33/33 
f 26/26/26 17/17/17 20/20/20 34/34/34 
f 6/6/6 5/5/5 28/28/28 31/31/31 
f 14/14/14 13/13/13 22/22/22 35/35/35 
f 36/36/36 35/35/35 22/22/22 24/24/24 
f 23/23/23 13/13/13 16/16/16 37/37/37 
f 29/29/29 5/5/5 8/8/8 38/38/38 
f 10/10/10 9/9/9 1/1/1 4/4/4 
f 18/18/18 17/17/17 25/25/25 39/39/39 
f 39/39/39 25/25/25 27/27/27 40/40/40 
f 32/32/32 40/40/40 36/36/36 3/3/3 
f 2/2/2 31/31/31 32/32/32 3/3/3 
f 6/6/6 21/21/21 33/33/33 7/7/7 
f 14/14/14 26/26/26 34/34/34 15/15/15 
f 21/21/21 6/6/6 31/31/31 2/2/2 
f 26/26/26 14/14/14 35/35/35 27/27/27 
f 36/36/36 40/40/40 27/27/27 35/35/35 
f 3/3/3 36/36/36 24/24/24 4/4/4 
f 10/10/10 23/23/23 37/37/37 11/11/11 
f 18/18/18 29/29/29 38/38/38 19/19/19 
f 23/23/23 10/10/10 4/4/4 24/24/24 
f 29/29/29 18/18/18 39/39/39 30/30/30 
f 30/30/30 39/39/39 40/40/40 32/32/32 
# 33 polygons

