# 3ds Max Wavefront OBJ Exporter v0.97b - (c)2007 guruware
# File Created: 28.03.2019 12:57:33

#
# object Box002
#

v  -3.9550 42.9556 2.3973
v  -1.8776 43.5465 3.1238
v  -2.3080 45.0675 0.9591
v  -4.6171 43.8270 0.3987
v  0.8620 43.5465 3.1238
v  2.9394 42.9556 2.3973
v  3.6015 43.8270 0.3987
v  1.2924 45.0675 0.9591
v  -2.3080 45.4362 -2.6224
v  -4.6171 44.1075 -2.3265
v  1.2924 45.4362 -2.6224
v  3.6015 44.1075 -2.3265
v  -1.8776 44.3881 -5.0516
v  -3.9550 43.6616 -4.4608
v  2.9394 43.6616 -4.4608
v  0.8620 44.3881 -5.0516
v  -4.7297 39.4472 2.8150
v  -2.3959 39.2995 4.2498
v  1.3803 39.2995 4.2498
v  3.7141 39.4472 2.8150
v  5.1565 39.6862 0.4934
v  5.1565 40.0729 -3.2629
v  3.7141 40.3119 -5.5845
v  1.3803 40.4596 -7.0193
v  -2.3959 40.4596 -7.0193
v  -4.7297 40.3119 -5.5845
v  -6.1721 40.0729 -3.2629
v  -6.1721 39.6862 0.4934
v  -1.1659 44.0275 2.4391
v  -1.3241 44.5864 1.6438
v  0.1503 44.0275 2.4391
v  0.3085 44.5864 1.6438
v  0.3085 45.1047 -3.3908
v  -1.3241 45.1047 -3.3908
v  0.1503 44.7196 -4.2833
v  -1.1659 44.7196 -4.2833
v  -0.5078 56.7680 10.7974
v  -0.5078 58.8957 -9.8706
# 38 vertices

vn -0.6050 0.4529 0.6548
vn -0.1838 0.5608 0.8073
vn -0.2651 0.8950 0.3587
vn -0.7456 0.6184 0.2485
vn 0.1838 0.5608 0.8073
vn 0.6050 0.4529 0.6548
vn 0.7456 0.6184 0.2485
vn 0.2651 0.8950 0.3587
vn -0.2651 0.9493 -0.1688
vn -0.7456 0.6560 -0.1173
vn 0.2651 0.9493 -0.1688
vn 0.7456 0.6560 -0.1173
vn -0.1838 0.7135 -0.6761
vn -0.6050 0.5768 -0.5488
vn 0.6050 0.5768 -0.5488
vn 0.1838 0.7135 -0.6761
vn -0.6739 0.2323 0.7014
vn -0.2562 0.2768 0.9261
vn 0.2562 0.2768 0.9261
vn 0.6739 0.2323 0.7014
vn 0.8929 0.3420 0.2928
vn 0.8929 0.3945 -0.2170
vn 0.6739 0.3703 -0.6393
vn 0.2562 0.4597 -0.8503
vn -0.2562 0.4597 -0.8503
vn -0.6739 0.3703 -0.6393
vn -0.8929 0.3945 -0.2170
vn -0.8929 0.3420 0.2928
vn -0.2917 0.5364 0.7920
vn -0.2810 0.8970 0.3411
vn 0.2917 0.5364 0.7920
vn 0.2810 0.8970 0.3411
vn 0.2810 0.9477 -0.1512
vn -0.2810 0.9477 -0.1512
vn 0.2917 0.6865 -0.6661
vn -0.2917 0.6865 -0.6661
vn 0.0000 0.8176 0.5759
vn 0.0000 0.9177 -0.3972
# 38 vertex normals

vt 0.6381 0.3052 0.0000
vt 0.6563 0.3034 0.0000
vt 0.6541 0.3215 0.0000
vt 0.6362 0.3234 0.0000
vt 0.6774 0.3034 0.0000
vt 0.6956 0.3053 0.0000
vt 0.6973 0.3234 0.0000
vt 0.6795 0.3216 0.0000
vt 0.6541 0.3465 0.0000
vt 0.6362 0.3446 0.0000
vt 0.6795 0.3465 0.0000
vt 0.6973 0.3447 0.0000
vt 0.6562 0.3646 0.0000
vt 0.6380 0.3628 0.0000
vt 0.6955 0.3629 0.0000
vt 0.6772 0.3646 0.0000
vt 0.6308 0.2773 0.0000
vt 0.6517 0.2717 0.0000
vt 0.6820 0.2717 0.0000
vt 0.7029 0.2774 0.0000
vt 0.7235 0.2980 0.0000
vt 0.7291 0.3190 0.0000
vt 0.7290 0.3493 0.0000
vt 0.7233 0.3702 0.0000
vt 0.7027 0.3907 0.0000
vt 0.6818 0.3964 0.0000
vt 0.6515 0.3963 0.0000
vt 0.6306 0.3906 0.0000
vt 0.6101 0.3700 0.0000
vt 0.6045 0.3491 0.0000
vt 0.6045 0.3188 0.0000
vt 0.6102 0.2979 0.0000
vt 0.6619 0.3091 0.0000
vt 0.6608 0.3158 0.0000
vt 0.6717 0.3091 0.0000
vt 0.6728 0.3158 0.0000
vt 0.6727 0.3522 0.0000
vt 0.6608 0.3523 0.0000
vt 0.6716 0.3590 0.0000
vt 0.6618 0.3590 0.0000
vt 0.6472 0.0125 0.0000
vt 0.6545 0.0112 0.0000
vt 0.6714 0.1232 0.0000
vt 0.6641 0.0102 0.0000
vt 0.6715 0.0099 0.0000
vt 0.6355 0.0157 0.0000
vt 0.6295 0.2093 0.0000
vt 0.6178 0.2061 0.0000
vt 0.6536 0.0986 0.0000
vt 0.6537 0.2119 0.0000
vt 0.6464 0.2116 0.0000
vt 0.6367 0.2106 0.0000
# 52 texture coords

o Box002
g Box002
s 1
f 1/1/1 2/2/2 3/3/3 4/4/4 
f 5/5/5 6/6/6 7/7/7 8/8/8 
f 4/4/4 3/3/3 9/9/9 10/10/10 
f 3/3/3 8/8/8 11/11/11 9/9/9 
f 8/8/8 7/7/7 12/12/12 11/11/11 
f 10/10/10 9/9/9 13/13/13 14/14/14 
f 11/11/11 12/12/12 15/15/15 16/16/16 
f 17/17/17 18/18/18 2/2/2 1/1/1 
f 18/18/18 19/19/19 5/5/5 2/2/2 
f 19/19/19 20/20/20 6/6/6 5/5/5 
f 20/21/20 21/22/21 7/7/7 6/6/6 
f 21/22/21 22/23/22 12/12/12 7/7/7 
f 22/23/22 23/24/23 15/15/15 12/12/12 
f 23/25/23 24/26/24 16/16/16 15/15/15 
f 24/26/24 25/27/25 13/13/13 16/16/16 
f 25/27/25 26/28/26 14/14/14 13/13/13 
f 26/29/26 27/30/27 10/10/10 14/14/14 
f 27/30/27 28/31/28 4/4/4 10/10/10 
f 28/31/28 17/32/17 1/1/1 4/4/4 
s off
f 3/3/3 2/2/2 29/33/29 30/34/30 
f 2/2/2 5/5/5 31/35/31 29/33/29 
f 5/5/5 8/8/8 32/36/32 31/35/31 
f 8/8/8 3/3/3 30/34/30 32/36/32 
f 9/9/9 11/11/11 33/37/33 34/38/34 
f 11/11/11 16/16/16 35/39/35 33/37/33 
f 16/16/16 13/13/13 36/40/36 35/39/35 
f 13/13/13 9/9/9 34/38/34 36/40/36 
f 30/41/30 29/42/29 37/43/37 
f 29/42/29 31/44/31 37/43/37 
f 31/44/31 32/45/32 37/43/37 
f 32/46/32 30/41/30 37/43/37 
f 34/47/34 33/48/33 38/49/38 
f 33/50/33 35/51/35 38/49/38 
f 35/51/35 36/52/36 38/49/38 
f 36/52/36 34/47/34 38/49/38 
# 27 polygons - 8 triangles

#
# object Box001
#

v  -16.5182 0.0000 15.7314
v  -8.4450 0.0000 15.7314
v  -8.4450 0.0000 25.9317
v  -16.5182 0.0000 25.9317
v  7.7014 0.0000 15.7314
v  7.7014 0.0000 25.9317
v  15.7746 0.0000 25.9317
v  15.7746 0.0000 15.7314
v  18.8548 37.9714 17.1505
v  9.3814 37.9714 17.1505
v  9.3814 36.8266 28.2709
v  18.8548 36.8266 28.2709
v  -9.5655 37.9714 17.1505
v  -9.5655 36.8266 28.2709
v  -19.0389 37.9714 17.1505
v  -19.0389 36.8266 28.2709
v  -8.5625 9.7523 25.8909
v  -16.7826 9.7523 25.8909
v  7.8776 9.7523 25.8909
v  -9.1228 28.1656 27.0605
v  -18.0429 28.1656 27.0605
v  8.7176 28.1656 27.0605
v  16.0976 9.7523 25.8909
v  17.6378 28.1656 27.0605
v  16.0977 9.8239 15.7067
v  17.6378 28.8096 16.4162
v  15.7746 0.0000 -25.9317
v  7.7014 0.0000 -25.9317
v  7.8776 10.1161 -25.8909
v  16.0976 10.1161 -25.8909
v  -8.4450 0.0000 -25.9317
v  -8.5625 10.1161 -25.8909
v  8.7176 31.4398 -27.0605
v  17.6378 31.4398 -27.0605
v  -9.1228 31.4398 -27.0605
v  -16.5182 0.0000 -25.9317
v  -16.7826 10.1161 -25.8909
v  -18.0429 31.4398 -27.0605
v  -19.0389 42.6474 -28.2708
v  -9.5655 42.6474 -28.2708
v  9.3814 42.6474 -28.2708
v  18.8548 42.6474 -28.2708
v  -19.7940 11.3936 -14.5853
v  -20.3376 11.4908 -10.3590
v  -21.1717 15.4713 -10.1799
v  -20.4762 15.3307 -14.5039
v  -20.5570 11.3936 0.1633
v  -21.4201 15.3036 -0.0639
v  -21.8575 24.8646 -10.3900
v  -21.1770 25.2637 -14.8169
v  -22.1060 24.4371 -0.0653
v  -20.1803 11.2224 4.3907
v  -20.9249 15.0279 4.2632
v  -21.6257 24.4570 4.3552
v  -21.4223 28.2218 4.5624
v  -21.8014 28.3326 0.1696
v  -21.5820 28.9336 -10.7577
v  -21.0360 29.3160 -15.1555
v  -16.5182 0.0000 5.3156
v  -8.4450 0.0000 5.3156
v  -16.5182 0.0000 -15.5159
v  -8.4450 0.0000 -15.5159
v  7.7014 0.0000 5.3156
v  7.7014 0.0000 -15.5159
v  15.7746 0.0000 -15.5159
v  15.7746 0.0000 5.3156
v  18.8548 39.1404 5.7951
v  9.3814 39.1404 5.7951
v  18.8548 41.4784 -16.9155
v  9.3814 41.4784 -16.9155
v  -9.5655 39.1404 5.7951
v  -9.5655 41.4784 -16.9155
v  -19.0389 41.4784 -16.9155
v  -19.0389 39.1404 5.7951
v  16.0977 9.8970 5.3073
v  16.0976 10.0431 -15.4915
v  17.6378 29.4672 5.5470
v  17.6378 30.7823 -16.1913
v  -17.4766 9.8239 15.7067
v  -18.7370 28.8096 16.4162
v  -18.7730 38.5829 -24.7154
v  -18.9953 37.7376 -15.0934
v  -19.1175 36.0472 4.1506
v  -19.0174 35.2020 13.7727
v  -16.6742 3.3433 -22.9850
v  -17.1057 11.8171 -23.0323
v  -18.1551 29.4369 -23.8975
v  -16.9186 3.3151 12.8084
v  -17.0186 3.3221 3.8600
v  -16.8964 3.3362 -14.0367
v  -18.8139 27.4176 13.3169
v  -17.7644 11.4741 12.8347
v  -17.2133 38.5829 -24.7154
v  -17.4174 37.7377 -15.0934
v  -17.5296 36.0472 4.1506
v  -17.4377 35.2020 13.7726
v  -15.3096 3.3433 -22.9850
v  -15.7028 11.8171 -23.0323
v  -16.6546 29.4369 -23.8975
v  -15.5340 3.3151 12.8084
v  -15.6258 3.3221 3.8600
v  -15.5137 3.3362 -14.0367
v  -17.2594 27.4176 13.3169
v  -16.3075 11.4741 12.8347
v  -17.1628 36.9959 -23.3325
v  -17.4082 36.2619 -14.3855
v  -17.5498 34.7939 3.5086
v  -17.4459 34.0599 12.4556
v  -15.4121 4.6889 -21.8212
v  -15.8255 12.4957 -21.8895
v  -16.7008 28.6492 -22.6452
v  -15.6952 4.6372 11.6488
v  -15.7991 4.6502 3.2813
v  -15.6575 4.6760 -13.4537
v  -17.2849 26.8484 12.0887
v  -16.4095 12.1370 11.6853
v  -18.9073 33.7627 2.7200
v  -18.8067 32.5709 10.3314
v  -18.7406 35.0201 -13.5442
v  -20.1401 32.5237 1.8767
v  -20.0130 31.3712 8.6807
v  -19.9518 33.5666 -12.6410
v  -18.4547 34.9197 -21.1265
v  -19.6211 33.3107 -19.4148
v  -20.9169 31.6857 -11.6102
v  -20.5070 31.4785 -17.4631
v  -21.1196 30.8726 0.9201
v  -20.9147 29.9566 6.7955
v  -18.0297 27.8718 -21.3324
v  -17.1609 13.1662 -20.6808
v  -19.2663 27.0347 -19.7894
v  -18.4297 13.8863 -19.2456
v  -16.7696 6.4527 -19.9054
v  -18.0004 7.8457 -18.4012
v  -19.5409 14.7057 -17.3565
v  -19.0294 9.4579 -16.6660
v  -20.3076 26.0746 -17.7823
v  -16.9766 5.7941 -12.7269
v  -17.1433 5.7579 2.5559
v  -18.2359 7.1212 -11.9455
v  -18.4242 7.0722 1.7734
v  -17.1216 6.3663 9.7342
v  -18.3923 7.7312 8.2274
v  -19.5544 8.7998 0.8760
v  -19.4371 9.3137 6.4853
v  -19.3517 8.8657 -11.0538
v  -17.7597 12.7969 10.4693
v  -18.6286 26.2814 10.7992
v  -19.0243 13.5136 9.0254
v  -19.8609 25.6681 9.2804
v  -20.8627 24.9652 7.3001
v  -20.0960 14.3435 7.1253
# 152 vertices

vn -0.6696 -0.7427 0.0040
vn 0.0000 -1.0000 -0.0000
vn 0.0000 -0.7056 0.7086
vn -0.5686 -0.5833 0.5801
vn 0.5666 -0.5848 0.5804
vn 0.6954 -0.7186 -0.0000
vn 0.7521 0.6556 0.0675
vn 0.0000 0.9947 0.1024
vn 0.0000 0.6168 0.7871
vn 0.6171 0.4683 0.6324
vn -0.0000 0.9947 0.1024
vn -0.0000 0.6168 0.7871
vn -0.7163 0.6936 0.0761
vn -0.6098 0.4751 0.6344
vn 0.0000 -0.0296 0.9996
vn -0.6841 -0.0551 0.7273
vn 0.0000 -0.1010 0.9949
vn -0.6825 -0.1372 0.7179
vn 0.7074 -0.0633 0.7040
vn 0.7033 -0.1516 0.6946
vn 0.9984 -0.0569 -0.0004
vn 0.9944 -0.1059 -0.0064
vn 0.5670 -0.5845 -0.5803
vn 0.0000 -0.7057 -0.7085
vn -0.0000 -0.0254 -0.9997
vn 0.7077 -0.0557 -0.7044
vn -0.0000 -0.7057 -0.7085
vn -0.0000 -0.0811 -0.9967
vn 0.7014 -0.1227 -0.7021
vn -0.5647 -0.5852 -0.5820
vn -0.6763 -0.0437 -0.7353
vn -0.6717 -0.1149 -0.7319
vn -0.5892 0.5617 -0.5808
vn -0.0000 0.7053 -0.7089
vn 0.0000 0.7053 -0.7089
vn 0.5979 0.5551 -0.5783
vn -0.9683 -0.1989 -0.1510
vn -0.9609 -0.2686 -0.0671
vn -0.9867 -0.1365 -0.0885
vn -0.9686 -0.1168 -0.2196
vn -0.9583 -0.2848 0.0230
vn -0.9890 -0.1432 0.0374
vn -0.9961 -0.0082 -0.0873
vn -0.9746 -0.0318 -0.2217
vn -0.9992 -0.0008 0.0407
vn -0.9672 -0.2270 0.1137
vn -0.9762 -0.1266 0.1763
vn -0.9834 -0.0184 0.1803
vn -0.9875 0.0952 0.1257
vn -0.9861 0.1620 0.0359
vn -0.9883 0.1408 -0.0584
vn -0.9867 0.0601 -0.1512
vn -0.6523 -0.7579 0.0000
vn -0.6661 -0.7459 0.0000
vn 0.6956 -0.7184 -0.0000
vn 0.6955 -0.7185 -0.0000
vn 0.7501 0.6579 0.0677
vn 0.7465 0.6619 0.0681
vn -0.7115 0.6990 0.0720
vn -0.6985 0.7119 0.0733
vn 0.9985 -0.0556 -0.0004
vn 0.9986 -0.0531 -0.0004
vn 0.9948 -0.1015 -0.0061
vn 0.9956 -0.0939 -0.0057
vn -0.9947 -0.0850 0.0583
vn -0.9973 -0.0502 0.0538
vn -0.9083 -0.3437 0.2383
vn -0.7021 -0.7086 -0.0706
vn -0.7175 -0.6939 -0.0610
vn -0.8996 -0.3058 -0.3119
vn -0.9112 0.2762 0.3057
vn -0.7274 -0.0223 0.6859
vn -0.7286 0.0033 0.6849
vn -0.9243 0.2141 -0.3160
vn -0.7598 0.6501 0.0004
vn -0.7457 0.6662 -0.0095
vn -0.7251 -0.0065 -0.6886
vn -0.7252 -0.0452 -0.6871
vn -0.5583 -0.5935 0.5797
vn -0.6996 -0.7107 -0.0737
vn -0.7103 -0.7014 -0.0590
vn -0.5785 -0.5368 -0.6141
vn -0.6014 0.5637 0.5663
vn -0.7393 -0.0179 0.6731
vn -0.7395 0.0020 0.6731
vn -0.6135 0.5500 -0.5667
vn -0.7491 0.6624 0.0036
vn -0.7396 0.6729 -0.0118
vn -0.7197 0.0048 -0.6943
vn -0.7185 -0.0484 -0.6939
vn -0.9951 0.0073 -0.0989
vn -0.9149 0.4033 0.0176
vn -0.8982 0.4380 0.0371
vn -0.9915 0.0634 0.1136
vn -0.9864 -0.1269 -0.1040
vn -0.8996 -0.0587 -0.4328
vn -0.8958 -0.0788 -0.4374
vn -0.9797 -0.1761 0.0960
vn -0.8744 -0.4852 0.0004
vn -0.8861 -0.4633 -0.0170
vn -0.9045 -0.0560 0.4229
vn -0.9045 -0.0744 0.4199
vn -0.6851 0.7235 0.0850
vn -0.8757 0.3327 0.3499
vn -0.7241 0.6896 0.0055
vn -0.8079 0.5850 0.0713
vn -0.8855 0.3213 0.3356
vn -0.8364 0.5479 -0.0145
vn -0.9129 0.2585 -0.3158
vn -0.9129 0.2592 -0.3153
vn -0.9398 0.3404 -0.0314
vn -0.9609 0.1555 -0.2291
vn -0.9266 0.3733 0.0460
vn -0.9523 0.2070 0.2243
vn -0.7273 -0.0491 -0.6846
vn -0.7321 -0.0962 -0.6744
vn -0.8251 -0.0457 -0.5631
vn -0.8258 -0.1043 -0.5542
vn -0.8770 -0.3609 -0.3172
vn -0.8764 -0.3633 -0.3161
vn -0.9175 -0.1053 -0.3836
vn -0.9325 -0.2787 -0.2296
vn -0.9199 -0.0463 -0.3894
vn -0.6999 -0.7127 -0.0467
vn -0.6844 -0.7286 0.0267
vn -0.7988 -0.5993 -0.0531
vn -0.7853 -0.6185 0.0256
vn -0.8633 -0.4018 0.3053
vn -0.8664 -0.4004 0.2985
vn -0.8912 -0.4532 0.0181
vn -0.9279 -0.3133 0.2022
vn -0.8997 -0.4331 -0.0541
vn -0.7342 -0.1057 0.6706
vn -0.7315 -0.0173 0.6816
vn -0.8333 -0.1151 0.5406
vn -0.8345 -0.0178 0.5507
vn -0.9319 -0.0264 0.3618
vn -0.9276 -0.1157 0.3551
# 138 vertex normals

vt 0.9990 0.0824 0.0000
vt 0.9381 0.0824 0.0000
vt 0.9381 0.0054 0.0000
vt 0.9990 0.0054 0.0000
vt 0.8163 0.0824 0.0000
vt 0.8163 0.0054 0.0000
vt 0.7553 0.0054 0.0000
vt 0.7553 0.0824 0.0000
vt 0.0187 0.3669 0.0000
vt 0.0904 0.3669 0.0000
vt 0.0904 0.4510 0.0000
vt 0.0187 0.4510 0.0000
vt 0.2338 0.3669 0.0000
vt 0.2338 0.4510 0.0000
vt 0.3055 0.3669 0.0000
vt 0.3055 0.4510 0.0000
vt 0.6899 0.7275 0.0000
vt 0.6289 0.7275 0.0000
vt 0.6298 0.6538 0.0000
vt 0.6919 0.6538 0.0000
vt 0.5068 0.7275 0.0000
vt 0.5055 0.6538 0.0000
vt 0.6340 0.5146 0.0000
vt 0.7014 0.5146 0.0000
vt 0.4992 0.5146 0.0000
vt 0.4458 0.7275 0.0000
vt 0.4434 0.6538 0.0000
vt 0.4317 0.5146 0.0000
vt 0.4225 0.4492 0.0000
vt 0.4941 0.4492 0.0000
vt 0.6373 0.4492 0.0000
vt 0.7089 0.4492 0.0000
vt 0.3116 0.3425 0.0000
vt 0.3859 0.3423 0.0000
vt 0.3853 0.4192 0.0000
vt 0.3116 0.4196 0.0000
vt 0.5294 0.3476 0.0000
vt 0.5245 0.4281 0.0000
vt 0.5900 0.4372 0.0000
vt 0.5986 0.3532 0.0000
vt 0.9740 0.7225 0.0000
vt 0.9130 0.7225 0.0000
vt 0.9143 0.6461 0.0000
vt 0.9764 0.6461 0.0000
vt 0.7910 0.7225 0.0000
vt 0.7901 0.6461 0.0000
vt 0.9207 0.4850 0.0000
vt 0.9881 0.4850 0.0000
vt 0.7859 0.4850 0.0000
vt 0.7300 0.7225 0.0000
vt 0.7280 0.6461 0.0000
vt 0.7185 0.4850 0.0000
vt 0.7110 0.4004 0.0000
vt 0.7825 0.4004 0.0000
vt 0.9257 0.4004 0.0000
vt 0.9972 0.4004 0.0000
vt 0.9204 0.9336 0.0000
vt 0.8879 0.9328 0.0000
vt 0.8865 0.9022 0.0000
vt 0.9198 0.9033 0.0000
vt 0.8069 0.9336 0.0000
vt 0.8086 0.9035 0.0000
vt 0.8881 0.8299 0.0000
vt 0.9222 0.8268 0.0000
vt 0.8086 0.8332 0.0000
vt 0.7743 0.9349 0.0000
vt 0.7753 0.9056 0.0000
vt 0.7746 0.8330 0.0000
vt 0.7730 0.8040 0.0000
vt 0.8068 0.8032 0.0000
vt 0.8909 0.7986 0.0000
vt 0.9248 0.7956 0.0000
vt 0.9990 0.1610 0.0000
vt 0.9381 0.1610 0.0000
vt 0.9990 0.3182 0.0000
vt 0.9381 0.3182 0.0000
vt 0.8163 0.1610 0.0000
vt 0.8163 0.3182 0.0000
vt 0.9990 0.3968 0.0000
vt 0.9381 0.3968 0.0000
vt 0.8163 0.3968 0.0000
vt 0.7553 0.3968 0.0000
vt 0.7553 0.3182 0.0000
vt 0.7553 0.1610 0.0000
vt 0.0187 0.2809 0.0000
vt 0.0904 0.2809 0.0000
vt 0.0187 0.1091 0.0000
vt 0.0904 0.1091 0.0000
vt 0.2338 0.2809 0.0000
vt 0.2338 0.1091 0.0000
vt 0.0187 0.0232 0.0000
vt 0.0904 0.0232 0.0000
vt 0.2338 0.0232 0.0000
vt 0.3055 0.0232 0.0000
vt 0.3055 0.1091 0.0000
vt 0.3055 0.2809 0.0000
vt 0.3116 0.2637 0.0000
vt 0.3864 0.2637 0.0000
vt 0.3116 0.1063 0.0000
vt 0.3875 0.1065 0.0000
vt 0.5343 0.2655 0.0000
vt 0.5443 0.1012 0.0000
vt 0.3116 0.0276 0.0000
vt 0.3881 0.0279 0.0000
vt 0.5492 0.0190 0.0000
vt 0.6340 0.0099 0.0000
vt 0.6251 0.0957 0.0000
vt 0.6075 0.2674 0.0000
vt 0.4195 0.4536 0.0000
vt 0.4192 0.5273 0.0000
vt 0.3422 0.5278 0.0000
vt 0.3424 0.4536 0.0000
vt 0.4280 0.6665 0.0000
vt 0.3476 0.6713 0.0000
vt 0.3531 0.7406 0.0000
vt 0.4372 0.7319 0.0000
vt 0.0367 0.7452 0.0000
vt 0.1095 0.7388 0.0000
vt 0.0957 0.7671 0.0000
vt 0.0099 0.7759 0.0000
vt 0.2549 0.7260 0.0000
vt 0.2673 0.7494 0.0000
vt 0.3276 0.7196 0.0000
vt 0.0498 0.4789 0.0000
vt 0.0495 0.5429 0.0000
vt 0.0279 0.5301 0.0000
vt 0.0276 0.4536 0.0000
vt 0.0429 0.6761 0.0000
vt 0.0190 0.6912 0.0000
vt 0.3203 0.4787 0.0000
vt 0.2527 0.4787 0.0000
vt 0.2637 0.4536 0.0000
vt 0.1174 0.4788 0.0000
vt 0.1063 0.4536 0.0000
vt 0.3241 0.6608 0.0000
vt 0.3205 0.5403 0.0000
vt 0.0054 0.0010 0.0000
vt 0.0784 0.0010 0.0000
vt 0.0784 0.0128 0.0000
vt 0.0054 0.0128 0.0000
vt 0.1879 0.0010 0.0000
vt 0.1879 0.0128 0.0000
vt 0.2974 0.0010 0.0000
vt 0.2974 0.0128 0.0000
vt 0.0129 0.2896 0.0000
vt 0.0129 0.3563 0.0000
vt 0.0010 0.3563 0.0000
vt 0.0010 0.2896 0.0000
vt 0.0129 0.4563 0.0000
vt 0.0010 0.4563 0.0000
vt 0.0129 0.5482 0.0000
vt 0.0010 0.5482 0.0000
vt 0.0129 0.0187 0.0000
vt 0.0129 0.0844 0.0000
vt 0.0010 0.0844 0.0000
vt 0.0010 0.0187 0.0000
vt 0.0129 0.1870 0.0000
vt 0.0010 0.1870 0.0000
vt 0.3563 0.0010 0.0000
vt 0.3563 0.0128 0.0000
vt 0.4461 0.0010 0.0000
vt 0.4461 0.0128 0.0000
vt 0.5373 0.0010 0.0000
vt 0.5373 0.0128 0.0000
vt 0.9877 0.7365 0.0000
vt 0.9188 0.7422 0.0000
vt 0.9243 0.7308 0.0000
vt 0.9984 0.7243 0.0000
vt 0.7812 0.7534 0.0000
vt 0.7762 0.7438 0.0000
vt 0.7122 0.7591 0.0000
vt 0.7021 0.7503 0.0000
vt 0.9761 0.9852 0.0000
vt 0.9766 0.9251 0.0000
vt 0.9854 0.9303 0.0000
vt 0.9850 0.9955 0.0000
vt 0.9824 0.8007 0.0000
vt 0.9921 0.7947 0.0000
vt 0.7184 0.9856 0.0000
vt 0.7829 0.9855 0.0000
vt 0.7784 0.9957 0.0000
vt 0.7095 0.9958 0.0000
vt 0.9117 0.9853 0.0000
vt 0.9162 0.9956 0.0000
vt 0.7151 0.8146 0.0000
vt 0.7056 0.8102 0.0000
vt 0.7182 0.9279 0.0000
vt 0.7093 0.9330 0.0000
vt 0.7876 0.7624 0.0000
vt 0.7286 0.7706 0.0000
vt 0.9127 0.7523 0.0000
vt 0.7937 0.7709 0.0000
vt 0.7413 0.7798 0.0000
vt 0.9054 0.7629 0.0000
vt 0.9707 0.7525 0.0000
vt 0.9576 0.7649 0.0000
vt 0.8975 0.7774 0.0000
vt 0.9425 0.7790 0.0000
vt 0.8010 0.7836 0.0000
vt 0.7558 0.7907 0.0000
vt 0.9720 0.8062 0.0000
vt 0.9671 0.9194 0.0000
vt 0.9604 0.8132 0.0000
vt 0.9563 0.9144 0.0000
vt 0.9613 0.9716 0.0000
vt 0.9498 0.9609 0.0000
vt 0.9417 0.9081 0.0000
vt 0.9364 0.9485 0.0000
vt 0.9450 0.8206 0.0000
vt 0.9060 0.9759 0.0000
vt 0.7884 0.9760 0.0000
vt 0.9001 0.9665 0.0000
vt 0.7945 0.9668 0.0000
vt 0.7332 0.9723 0.0000
vt 0.7448 0.9618 0.0000
vt 0.8014 0.9535 0.0000
vt 0.7582 0.9496 0.0000
vt 0.8932 0.9530 0.0000
vt 0.7278 0.9224 0.0000
vt 0.7254 0.8185 0.0000
vt 0.7386 0.9173 0.0000
vt 0.7367 0.8237 0.0000
vt 0.7519 0.8291 0.0000
vt 0.7533 0.9109 0.0000
# 224 texture coords

o Box001
g Box001
s 2
f 39/53/39 40/54/40 41/55/41 42/56/42 
f 40/54/40 43/57/40 44/58/41 41/55/41 
f 45/59/43 44/58/41 43/57/40 46/60/44 
f 47/61/45 48/62/46 49/63/47 50/64/48 
f 48/62/46 51/65/49 52/66/50 49/63/47 
f 51/65/49 53/67/51 54/68/52 52/66/50 
s 4
f 42/69/42 41/70/41 55/71/53 56/72/54 
f 41/70/41 44/73/41 57/74/53 55/71/53 
f 56/72/54 55/71/53 58/75/55 59/76/56 
f 55/71/53 57/74/53 60/77/55 58/75/55 
f 44/73/41 45/78/43 61/79/57 57/74/53 
f 57/74/53 61/79/57 62/80/58 60/77/55 
f 50/81/48 49/82/47 60/77/55 62/80/58 
f 49/82/47 52/83/50 58/75/55 60/77/55 
f 52/83/50 54/84/52 59/76/56 58/75/55 
s 8
f 46/85/44 63/86/59 61/87/57 45/88/43 
f 63/86/59 64/89/60 62/90/58 61/87/57 
f 50/91/48 62/90/58 64/89/60 47/92/45 
s 2
f 65/93/61 66/94/62 67/95/63 68/96/64 
f 66/94/62 69/97/65 70/98/63 67/95/63 
f 68/96/64 67/95/63 71/99/66 72/100/67 
f 67/95/63 70/98/63 73/101/66 71/99/66 
f 69/97/65 74/102/68 75/103/69 70/98/63 
f 70/98/63 75/103/69 76/104/70 73/101/66 
f 77/105/71 78/106/72 73/101/66 76/104/70 
f 78/106/72 79/107/73 71/99/66 73/101/66 
f 79/107/73 80/108/74 72/100/67 71/99/66 
s 1
f 81/109/75 82/110/76 83/111/77 84/112/78 
f 82/110/76 85/113/79 86/114/80 83/111/77 
f 84/112/78 83/111/77 87/115/81 88/116/82 
f 83/111/77 86/114/80 89/117/83 87/115/81 
f 85/113/79 90/118/84 91/119/85 86/114/80 
f 86/114/80 91/119/85 92/120/86 89/117/83 
f 93/121/87 94/122/88 89/117/83 92/120/86 
f 94/122/88 95/123/89 87/115/81 89/117/83 
f 95/123/89 96/124/90 88/116/82 87/115/81 
s 4
f 39/53/39 97/125/91 98/126/40 40/54/40 
f 97/125/91 99/127/92 100/128/40 98/126/40 
f 40/54/40 98/126/40 101/129/40 43/57/40 
f 98/126/40 100/128/40 102/130/40 101/129/40 
f 99/127/92 74/131/68 69/132/65 100/128/40 
f 100/128/40 69/132/65 66/133/62 102/130/40 
f 65/134/61 103/135/93 102/130/40 66/133/62 
f 103/135/93 104/136/94 101/129/40 102/130/40 
f 104/136/94 46/60/44 43/57/40 101/129/40 
f 47/61/45 105/137/95 106/138/49 48/62/46 
f 105/137/95 107/139/96 108/140/49 106/138/49 
f 48/62/46 106/138/49 109/141/49 51/65/49 
f 106/138/49 108/140/49 110/142/49 109/141/49 
f 107/139/96 80/143/74 79/144/73 108/140/49 
f 108/140/49 79/144/73 78/145/72 110/142/49 
f 77/146/71 111/147/97 110/142/49 78/145/72 
f 111/147/97 112/148/98 109/141/49 110/142/49 
f 112/148/98 53/67/51 51/65/49 109/141/49 
s 16
f 46/85/44 104/149/94 113/150/99 63/86/59 
f 104/149/94 103/151/93 114/152/100 113/150/99 
f 63/86/59 113/150/99 115/153/101 64/89/60 
f 113/150/99 114/152/100 116/154/102 115/153/101 
f 103/151/93 65/155/61 68/156/64 114/152/100 
f 114/152/100 68/156/64 72/157/67 116/154/102 
f 80/158/74 107/159/96 116/154/102 72/157/67 
f 107/159/96 105/160/95 115/153/101 116/154/102 
f 105/160/95 47/92/45 64/89/60 115/153/101 
s 8
f 42/161/42 56/162/54 117/163/103 39/164/39 
f 56/162/54 59/165/56 118/166/104 117/163/103 
f 53/167/51 118/166/104 59/165/56 54/168/52 
s 16
f 119/169/105 120/170/106 111/171/97 77/172/71 
f 120/170/106 121/173/107 112/174/98 111/171/97 
f 121/173/107 122/175/108 53/167/51 112/174/98 
s 8
f 123/176/109 124/177/110 75/178/69 74/179/68 
f 124/177/110 125/180/111 76/181/70 75/178/69 
f 125/180/111 119/169/105 77/172/71 76/181/70 
s 16
f 126/182/112 127/183/113 97/184/91 39/164/39 
f 127/183/113 128/185/114 99/186/92 97/184/91 
f 128/185/114 123/176/109 74/179/68 99/186/92 
s 32
f 122/175/108 129/187/115 118/166/104 53/167/51 
f 129/187/115 130/188/116 117/163/103 118/166/104 
f 130/188/116 126/182/112 39/164/39 117/163/103 
s 2
f 131/189/117 132/190/118 120/191/106 119/192/105 
f 132/190/118 133/193/119 121/194/107 120/191/106 
f 133/193/119 134/195/120 122/196/108 121/194/107 
s 4
f 135/197/121 136/198/122 124/199/110 123/200/109 
f 136/198/122 137/201/123 125/202/111 124/199/110 
f 137/201/123 131/203/117 119/204/105 125/202/111 
s 2
f 138/205/124 139/206/125 127/207/113 126/208/112 
f 139/206/125 140/209/126 128/210/114 127/207/113 
f 140/209/126 135/197/121 123/200/109 128/210/114 
s 4
f 134/195/120 141/211/127 129/212/115 122/196/108 
f 141/211/127 142/213/128 130/214/116 129/212/115 
f 142/213/128 138/215/124 126/216/112 130/214/116 
s 8
f 143/217/129 144/218/130 132/219/118 131/220/117 
f 144/218/130 145/221/131 133/222/119 132/219/118 
f 145/221/131 146/223/132 134/224/120 133/222/119 
s 16
f 147/225/133 148/226/134 136/227/122 135/228/121 
f 148/226/134 149/229/135 137/230/123 136/227/122 
f 149/229/135 143/217/129 131/220/117 137/230/123 
s 8
f 150/231/136 151/232/137 139/233/125 138/234/124 
f 151/232/137 152/235/138 140/236/126 139/233/125 
f 152/235/138 147/225/133 135/228/121 140/236/126 
s 16
f 146/223/132 153/237/139 141/238/127 134/224/120 
f 153/237/139 154/239/140 142/240/128 141/238/127 
f 154/239/140 150/231/136 138/234/124 142/240/128 
s 1
f 146/223/132 145/221/131 155/241/141 156/242/142 
f 145/221/131 144/218/130 157/243/143 155/241/141 
f 156/242/142 155/241/141 158/244/144 159/245/145 
f 155/241/141 157/243/143 160/246/146 158/244/144 
f 144/218/130 143/217/129 161/247/147 157/243/143 
f 157/243/143 161/247/147 162/248/148 160/246/146 
f 96/124/90 95/123/89 163/249/149 164/250/150 
f 95/123/89 94/122/88 165/251/151 163/249/149 
f 164/250/150 163/249/149 160/246/146 162/248/148 
f 163/249/149 165/251/151 158/244/144 160/246/146 
f 94/122/88 93/121/87 166/252/152 165/251/151 
f 165/251/151 166/252/152 159/245/145 158/244/144 
f 143/217/129 149/229/135 167/253/153 161/247/147 
f 149/229/135 148/226/134 168/254/154 167/253/153 
f 161/247/147 167/253/153 169/255/155 162/248/148 
f 167/253/153 168/254/154 170/256/156 169/255/155 
f 148/226/134 147/225/133 171/257/157 168/254/154 
f 168/254/154 171/257/157 172/258/158 170/256/156 
f 81/109/75 84/112/78 173/259/159 174/260/160 
f 84/112/78 88/116/82 175/261/161 173/259/159 
f 174/260/160 173/259/159 170/256/156 172/258/158 
f 173/259/159 175/261/161 169/255/155 170/256/156 
f 88/116/82 96/124/90 164/250/150 175/261/161 
f 175/261/161 164/250/150 162/248/148 169/255/155 
f 147/225/133 152/235/138 176/262/162 171/257/157 
f 152/235/138 151/232/137 177/263/163 176/262/162 
f 171/257/157 176/262/162 178/264/164 172/258/158 
f 176/262/162 177/263/163 179/265/165 178/264/164 
f 151/232/137 150/231/136 180/266/166 177/263/163 
f 177/263/163 180/266/166 181/267/167 179/265/165 
f 90/118/84 85/113/79 182/268/168 183/269/169 
f 85/113/79 82/110/76 184/270/170 182/268/168 
f 183/269/169 182/268/168 179/265/165 181/267/167 
f 182/268/168 184/270/170 178/264/164 179/265/165 
f 82/110/76 81/109/75 174/260/160 184/270/170 
f 184/270/170 174/260/160 172/258/158 178/264/164 
f 150/231/136 154/239/140 185/271/171 180/266/166 
f 154/239/140 153/237/139 186/272/172 185/271/171 
f 180/266/166 185/271/171 187/273/173 181/267/167 
f 185/271/171 186/272/172 188/274/174 187/273/173 
f 153/237/139 146/223/132 156/242/142 186/272/172 
f 186/272/172 156/242/142 159/245/145 188/274/174 
f 93/121/87 92/120/86 189/275/175 166/252/152 
f 92/120/86 91/119/85 190/276/176 189/275/175 
f 166/252/152 189/275/175 188/274/174 159/245/145 
f 189/275/175 190/276/176 187/273/173 188/274/174 
f 91/119/85 90/118/84 183/269/169 190/276/176 
f 190/276/176 183/269/169 181/267/167 187/273/173 
# 150 polygons

