# 3ds Max Wavefront OBJ Exporter v0.97b - (c)2007 guruware
# File Created: 20.03.2019 16:13:56

#
# object corner
#

v  -30.0000 63.6313 0.0000
v  -30.0000 63.6313 10.0000
v  -30.0000 4.6424 10.0000
v  -30.0000 4.6424 0.0000
v  -20.0000 70.0000 10.0000
v  -28.1569 70.0000 10.0000
v  -28.1569 70.0000 1.8431
v  -28.1569 66.5282 10.0000
v  -28.1569 66.5282 1.8431
v  -28.2481 66.4371 10.0000
v  -28.2481 66.4371 1.7520
v  -28.6207 66.4371 10.0000
v  -28.6207 66.4371 1.3794
v  -29.0155 66.0423 10.0000
v  -29.0155 66.0423 0.9845
v  -29.0155 64.1173 10.0000
v  -29.0155 64.1173 0.9845
v  -29.5015 63.6313 10.0000
v  -29.5015 63.6313 0.4985
v  -28.6643 4.6424 10.0000
v  -28.6643 4.6424 1.3358
v  -28.6643 1.0401 10.0000
v  -28.6643 1.0401 1.3358
v  -27.9131 1.0401 10.0000
v  -27.9131 1.0401 2.0869
v  -27.9131 -0.0000 10.0000
v  -27.9131 -0.0000 2.0869
v  -26.9578 -0.0000 10.0000
v  -26.9578 -0.0000 3.0423
v  -20.0000 0.0000 10.0000
v  -20.0000 4.6424 0.0001
v  -20.0000 63.6313 0.0001
v  -20.0000 70.0000 1.8432
v  -20.0000 70.0000 10.0001
v  -20.0000 66.5282 1.8432
v  -20.0000 66.4371 1.7520
v  -20.0000 66.4371 1.3794
v  -20.0000 66.0423 0.9846
v  -20.0000 64.1173 0.9846
v  -20.0000 63.6313 0.4986
v  -20.0000 4.6424 1.3358
v  -20.0000 1.0401 1.3358
v  -20.0000 1.0401 2.0870
v  -20.0000 0.0000 2.0870
v  -20.0000 0.0000 3.0423
# 45 vertices

vn 0.5773 -0.5774 0.5774
vn 0.7071 -0.7071 0.0000
vn 0.7071 0.7071 0.0000
vn 0.5773 0.5773 0.5774
vn 0.6736 -0.3040 -0.6736
vn 0.0000 -1.0000 0.0000
vn 0.7071 -0.7071 -0.0000
vn 0.5773 -0.5773 0.5774
vn 0.9239 -0.3827 -0.0000
vn 0.5789 -0.5743 0.5789
vn 0.3827 -0.9239 0.0000
vn 0.1100 -0.9878 0.1100
vn 0.3826 -0.9239 0.0000
vn 0.3002 -0.9054 0.3002
vn 0.6507 -0.3914 0.6507
vn 0.9239 -0.3826 0.0000
vn 0.7071 0.7071 -0.0000
vn 0.3015 0.9045 0.3015
vn 0.5773 0.5774 0.5773
vn -0.0000 1.0000 -0.0000
vn -0.0000 1.0000 0.0000
vn -0.0000 0.7071 0.7071
vn -0.0000 -0.7071 0.7071
vn -0.0000 -0.3827 0.9239
vn -0.0000 -0.9239 0.3827
vn -0.0000 -0.3826 0.9239
# 26 vertex normals

vt 0.0079 0.3845 0.0000
vt 0.0079 0.2590 0.0000
vt 0.7483 0.2590 0.0000
vt 0.7483 0.3845 0.0000
vt 0.6747 0.8334 0.0000
vt 0.5453 0.8334 0.0000
vt 0.5453 0.9628 0.0000
vt 0.8739 0.4676 0.0000
vt 0.8739 0.3344 0.0000
vt 0.9305 0.3344 0.0000
vt 0.9305 0.4676 0.0000
vt 0.9320 0.3344 0.0000
vt 0.9320 0.4691 0.0000
vt 0.9381 0.3344 0.0000
vt 0.9381 0.4752 0.0000
vt 0.9446 0.3344 0.0000
vt 0.9446 0.4816 0.0000
vt 0.9760 0.3344 0.0000
vt 0.9760 0.4816 0.0000
vt 0.9839 0.3344 0.0000
vt 0.9839 0.4896 0.0000
vt 0.9920 0.3344 0.0000
vt 0.9920 0.4977 0.0000
vt 0.7640 0.4977 0.0000
vt 0.7640 0.3344 0.0000
vt 0.7858 0.3344 0.0000
vt 0.7858 0.4759 0.0000
vt 0.8446 0.3344 0.0000
vt 0.8446 0.4759 0.0000
vt 0.8569 0.3344 0.0000
vt 0.8569 0.4636 0.0000
vt 0.8739 0.4636 0.0000
vt 0.0411 0.9589 0.0000
vt 0.0411 0.8334 0.0000
vt 0.0562 0.8334 0.0000
vt 0.0562 0.9438 0.0000
vt 0.1666 0.8334 0.0000
vt 0.0079 0.0079 0.0000
vt 0.7483 0.0079 0.0000
vt 0.7483 0.1335 0.0000
vt 0.0079 0.1335 0.0000
vt 0.6747 0.9628 0.0000
vt 0.8739 0.0380 0.0000
vt 0.9305 0.0380 0.0000
vt 0.9305 0.1712 0.0000
vt 0.8739 0.1712 0.0000
vt 0.9320 0.0365 0.0000
vt 0.9320 0.1712 0.0000
vt 0.9381 0.0305 0.0000
vt 0.9381 0.1712 0.0000
vt 0.9446 0.0240 0.0000
vt 0.9446 0.1712 0.0000
vt 0.9760 0.0240 0.0000
vt 0.9760 0.1712 0.0000
vt 0.9839 0.0161 0.0000
vt 0.9839 0.1712 0.0000
vt 0.9920 0.0079 0.0000
vt 0.9920 0.1712 0.0000
vt 0.7640 0.0079 0.0000
vt 0.7858 0.0297 0.0000
vt 0.7858 0.1712 0.0000
vt 0.7640 0.1712 0.0000
vt 0.8446 0.0297 0.0000
vt 0.8446 0.1712 0.0000
vt 0.8569 0.0420 0.0000
vt 0.8569 0.1712 0.0000
vt 0.8739 0.0420 0.0000
vt 0.1666 0.9438 0.0000
vt 0.1666 0.9589 0.0000
# 69 texture coords

o corner
g corner
s 1
f 1/1/1 2/2/2 3/3/3 4/4/4 
f 5/5/5 5/5/6 6/6/7 7/7/8 
s 2
f 7/8/8 6/9/7 8/10/9 9/11/10 
s 1
f 9/11/10 8/10/9 10/12/11 11/13/12 
f 11/13/12 10/12/11 12/14/13 13/15/14 
s 2
f 13/15/14 12/14/13 14/16/9 15/17/15 
f 15/17/15 14/16/9 16/18/16 17/19/10 
s 1
f 17/19/10 16/18/16 18/20/11 19/21/12 
s 2
f 19/21/12 18/20/11 2/22/2 1/23/1 
f 4/24/4 3/25/3 20/26/17 21/27/18 
s 1
f 21/27/18 20/26/17 22/28/17 23/29/4 
s 2
f 23/29/4 22/28/17 24/30/17 25/31/18 
s 1
f 25/31/18 24/30/17 26/9/17 27/32/19 
s 2
f 27/33/19 26/34/17 28/35/20 29/36/21 
f 29/36/21 28/35/20 30/37/21 
s 4
f 1/38/1 4/39/4 31/40/22 32/41/23 
s 1
f 5/5/5 7/7/8 33/42/23 34/5/2 
s 4
f 7/43/8 9/44/10 35/45/24 33/46/23 
s 1
f 9/44/10 11/47/12 36/48/25 35/45/24 
f 11/47/12 13/49/14 37/50/25 36/48/25 
s 4
f 13/49/14 15/51/15 38/52/24 37/50/25 
f 15/51/15 17/53/10 39/54/26 38/52/24 
s 8
f 17/53/10 19/55/12 40/56/25 39/54/26 
s 2
f 19/55/12 1/57/1 32/58/23 40/56/25 
f 4/59/4 21/60/18 41/61/22 31/62/22 
s 4
f 21/60/18 23/63/4 42/64/22 41/61/22 
s 2
f 23/63/4 25/65/18 43/66/22 42/64/22 
s 4
f 25/65/18 27/67/19 44/46/22 43/66/22 
s 2
f 27/33/19 29/36/21 45/68/21 44/69/22 
f 29/36/21 30/37/21 45/68/21 
# 28 polygons - 2 triangles

