# 3ds Max Wavefront OBJ Exporter v0.97b - (c)2007 guruware
# File Created: 25.03.2019 12:19:27

#
# object door_frame
#

v  -27.4258 4.6424 -30.9379
v  -27.4258 1.0401 -30.9336
v  -27.4258 1.0401 -39.9975
v  -27.4258 4.6424 -40.0018
v  -27.4258 -0.0000 -30.9321
v  -27.4258 -0.0000 -39.9960
v  -27.4258 55.2994 -30.9406
v  -27.4258 55.2994 -40.0045
v  -15.0000 55.2994 -30.9406
v  -15.0000 55.2994 -40.0045
v  -15.0000 0.0000 -30.9321
v  -15.0000 0.0000 -39.9960
v  -2.5742 4.6424 -30.9379
v  -2.5742 4.6424 -40.0018
v  -2.5742 1.0401 -39.9975
v  -2.5742 1.0401 -30.9336
v  -2.5742 -0.0000 -39.9959
v  -2.5742 -0.0000 -30.9320
v  -2.5742 55.2994 -30.9406
v  -2.5742 55.2994 -40.0045
# 20 vertices

vn 1.0000 0.0000 0.0000
vn 1.0000 -0.0000 0.0000
vn 0.7068 0.7074 -0.0000
vn 0.7074 0.7068 -0.0000
vn 0.7071 -0.7071 -0.0000
vn 0.0000 -1.0000 -0.0000
vn 0.0000 1.0000 -0.0000
vn -1.0000 0.0000 -0.0000
vn -1.0000 -0.0000 -0.0000
vn -0.7074 0.7068 -0.0000
vn -0.7068 0.7074 -0.0000
vn -0.7071 -0.7071 -0.0000
# 12 vertex normals

vt 0.5739 0.4042 0.0000
vt 0.6142 0.4042 0.0000
vt 0.6142 0.5054 0.0000
vt 0.5739 0.5055 0.0000
vt 0.6258 0.4042 0.0000
vt 0.6258 0.5054 0.0000
vt 0.0083 0.4043 0.0000
vt 0.0083 0.5055 0.0000
vt 0.7581 0.8336 0.0000
vt 0.9769 0.8336 0.0000
vt 0.9769 0.9933 0.0000
vt 0.7581 0.9933 0.0000
vt 0.4642 0.9927 0.0000
vt 0.2404 0.9927 0.0000
vt 0.2404 0.8294 0.0000
vt 0.4642 0.8294 0.0000
vt 0.5739 0.5053 0.0000
vt 0.5739 0.4041 0.0000
vt 0.0083 0.5053 0.0000
vt 0.0083 0.4041 0.0000
vt 0.5392 0.9933 0.0000
vt 0.5392 0.8336 0.0000
vt 0.0166 0.9927 0.0000
vt 0.0166 0.8294 0.0000
# 24 texture coords

o door_frame
g door_frame
s off
f 1/1/1 2/2/2 3/3/2 4/4/1 
f 2/2/2 5/5/3 6/6/4 3/3/2 
f 7/7/5 1/1/1 4/4/1 8/8/5 
f 9/9/6 7/10/5 8/11/5 10/12/6 
f 5/13/3 11/14/7 12/15/7 6/16/4 
f 13/17/8 14/18/8 15/2/9 16/3/9 
f 16/3/9 15/2/9 17/5/10 18/6/11 
f 19/19/12 20/20/12 14/18/8 13/17/8 
f 9/9/6 10/12/6 20/21/12 19/22/12 
f 18/23/11 17/24/10 12/15/7 11/14/7 
# 10 polygons

