# 3ds Max Wavefront OBJ Exporter v0.97b - (c)2007 guruware
# File Created: 01.04.2019 12:26:46

#
# object floor_big
#

v  -30.0000 0.0100 30.0000
v  -0.0000 0.0100 30.0000
v  -0.0000 0.0100 -0.0000
v  -30.0000 0.0100 -0.0000
v  -30.0000 69.9900 30.0000
v  -30.0000 69.9900 -0.0000
v  -0.0000 69.9900 -0.0000
v  -0.0000 69.9900 30.0000
v  -0.0000 0.0000 -0.0000
v  -0.0000 0.0000 30.0000
v  -30.0000 0.0000 30.0000
v  -30.0000 0.0000 -0.0000
v  -0.0000 70.0000 -0.0000
v  -30.0000 70.0000 -0.0000
v  -30.0000 70.0000 30.0000
v  -0.0000 70.0000 30.0000
# 16 vertices

vn -0.5774 0.5774 0.5774
vn 0.5774 0.5774 0.5774
vn 0.5774 0.5774 -0.5774
vn -0.5774 0.5774 -0.5774
vn -0.5774 -0.5774 0.5774
vn -0.5774 -0.5774 -0.5774
vn 0.5774 -0.5774 -0.5774
vn 0.5774 -0.5774 0.5774
# 8 vertex normals

vt 0.0079 0.5160 0.0000
vt 0.4840 0.5160 0.0000
vt 0.4840 0.9921 0.0000
vt 0.0079 0.9921 0.0000
vt 0.5160 0.5160 0.0000
vt 0.5160 0.9921 0.0000
vt 0.9920 0.9921 0.0000
vt 0.9920 0.5160 0.0000
# 8 texture coords

o floor_big
g floor_big
s 1
f 1/1/1 2/2/2 3/3/3 4/4/4 
f 5/5/5 6/6/6 7/7/7 8/8/8 
f 9/3/7 10/2/8 11/1/5 12/4/6 
f 13/7/3 14/6/4 15/5/1 16/8/2 
s 2
f 2/2/2 1/1/1 11/1/5 10/2/8 
s 4
f 3/3/3 2/2/2 10/2/8 9/3/7 
s 2
f 4/4/4 3/3/3 9/3/7 12/4/6 
s 4
f 1/1/1 4/4/4 12/4/6 11/1/5 
s 2
f 6/6/6 5/5/5 15/5/1 14/6/4 
s 4
f 7/7/7 6/6/6 14/6/4 13/7/3 
s 2
f 8/8/8 7/7/7 13/7/3 16/8/2 
s 4
f 5/5/5 8/8/8 16/8/2 15/5/1 
# 12 polygons

