# 3ds Max Wavefront OBJ Exporter v0.97b - (c)2007 guruware
# File Created: 20.03.2019 16:13:54

#
# object floor_medium
#

v  -10.0000 0.0000 0.0000
v  -10.0000 0.0000 30.0000
v  -0.0000 0.0000 30.0000
v  -0.0000 0.0000 0.0000
v  -10.0000 70.0000 0.0000
v  -0.0000 70.0000 0.0000
v  -0.0000 70.0000 30.0000
v  -10.0000 70.0000 30.0000
# 8 vertices

vn 0.0000 1.0000 -0.0000
vn 0.0000 -1.0000 -0.0000
# 2 vertex normals

vt 0.3253 0.9921 0.0000
vt 0.3253 0.5160 0.0000
vt 0.4840 0.5160 0.0000
vt 0.4840 0.9921 0.0000
vt 0.8334 0.9921 0.0000
vt 0.9920 0.9921 0.0000
vt 0.9920 0.5160 0.0000
vt 0.8334 0.5160 0.0000
# 8 texture coords

o floor_medium
g floor_medium
s 1
f 1/1/1 2/2/1 3/3/1 4/4/1 
f 5/5/2 6/6/2 7/7/2 8/8/2 
# 2 polygons

