# 3ds Max Wavefront OBJ Exporter v0.97b - (c)2007 guruware
# File Created: 03.04.2019 13:28:53

#
# object glass
#

v  -85.4166 52.3299 0.0000
v  -66.1772 52.3299 0.0000
v  -66.1772 22.6855 0.0000
v  -85.4166 22.6855 0.0000
v  -85.4166 22.6855 1.7354
v  -66.1772 22.6855 1.7354
v  -66.1772 52.3299 1.7354
v  -85.4166 52.3299 1.7354
# 8 vertices

vn 0.0000 0.0000 -1.0000
vn -0.0000 -0.0000 1.0000
# 2 vertex normals

vt 0.0000 0.0000 1.6466
vt 1.6466 1.6480 1.6480
vt 0.0028 0.0014 1.6466
vt 1.6494 1.6480 -0.0000
vt 1.6481 1.2214 1.2214
vt 1.2228 1.2228 1.2229
vt 1.2241 1.2241 1.2229
vt 1.6481 1.6493 1.6493
# 8 texture coords

o glass
g glass
s off
f 1/1/1 2/2/1 3/3/1 4/4/1 
f 5/5/2 6/6/2 7/7/2 8/8/2 
# 2 polygons

