# 3ds Max Wavefront OBJ Exporter v0.97b - (c)2007 guruware
# File Created: 03.04.2019 13:29:15

#
# object glass_right
#

v  -140.1274 22.6855 0.0000
v  -154.9384 22.6855 0.0000
v  -154.9384 52.3299 0.0000
v  -140.1274 52.3299 0.0000
v  -154.9384 22.6855 1.7354
v  -140.1274 22.6855 1.7354
v  -140.1274 52.3299 1.7354
v  -154.9384 52.3299 1.7354
# 8 vertices

vn 0.0000 -0.0000 -1.0000
vn 0.0000 0.0000 -1.0000
vn -0.0000 -0.0000 1.0000
# 3 vertex normals

vt 0.0000 0.0000 0.0000
vt 1.0000 -0.0000 0.0000
vt 1.0000 1.0000 0.0000
vt 0.0000 1.0000 0.0000
vt 0.0000 0.0000 1.0000
vt 1.0000 0.0000 1.0000
vt 1.0000 1.0000 1.0000
vt 0.0000 1.0000 1.0000
# 8 texture coords

o glass_right
g glass_right
s 1
f 1/1/1 2/2/2 3/3/2 4/4/1 
f 5/5/3 6/6/3 7/7/3 8/8/3 
# 2 polygons

