# 3ds Max Wavefront OBJ Exporter v0.97b - (c)2007 guruware
# File Created: 20.03.2019 16:13:55

#
# object wall
#

v  -0.0000 70.0000 10.0000
v  -30.0000 70.0000 10.0000
v  -30.0000 70.0000 1.8431
v  -0.0000 70.0000 1.8431
v  -30.0000 66.5282 1.8431
v  -0.0000 66.5282 1.8431
v  -30.0000 66.4371 1.7520
v  -0.0000 66.4371 1.7520
v  -30.0000 66.4371 1.3794
v  -0.0000 66.4371 1.3794
v  -30.0000 66.0423 0.9845
v  0.0000 66.0423 0.9845
v  -30.0000 64.1173 0.9845
v  0.0000 64.1173 0.9846
v  -30.0000 63.6313 0.4985
v  0.0000 63.6313 0.4986
v  -30.0000 63.6313 0.0000
v  0.0000 63.6313 0.0000
v  -30.0000 4.6424 0.0000
v  0.0000 4.6424 0.0001
v  -30.0000 4.6424 1.3358
v  -0.0000 4.6424 1.3358
v  -30.0000 1.0401 1.3358
v  -0.0000 1.0401 1.3358
v  -30.0000 1.0401 2.0870
v  -0.0000 1.0401 2.0870
v  -30.0000 -0.0000 2.0870
v  -0.0000 -0.0000 2.0870
v  -30.0000 -0.0000 3.0423
v  -0.0000 -0.0000 3.0423
v  -30.0000 -0.0000 10.0000
v  -0.0000 -0.0000 10.0001
# 32 vertices

vn -0.0000 -1.0000 0.0000
vn -0.0000 -0.7071 0.7071
vn -0.0000 -0.3827 0.9239
vn -0.0000 -0.9239 0.3827
vn -0.0000 -0.3826 0.9239
vn -0.0000 0.7071 0.7071
vn 0.0000 1.0000 -0.0000
# 7 vertex normals

vt 0.9920 0.8334 0.0000
vt 0.5160 0.8334 0.0000
vt 0.5160 0.9628 0.0000
vt 0.9920 0.9628 0.0000
vt 0.8739 0.4977 0.0000
vt 0.8739 0.0079 0.0000
vt 0.9305 0.0079 0.0000
vt 0.9305 0.4977 0.0000
vt 0.9320 0.0079 0.0000
vt 0.9320 0.4977 0.0000
vt 0.9381 0.0079 0.0000
vt 0.9381 0.4977 0.0000
vt 0.9446 0.0079 0.0000
vt 0.9446 0.4977 0.0000
vt 0.9760 0.0079 0.0000
vt 0.9760 0.4977 0.0000
vt 0.9839 0.0079 0.0000
vt 0.9839 0.4977 0.0000
vt 0.9920 0.0079 0.0000
vt 0.9920 0.4977 0.0000
vt 0.0079 0.3845 0.0000
vt 0.0079 0.0079 0.0000
vt 0.7483 0.0079 0.0000
vt 0.7483 0.3845 0.0000
vt 0.7640 0.4977 0.0000
vt 0.7640 0.0079 0.0000
vt 0.7858 0.0079 0.0000
vt 0.7858 0.4977 0.0000
vt 0.8446 0.0079 0.0000
vt 0.8446 0.4977 0.0000
vt 0.8569 0.0079 0.0000
vt 0.8569 0.4977 0.0000
vt 0.4840 0.9589 0.0000
vt 0.0079 0.9589 0.0000
vt 0.0079 0.9438 0.0000
vt 0.4840 0.9438 0.0000
vt 0.0079 0.8334 0.0000
vt 0.4840 0.8334 0.0000
# 38 texture coords

o wall
g wall
s 1
f 1/1/1 2/2/1 3/3/2 4/4/2 
s 2
f 4/5/2 3/6/2 5/7/3 6/8/3 
s 1
f 6/8/3 5/7/3 7/9/4 8/10/4 
f 8/10/4 7/9/4 9/11/4 10/12/4 
s 2
f 10/12/4 9/11/4 11/13/3 12/14/5 
f 12/14/5 11/13/3 13/15/5 14/16/5 
s 1
f 14/16/5 13/15/5 15/17/4 16/18/4 
s 2
f 16/18/4 15/17/4 17/19/2 18/20/2 
s 1
f 18/21/2 17/22/2 19/23/6 20/24/6 
s 2
f 20/25/6 19/26/6 21/27/6 22/28/6 
s 1
f 22/28/6 21/27/6 23/29/6 24/30/6 
s 2
f 24/30/6 23/29/6 25/31/6 26/32/6 
s 1
f 26/32/6 25/31/6 27/6/6 28/5/6 
s 2
f 28/33/6 27/34/6 29/35/7 30/36/7 
f 30/36/7 29/35/7 31/37/7 32/38/7 
# 15 polygons

