# 3ds Max Wavefront OBJ Exporter v0.97b - (c)2007 guruware
# File Created: 01.04.2019 12:27:49

#
# object wall
#

v  -30.0000 69.9929 1.8502
v  -0.0000 69.9929 1.8502
v  -0.0000 69.9900 10.0000
v  -30.0000 69.9900 10.0000
v  -30.0000 66.5244 1.8524
v  -0.0000 66.5244 1.8524
v  -30.0000 66.4279 1.7558
v  -0.0000 66.4279 1.7558
v  -30.0000 66.4279 1.3832
v  -0.0000 66.4279 1.3832
v  -30.0000 66.0384 0.9938
v  0.0000 66.0384 0.9938
v  -30.0000 64.1134 0.9938
v  0.0000 64.1134 0.9938
v  -30.0000 63.6220 0.5024
v  0.0000 63.6220 0.5024
v  -30.0000 63.6242 0.0071
v  0.0000 63.6242 0.0071
v  -30.0000 4.6494 0.0071
v  0.0000 4.6494 0.0071
v  -30.0000 4.6494 1.3428
v  -0.0000 4.6494 1.3429
v  -30.0000 1.0472 1.3428
v  -0.0000 1.0472 1.3429
v  -30.0000 1.0472 2.0940
v  -0.0000 1.0472 2.0941
v  -30.0000 0.0071 2.0940
v  -0.0000 0.0071 2.0941
v  -30.0000 0.0100 3.0423
v  -0.0000 0.0100 3.0423
v  -30.0000 0.0100 10.0000
v  -0.0000 0.0100 10.0001
v  -0.0000 70.0000 10.0000
v  -0.0000 70.0000 1.8431
v  -30.0000 70.0000 1.8431
v  -30.0000 70.0000 10.0000
v  -0.0000 66.5282 1.8431
v  -30.0000 66.5282 1.8431
v  -0.0000 66.4371 1.7520
v  -30.0000 66.4371 1.7520
v  -0.0000 66.4371 1.3794
v  -30.0000 66.4371 1.3794
v  0.0000 66.0423 0.9845
v  -30.0000 66.0423 0.9845
v  0.0000 64.1173 0.9846
v  -30.0000 64.1173 0.9845
v  0.0000 63.6313 0.4986
v  -30.0000 63.6313 0.4985
v  0.0000 63.6313 0.0000
v  -30.0000 63.6313 0.0000
v  0.0000 4.6424 0.0001
v  -30.0000 4.6424 0.0000
v  -0.0000 4.6424 1.3358
v  -30.0000 4.6424 1.3358
v  -0.0000 1.0401 1.3358
v  -30.0000 1.0401 1.3358
v  -0.0000 1.0401 2.0870
v  -30.0000 1.0401 2.0870
v  -0.0000 -0.0000 2.0870
v  -30.0000 -0.0000 2.0870
v  -0.0000 -0.0000 3.0423
v  -30.0000 -0.0000 3.0423
v  -0.0000 -0.0000 10.0001
v  -30.0000 -0.0000 10.0000
# 64 vertices

vn -0.9046 -0.3013 0.3014
vn 0.9046 -0.3013 0.3014
vn 0.5773 -0.5775 0.5773
vn -0.5773 -0.5775 0.5773
vn -0.6302 -0.2969 0.7174
vn 0.6302 -0.2969 0.7174
vn -0.6303 -0.7173 0.2971
vn 0.6303 -0.7173 0.2971
vn -0.8042 -0.5491 0.2275
vn 0.8042 -0.5491 0.2275
vn -0.8042 -0.2275 0.5491
vn 0.8042 -0.2275 0.5491
vn -0.6303 -0.2971 0.7173
vn 0.6303 -0.2971 0.7173
vn -0.6299 -0.7182 0.2957
vn 0.6299 -0.7182 0.2957
vn -0.9050 -0.3014 0.3001
vn 0.9050 -0.3014 0.3001
vn -0.9045 0.3015 0.3015
vn 0.9045 0.3015 0.3015
vn -0.5774 0.5773 0.5774
vn 0.5773 0.5773 0.5774
vn 0.5774 0.5773 0.5774
vn -0.9049 0.3014 0.3005
vn 0.9049 0.3014 0.3005
vn -0.7068 0.7075 -0.0011
vn 0.7068 0.7075 -0.0011
vn -0.5774 0.5774 0.5773
vn 0.5773 0.5774 0.5774
vn 0.5774 0.5774 -0.5773
vn -0.5773 0.5774 -0.5774
vn -0.5774 0.5774 0.5774
vn 0.8042 0.2275 -0.5491
vn -0.8042 0.2275 -0.5491
vn 0.8042 0.5491 -0.2275
vn -0.8042 0.5491 -0.2275
vn 0.6302 0.7173 -0.2972
vn -0.6303 0.7173 -0.2971
vn 0.6303 0.2971 -0.7173
vn -0.6303 0.2971 -0.7173
vn 0.8042 0.2274 -0.5491
vn -0.8042 0.2274 -0.5491
vn 0.8042 0.5492 -0.2275
vn -0.8042 0.5492 -0.2275
vn -0.5773 0.5774 -0.5773
vn 0.5774 -0.5774 -0.5773
vn -0.5773 -0.5773 -0.5774
vn 0.9045 -0.3015 -0.3015
vn -0.9045 -0.3015 -0.3015
vn 0.5774 -0.5773 -0.5774
vn -0.5774 -0.5773 -0.5774
vn -0.5774 -0.5774 -0.5773
vn 0.7071 -0.7071 0.0000
vn -0.7071 -0.7071 -0.0000
vn 0.5773 -0.5774 0.5774
vn -0.5774 -0.5774 0.5773
# 56 vertex normals

vt 0.5160 0.9628 0.0000
vt 0.9920 0.9628 0.0000
vt 0.9920 0.8334 0.0000
vt 0.5160 0.8334 0.0000
vt 0.9305 0.0079 0.0000
vt 0.9305 0.4977 0.0000
vt 0.8739 0.4977 0.0000
vt 0.8739 0.0079 0.0000
vt 0.9320 0.0079 0.0000
vt 0.9320 0.4977 0.0000
vt 0.9381 0.0079 0.0000
vt 0.9381 0.4977 0.0000
vt 0.9446 0.0079 0.0000
vt 0.9446 0.4977 0.0000
vt 0.9760 0.0079 0.0000
vt 0.9760 0.4977 0.0000
vt 0.9839 0.0079 0.0000
vt 0.9839 0.4977 0.0000
vt 0.9920 0.0079 0.0000
vt 0.9920 0.4977 0.0000
vt 0.7483 0.0079 0.0000
vt 0.7483 0.3845 0.0000
vt 0.0079 0.3845 0.0000
vt 0.0079 0.0079 0.0000
vt 0.7858 0.0079 0.0000
vt 0.7858 0.4977 0.0000
vt 0.7640 0.4977 0.0000
vt 0.7640 0.0079 0.0000
vt 0.8446 0.0079 0.0000
vt 0.8446 0.4977 0.0000
vt 0.8569 0.0079 0.0000
vt 0.8569 0.4977 0.0000
vt 0.0079 0.9438 0.0000
vt 0.4840 0.9438 0.0000
vt 0.4840 0.9589 0.0000
vt 0.0079 0.9589 0.0000
vt 0.0079 0.8334 0.0000
vt 0.4840 0.8334 0.0000
# 38 texture coords

o wall
g wall
s 1
f 1/1/1 2/2/2 3/3/3 4/4/4 
s 2
f 5/5/5 6/6/6 2/7/2 1/8/1 
s 1
f 7/9/7 8/10/8 6/6/6 5/5/5 
f 9/11/9 10/12/10 8/10/8 7/9/7 
s 2
f 11/13/11 12/14/12 10/12/10 9/11/9 
f 13/15/13 14/16/14 12/14/12 11/13/11 
s 1
f 15/17/15 16/18/16 14/16/14 13/15/13 
s 2
f 17/19/17 18/20/18 16/18/16 15/17/15 
s 1
f 19/21/19 20/22/20 18/23/18 17/24/17 
s 2
f 21/25/21 22/26/22 20/27/20 19/28/19 
s 1
f 23/29/19 24/30/20 22/26/22 21/25/21 
s 2
f 25/31/21 26/32/23 24/30/20 23/29/19 
s 1
f 27/8/24 28/7/25 26/32/23 25/31/21 
s 2
f 29/33/26 30/34/27 28/35/25 27/36/24 
f 31/37/28 32/38/29 30/34/27 29/33/26 
s 1
f 33/3/29 34/2/30 35/1/31 36/4/32 
s 2
f 34/7/30 37/6/33 38/5/34 35/8/31 
s 1
f 37/6/33 39/10/35 40/9/36 38/5/34 
f 39/10/35 41/12/37 42/11/38 40/9/36 
s 2
f 41/12/37 43/14/39 44/13/40 42/11/38 
f 43/14/39 45/16/41 46/15/42 44/13/40 
s 1
f 45/16/41 47/18/43 48/17/44 46/15/42 
s 2
f 47/18/43 49/20/30 50/19/45 48/17/44 
s 1
f 49/23/30 51/22/46 52/21/47 50/24/45 
s 2
f 51/27/46 53/26/48 54/25/49 52/28/47 
s 1
f 53/26/48 55/30/50 56/29/51 54/25/49 
s 2
f 55/30/50 57/32/48 58/31/49 56/29/51 
s 1
f 57/32/48 59/7/46 60/8/52 58/31/49 
s 2
f 59/35/46 61/34/53 62/33/54 60/36/52 
f 61/34/53 63/38/55 64/37/56 62/33/54 
s 4
f 3/3/3 2/2/2 34/2/30 33/3/29 
s 2
f 4/4/4 3/3/3 33/3/29 36/4/32 
s 4
f 1/1/1 4/4/4 36/4/32 35/1/31 
f 2/7/2 6/6/6 37/6/33 34/7/30 
f 5/5/5 1/8/1 35/8/31 38/5/34 
f 6/6/6 8/10/8 39/10/35 37/6/33 
f 7/9/7 5/5/5 38/5/34 40/9/36 
f 8/10/8 10/12/10 41/12/37 39/10/35 
f 9/11/9 7/9/7 40/9/36 42/11/38 
f 10/12/10 12/14/12 43/14/39 41/12/37 
f 11/13/11 9/11/9 42/11/38 44/13/40 
f 12/14/12 14/16/14 45/16/41 43/14/39 
f 13/15/13 11/13/11 44/13/40 46/15/42 
f 14/16/14 16/18/16 47/18/43 45/16/41 
f 15/17/15 13/15/13 46/15/42 48/17/44 
f 16/18/16 18/20/18 49/20/30 47/18/43 
f 17/19/17 15/17/15 48/17/44 50/19/45 
f 18/23/18 20/22/20 51/22/46 49/23/30 
f 19/21/19 17/24/17 50/24/45 52/21/47 
f 20/27/20 22/26/22 53/26/48 51/27/46 
f 21/25/21 19/28/19 52/28/47 54/25/49 
f 22/26/22 24/30/20 55/30/50 53/26/48 
f 23/29/19 21/25/21 54/25/49 56/29/51 
f 24/30/20 26/32/23 57/32/48 55/30/50 
f 25/31/21 23/29/19 56/29/51 58/31/49 
f 26/32/23 28/7/25 59/7/46 57/32/48 
f 27/8/24 25/31/21 58/31/49 60/8/52 
f 28/35/25 30/34/27 61/34/53 59/35/46 
f 29/33/26 27/36/24 60/36/52 62/33/54 
s 1
f 32/38/29 31/37/28 64/37/56 63/38/55 
s 4
f 30/34/27 32/38/29 63/38/55 61/34/53 
f 31/37/28 29/33/26 62/33/54 64/37/56 
# 62 polygons

