# 3ds Max Wavefront OBJ Exporter v0.97b - (c)2007 guruware
# File Created: 15.04.2019 11:36:08

#
# object wall001
#

v  67.2714 69.9900 10.0000
v  67.2714 69.9929 1.8502
v  97.2714 69.9929 1.8502
v  97.2714 69.9900 10.0001
v  67.2714 66.5244 1.8524
v  97.2714 66.5244 1.8524
v  67.2714 66.4279 1.7558
v  97.2714 66.4279 1.7558
v  67.2714 66.4279 1.3832
v  97.2714 66.4279 1.3832
v  67.2714 66.0384 0.9938
v  97.2714 66.0384 0.9938
v  67.2714 64.1134 0.9938
v  97.2714 64.1134 0.9938
v  67.2714 63.6220 0.5024
v  97.2714 63.6220 0.5024
v  67.2714 63.6242 0.0071
v  97.2714 63.6242 0.0071
v  67.2714 58.1903 0.0071
v  97.2714 58.1903 0.0071
v  67.2714 0.0100 2.0870
v  67.2714 0.0100 3.0423
v  97.2714 0.0100 3.0423
v  97.2714 0.0100 2.0870
v  67.2714 0.0100 10.0000
v  97.2714 0.0100 10.0001
v  22.2714 69.9900 10.0000
v  22.2714 69.9929 1.8502
v  37.2714 69.9929 1.8502
v  37.2714 69.9900 10.0000
v  112.2714 69.9929 1.8502
v  112.2714 69.9900 10.0001
v  22.2714 66.5244 1.8523
v  37.2714 66.5244 1.8523
v  112.2714 66.5244 1.8524
v  22.2714 66.4279 1.7558
v  37.2714 66.4279 1.7558
v  112.2714 66.4279 1.7559
v  22.2714 66.4279 1.3832
v  37.2714 66.4279 1.3832
v  112.2714 66.4279 1.3832
v  22.2714 66.0384 0.9937
v  37.2714 66.0384 0.9937
v  112.2714 66.0384 0.9938
v  22.2714 64.1134 0.9937
v  37.2714 64.1134 0.9938
v  112.2714 64.1134 0.9938
v  22.2714 63.6220 0.5023
v  37.2714 63.6220 0.5024
v  112.2714 63.6220 0.5024
v  22.2714 63.6242 0.0071
v  37.2714 63.6242 0.0071
v  112.2714 63.6242 0.0071
v  22.2747 58.1926 0.0088
v  37.2714 58.1903 0.0071
v  22.2835 0.0090 2.0900
v  22.2714 0.0100 3.0423
v  37.2714 0.0100 3.0423
v  37.2714 0.0100 2.0869
v  112.2714 0.0100 3.0423
v  112.2594 0.0090 2.0900
v  22.2714 0.0100 10.0000
v  37.2714 0.0100 10.0000
v  112.2714 0.0100 10.0001
v  127.2714 69.9929 1.8502
v  127.2714 69.9900 10.0001
v  127.2714 66.5244 1.8524
v  127.2714 66.4279 1.7559
v  127.2714 66.4279 1.3833
v  127.2714 66.0384 0.9938
v  127.2714 64.1134 0.9938
v  127.2714 63.6220 0.5024
v  127.2714 63.6242 0.0071
v  127.2714 4.6494 0.0071
v  127.2714 58.1974 0.0101
v  112.2714 58.1932 0.0091
v  112.2714 4.6452 0.0097
v  127.2714 4.6494 1.3429
v  112.2483 4.6481 1.3416
v  127.2714 1.0472 1.3429
v  112.2353 1.0432 1.3388
v  127.2714 1.0472 2.0941
v  112.2483 1.0459 2.0928
v  127.2714 0.0071 2.0941
v  127.2714 0.0100 3.0423
v  127.2714 0.0100 10.0001
v  7.2714 69.9900 10.0000
v  7.2714 69.9929 1.8502
v  7.2714 66.5244 1.8523
v  7.2714 66.4279 1.7558
v  7.2714 66.4279 1.3832
v  7.2714 66.0384 0.9937
v  7.2714 64.1134 0.9937
v  7.2714 63.6220 0.5023
v  7.2714 63.6242 0.0071
v  7.2714 58.1974 0.0100
v  7.2714 4.6494 0.0071
v  7.2714 4.6494 1.3428
v  22.2945 4.6481 1.3415
v  22.3011 4.6397 0.0061
v  7.2714 1.0472 1.3428
v  22.2986 1.0469 1.3386
v  7.2714 1.0472 2.0940
v  22.2945 1.0459 2.0927
v  7.2714 0.0071 2.0940
v  7.2714 0.0100 3.0423
v  7.2714 0.0100 10.0000
v  67.2714 0.0100 0.0018
v  37.2714 0.0100 0.0018
v  97.2714 0.0100 0.0018
v  112.2431 0.0071 0.0018
v  112.2714 58.1881 0.0017
v  112.2714 4.6353 0.0050
v  112.2369 4.6443 0.0051
v  112.2314 1.0401 0.0004
v  112.2314 1.0401 0.0018
v  22.2997 0.0071 0.0018
v  22.3111 4.6437 0.0004
v  22.2930 4.6378 0.0050
v  22.3114 1.0401 0.0004
v  22.3101 1.0427 0.0018
v  22.2780 58.1878 0.0001
v  67.2714 58.1874 -0.0021
v  97.2714 58.1874 -0.0021
v  37.2714 58.1874 -0.0021
v  97.2714 70.0000 1.8431
v  67.2714 70.0000 1.8431
v  67.2714 70.0000 10.0000
v  97.2714 70.0000 10.0001
v  97.2714 66.5282 1.8431
v  67.2714 66.5282 1.8431
v  97.2714 66.4371 1.7520
v  67.2714 66.4371 1.7520
v  97.2714 66.4371 1.3794
v  67.2714 66.4371 1.3794
v  97.2714 66.0423 0.9845
v  67.2714 66.0423 0.9845
v  97.2714 64.1173 0.9846
v  67.2714 64.1173 0.9845
v  97.2714 63.6313 0.4986
v  67.2714 63.6313 0.4986
v  97.2714 63.6313 0.0001
v  67.2714 63.6313 0.0000
v  97.2714 58.1974 0.0001
v  67.2714 58.1974 0.0000
v  97.2714 -0.0000 3.0423
v  67.2714 -0.0000 3.0423
v  67.2714 -0.0000 2.0870
v  97.2714 -0.0000 2.0870
v  97.2714 -0.0000 10.0001
v  67.2714 -0.0000 10.0000
v  37.2714 70.0000 1.8431
v  22.2714 70.0000 1.8431
v  22.2714 70.0000 10.0000
v  37.2714 70.0000 10.0000
v  112.2714 70.0000 10.0001
v  112.2714 70.0000 1.8432
v  37.2714 66.5282 1.8431
v  22.2714 66.5282 1.8431
v  112.2714 66.5282 1.8432
v  37.2714 66.4371 1.7520
v  22.2714 66.4371 1.7520
v  112.2714 66.4371 1.7520
v  37.2714 66.4371 1.3794
v  22.2714 66.4371 1.3794
v  112.2714 66.4371 1.3794
v  37.2714 66.0423 0.9845
v  22.2714 66.0423 0.9845
v  112.2714 66.0423 0.9846
v  37.2714 64.1173 0.9845
v  22.2714 64.1173 0.9845
v  112.2714 64.1173 0.9846
v  37.2714 63.6313 0.4985
v  22.2714 63.6313 0.4985
v  112.2714 63.6313 0.4986
v  37.2714 63.6313 0.0000
v  22.2714 63.6313 0.0000
v  112.2714 63.6313 0.0001
v  37.2714 58.1974 0.0000
v  22.2714 58.1974 0.0000
v  37.2714 -0.0000 3.0423
v  22.2714 -0.0000 3.0423
v  22.2714 -0.0000 2.0869
v  37.2714 -0.0000 2.0869
v  112.2714 -0.0000 2.0870
v  112.2714 -0.0000 3.0423
v  37.2714 -0.0000 10.0000
v  22.2714 -0.0000 10.0000
v  112.2714 -0.0000 10.0001
v  127.2714 70.0000 10.0001
v  127.2714 70.0000 1.8432
v  127.2714 66.5282 1.8432
v  127.2714 66.4371 1.7520
v  127.2714 66.4371 1.3794
v  127.2714 66.0423 0.9846
v  127.2714 64.1173 0.9846
v  127.2714 63.6313 0.4986
v  127.2714 63.6313 0.0001
v  112.2714 58.1974 0.0001
v  127.2714 58.1974 0.0001
v  127.2714 4.6424 0.0001
v  112.2714 4.6424 0.0001
v  127.2714 4.6424 1.3358
v  112.2714 4.6424 1.3358
v  127.2714 1.0401 1.3358
v  112.2714 1.0401 1.3358
v  127.2714 1.0401 2.0870
v  112.2714 1.0401 2.0870
v  127.2714 -0.0000 2.0870
v  127.2714 -0.0000 3.0423
v  127.2714 -0.0000 10.0001
v  7.2714 70.0000 1.8431
v  7.2714 70.0000 10.0000
v  7.2714 66.5282 1.8431
v  7.2714 66.4371 1.7520
v  7.2714 66.4371 1.3793
v  7.2714 66.0423 0.9845
v  7.2714 64.1173 0.9845
v  7.2714 63.6313 0.4985
v  7.2714 63.6313 -0.0000
v  7.2714 58.1974 -0.0000
v  22.2714 4.6424 1.3358
v  7.2714 4.6424 1.3357
v  7.2714 4.6424 -0.0000
v  22.2714 4.6424 0.0000
v  22.2714 1.0401 1.3358
v  7.2714 1.0401 1.3357
v  22.2714 1.0401 2.0869
v  7.2714 1.0401 2.0869
v  7.2714 -0.0000 2.0869
v  7.2714 -0.0000 3.0423
v  7.2714 -0.0000 10.0000
v  67.2714 -0.0000 0.0018
v  37.2714 -0.0000 0.0018
v  97.2714 -0.0000 0.0018
v  112.2714 -0.0000 0.0018
v  112.2714 58.1974 -0.0021
v  112.2714 4.6424 -0.0021
v  112.2714 4.6424 0.0004
v  112.2714 1.0401 0.0004
v  112.2714 1.0401 0.0018
v  22.2714 -0.0000 0.0018
v  22.2714 4.6424 0.0004
v  22.2714 4.6424 -0.0021
v  22.2714 1.0401 0.0004
v  22.2714 1.0401 0.0018
v  22.2714 58.1974 -0.0021
v  67.2714 58.1974 -0.0021
v  97.2714 58.1974 -0.0021
v  37.2714 58.1974 -0.0021
# 250 vertices

vn -0.0000 -0.7072 0.7070
vn -0.0000 -0.7070 0.7072
vn -0.0000 -0.3824 0.9240
vn -0.0000 -0.9239 0.3827
vn -0.0000 -0.3827 0.9239
vn -0.0000 -0.9247 0.3807
vn -0.0000 -0.7087 0.7056
vn -0.0000 -0.5905 0.8071
vn 0.0000 -0.5909 0.8068
vn 0.0000 1.0000 -0.0000
vn 0.0001 1.0000 -0.0000
vn -0.0000 0.7071 0.7071
vn -0.0000 -0.7085 0.7057
vn 0.1830 -0.2242 0.9572
vn -0.0000 -0.5903 0.8071
vn 0.3027 0.9039 0.3023
vn 0.0000 1.0000 -0.0005
vn -0.0001 1.0000 -0.0000
vn -0.3027 0.9039 0.3023
vn 0.9046 -0.3013 0.3014
vn 0.5773 -0.5775 0.5773
vn 0.6302 -0.2969 0.7174
vn 0.6303 -0.7173 0.2971
vn 0.8042 -0.5491 0.2275
vn 0.8042 -0.2275 0.5491
vn 0.6303 -0.2971 0.7173
vn 0.6299 -0.7182 0.2957
vn 0.9051 -0.3012 0.3001
vn 0.9045 0.3014 0.3018
vn 0.7070 0.0002 0.7072
vn -0.1670 -0.2223 0.9606
vn -0.9044 0.3035 0.3000
vn 0.5772 0.5774 0.5774
vn -0.5764 0.5781 0.5775
vn 0.9043 0.3019 0.3019
vn -0.2106 -0.6405 0.7385
vn -0.5774 0.5771 0.5775
vn 0.9048 0.3017 0.3004
vn 0.7068 0.7075 -0.0011
vn 0.5773 0.5774 0.5774
vn -0.5773 -0.5775 0.5773
vn -0.9046 -0.3013 0.3014
vn -0.6302 -0.2969 0.7174
vn -0.6303 -0.7173 0.2971
vn -0.8042 -0.5491 0.2275
vn -0.8042 -0.2275 0.5491
vn -0.6303 -0.2971 0.7173
vn -0.6299 -0.7182 0.2957
vn -0.9051 -0.3012 0.3001
vn -0.7069 0.0002 0.7073
vn -0.9042 0.3017 0.3022
vn -0.5772 0.5774 0.5774
vn 0.5761 0.5793 0.5767
vn 0.9866 0.0502 -0.1551
vn -0.9044 0.3018 0.3016
vn 0.8730 0.3881 0.2954
vn 0.5777 0.5755 0.5788
vn -0.9048 0.3017 0.3004
vn -0.7068 0.7075 -0.0011
vn -0.5774 0.5774 0.5773
vn -0.0000 0.7071 -0.7071
vn -0.0003 0.7072 -0.7070
vn 0.0003 0.7072 -0.7070
vn -0.3011 0.3010 -0.9048
vn -0.9277 -0.3578 -0.1068
vn -0.2706 0.9548 -0.1229
vn -0.4124 0.8248 -0.3868
vn -0.5778 -0.5760 -0.5783
vn -0.9399 -0.1014 -0.3261
vn 0.3011 0.3011 -0.9048
vn 0.4320 0.7704 -0.4690
vn 0.2015 0.9227 -0.3285
vn 0.4959 -0.8199 -0.2860
vn -0.3000 -0.9535 -0.0291
vn 0.8194 -0.3429 -0.4594
vn -0.0000 -0.8065 -0.5912
vn 0.0004 -0.8063 -0.5915
vn -0.0002 -0.8066 -0.5911
vn 0.0000 0.7071 -0.7071
vn 0.0000 0.3827 -0.9239
vn 0.0000 0.9239 -0.3827
vn 0.0000 0.7077 -0.7065
vn -0.0000 -1.0000 0.0000
vn -0.0000 -0.7071 0.7071
vn 0.0000 0.7078 -0.7065
vn -0.3020 0.3019 -0.9042
vn -0.3015 -0.9045 -0.3015
vn 0.3015 -0.9045 -0.3015
vn 0.5774 0.5774 -0.5773
vn 0.8042 0.2275 -0.5491
vn 0.8042 0.5491 -0.2275
vn 0.6302 0.7173 -0.2972
vn 0.6303 0.2971 -0.7173
vn 0.8042 0.2274 -0.5491
vn 0.8042 0.5492 -0.2275
vn 0.3020 0.3016 -0.9044
vn 0.7071 -0.0000 -0.7071
vn 0.5774 -0.5774 -0.5773
vn 0.6786 -0.6786 -0.2811
vn 0.9045 -0.3015 -0.3015
vn 0.5774 -0.5774 -0.5774
vn 0.5774 -0.5773 -0.5774
vn 0.7071 -0.7071 0.0000
vn 0.5773 -0.5774 0.5774
vn -0.5773 0.5774 -0.5774
vn -0.8042 0.2275 -0.5491
vn -0.8042 0.5491 -0.2275
vn -0.6303 0.7173 -0.2971
vn -0.6303 0.2971 -0.7173
vn -0.8042 0.2274 -0.5491
vn -0.8042 0.5492 -0.2275
vn -0.5773 0.5774 -0.5773
vn -0.7071 -0.0000 -0.7071
vn -0.5774 -0.5773 -0.5774
vn -0.9045 -0.3015 -0.3015
vn -0.5773 -0.5773 -0.5774
vn -0.5800 0.5761 -0.5759
vn -0.9408 -0.0737 -0.3309
vn -0.5773 -0.5774 -0.5774
vn -0.5774 -0.5774 -0.5773
vn -0.7071 -0.7071 -0.0000
vn -0.5774 -0.5774 0.5773
vn -0.0000 -0.7071 -0.7071
vn 0.5773 -0.5774 -0.5773
vn 0.5595 0.4615 -0.6885
vn 0.0007 -0.5202 -0.8540
vn 0.4851 -0.8206 -0.3021
vn 0.5775 -0.5765 -0.5781
vn 0.9042 -0.3016 -0.3024
vn -0.9202 -0.1650 -0.3550
vn -0.3123 -0.4119 -0.8560
vn -0.5773 -0.5767 -0.5780
vn -0.8210 -0.4443 -0.3585
vn -0.5624 0.5261 -0.6379
vn -0.0000 0.7084 -0.7059
vn -0.0000 0.7083 -0.7059
vn -0.0000 0.7084 -0.7058
# 137 vertex normals

vt 0.9933 0.9935 0.0000
vt 0.5157 0.9935 0.0000
vt 0.5157 0.8312 0.0000
vt 0.9933 0.8312 0.0000
vt 0.7579 0.3941 0.0000
vt 0.7579 0.4473 0.0000
vt 0.0067 0.4473 0.0000
vt 0.0067 0.3941 0.0000
vt 0.7579 0.4487 0.0000
vt 0.0067 0.4487 0.0000
vt 0.7579 0.4545 0.0000
vt 0.0067 0.4545 0.0000
vt 0.7579 0.4605 0.0000
vt 0.0067 0.4605 0.0000
vt 0.7579 0.4900 0.0000
vt 0.0067 0.4900 0.0000
vt 0.7579 0.4975 0.0000
vt 0.0067 0.4975 0.0000
vt 0.7579 0.5051 0.0000
vt 0.0067 0.5051 0.0000
vt 0.0059 0.0112 0.0000
vt 0.0745 0.0112 0.0000
vt 0.0745 0.3871 0.0000
vt 0.0059 0.3871 0.0000
vt 0.0067 0.5139 0.0000
vt 0.0542 0.5139 0.0000
vt 0.0542 0.9922 0.0000
vt 0.0067 0.9922 0.0000
vt 0.1661 0.5139 0.0000
vt 0.1661 0.9922 0.0000
vt 0.9933 0.9123 0.0000
vt 0.5157 0.9123 0.0000
vt 0.3823 0.3941 0.0000
vt 0.3823 0.4473 0.0000
vt 0.3823 0.4487 0.0000
vt 0.3823 0.4545 0.0000
vt 0.3823 0.4605 0.0000
vt 0.3823 0.4900 0.0000
vt 0.3823 0.4975 0.0000
vt 0.3823 0.5051 0.0000
vt 0.0059 0.1991 0.0000
vt 0.0745 0.1991 0.0000
vt 0.0067 0.7530 0.0000
vt 0.0542 0.7530 0.0000
vt 0.1661 0.7530 0.0000
vt 0.7510 0.3871 0.0000
vt 0.7510 0.1991 0.0000
vt 0.0069 0.4154 0.0000
vt 0.0069 0.3933 0.0000
vt 0.3825 0.3933 0.0000
vt 0.3825 0.4154 0.0000
vt 0.0069 0.4751 0.0000
vt 0.3825 0.4751 0.0000
vt 0.0069 0.4875 0.0000
vt 0.3825 0.4875 0.0000
vt 0.0069 0.5047 0.0000
vt 0.3825 0.5047 0.0000
vt 0.7580 0.3933 0.0000
vt 0.7580 0.4154 0.0000
vt 0.7580 0.4751 0.0000
vt 0.7580 0.4875 0.0000
vt 0.7580 0.5047 0.0000
vt 0.7510 0.0112 0.0000
# 63 texture coords

o wall001
g wall001
s 1
f 1/1/1 2/2/2 3/3/2 4/4/1 
s 2
f 2/5/2 5/6/3 6/7/3 3/8/2 
s 1
f 5/6/3 7/9/4 8/10/4 6/7/3 
f 7/9/4 9/11/4 10/12/4 8/10/4 
s 2
f 9/11/4 11/13/5 12/14/5 10/12/4 
f 11/13/5 13/15/5 14/16/5 12/14/5 
s 1
f 13/15/5 15/17/6 16/18/6 14/16/5 
s 2
f 15/17/6 17/19/7 18/20/7 16/18/6 
s 1
f 17/21/7 19/22/8 20/23/9 18/24/7 
s 2
f 21/25/10 22/26/10 23/27/10 24/28/11 
f 22/26/10 25/29/12 26/30/12 23/27/10 
s 1
f 27/31/1 28/32/2 29/3/2 30/4/1 
f 30/1/1 29/2/2 2/3/2 1/4/1 
f 31/32/2 32/31/1 4/1/1 3/2/2 
s 2
f 28/33/2 33/34/3 34/7/3 29/8/2 
f 29/5/2 34/6/3 5/7/3 2/8/2 
f 35/34/3 31/33/2 3/5/2 6/6/3 
s 1
f 33/34/3 36/35/4 37/10/4 34/7/3 
f 34/6/3 37/9/4 7/10/4 5/7/3 
f 38/35/4 35/34/3 6/6/3 8/9/4 
f 36/35/4 39/36/4 40/12/4 37/10/4 
f 37/9/4 40/11/4 9/12/4 7/10/4 
f 41/36/4 38/35/4 8/9/4 10/11/4 
s 2
f 39/36/4 42/37/5 43/14/5 40/12/4 
f 40/11/4 43/13/5 11/14/5 9/12/4 
f 44/37/5 41/36/4 10/11/4 12/13/5 
f 42/37/5 45/38/5 46/16/5 43/14/5 
f 43/13/5 46/15/5 13/16/5 11/14/5 
f 47/38/5 44/37/5 12/13/5 14/15/5 
s 1
f 45/38/5 48/39/6 49/18/6 46/16/5 
f 46/15/5 49/17/6 15/18/6 13/16/5 
f 50/39/6 47/38/5 14/15/5 16/17/6 
s 2
f 48/39/6 51/40/13 52/20/7 49/18/6 
f 49/17/6 52/19/7 17/20/7 15/18/6 
f 53/40/13 50/39/6 16/17/6 18/19/7 
s 1
f 51/41/13 54/42/14 55/23/15 52/24/7 
f 52/21/7 55/22/15 19/23/8 17/24/7 
s 2
f 56/43/16 57/44/17 58/27/10 59/28/18 
f 59/25/18 58/26/10 22/27/10 21/28/10 
f 60/44/17 61/43/19 24/25/11 23/26/10 
f 57/44/17 62/45/12 63/30/12 58/27/10 
f 58/26/10 63/29/12 25/30/12 22/27/10 
f 64/45/12 60/44/17 23/26/10 26/29/12 
s 1
f 65/3/20 66/4/21 32/31/1 31/32/2 
s 2
f 67/7/22 65/8/20 31/33/2 35/34/3 
s 1
f 68/10/23 67/7/22 35/34/3 38/35/4 
f 69/12/24 68/10/23 38/35/4 41/36/4 
s 2
f 70/14/25 69/12/24 41/36/4 44/37/5 
f 71/16/26 70/14/25 44/37/5 47/38/5 
s 1
f 72/18/27 71/16/26 47/38/5 50/39/6 
s 2
f 73/20/28 72/18/27 50/39/6 53/40/13 
s 1
f 74/46/29 75/23/30 76/42/31 77/47/32 
s 2
f 78/48/33 74/49/29 77/50/32 79/51/34 
s 1
f 80/52/35 78/48/33 79/51/34 81/53/36 
s 2
f 82/54/33 80/52/35 81/53/36 83/55/37 
s 1
f 84/56/38 82/54/33 83/55/37 61/57/19 
s 2
f 85/27/39 84/28/38 61/43/19 60/44/17 
f 86/30/40 85/27/39 60/44/17 64/45/12 
s 1
f 87/1/41 88/2/42 28/32/2 27/31/1 
s 2
f 88/5/42 89/6/43 33/34/3 28/33/2 
s 1
f 89/6/43 90/9/44 36/35/4 33/34/3 
f 90/9/44 91/11/45 39/36/4 36/35/4 
s 2
f 91/11/45 92/13/46 42/37/5 39/36/4 
f 92/13/46 93/15/47 45/38/5 42/37/5 
s 1
f 93/15/47 94/17/48 48/39/6 45/38/5 
s 2
f 94/17/48 95/19/49 51/40/13 48/39/6 
s 1
f 95/21/49 96/22/50 54/42/14 51/41/13 
s 2
f 97/58/51 98/59/52 99/51/53 100/50/54 
s 1
f 98/59/52 101/60/55 102/53/56 99/51/53 
s 2
f 101/60/55 103/61/52 104/55/57 102/53/56 
s 1
f 103/61/52 105/62/58 56/57/16 104/55/57 
s 2
f 105/25/58 106/26/59 57/44/17 56/43/16 
f 106/26/59 107/29/60 62/45/12 57/44/17 
s 1
f 53/41/13 18/21/7 20/22/9 76/42/31 
f 73/24/28 53/41/13 76/42/31 75/23/30 
f 97/63/51 100/47/54 54/42/14 96/22/50 
s off
f 59/25/18 21/28/10 108/28/61 109/25/62 
f 21/25/10 24/28/11 110/28/63 108/25/61 
f 24/25/11 61/43/19 111/43/64 110/25/63 
f 77/47/32 76/42/31 112/42/65 113/47/66 
f 79/51/34 77/50/32 113/50/66 114/51/67 
f 81/53/36 79/51/34 114/51/67 115/53/68 
f 83/55/37 81/53/36 115/53/68 116/55/69 
f 61/57/19 83/55/37 116/55/69 111/57/64 
f 56/43/16 59/28/18 109/28/62 117/43/70 
f 100/50/54 99/51/53 118/51/71 119/50/72 
f 99/51/53 102/53/56 120/53/73 118/51/71 
f 102/53/56 104/55/57 121/55/74 120/53/73 
f 104/55/57 56/57/16 117/57/70 121/55/74 
f 54/42/14 100/47/54 119/47/72 122/42/75 
f 20/23/9 19/22/8 123/22/76 124/23/77 
f 55/23/15 54/42/14 122/42/75 125/23/78 
f 19/23/8 55/22/15 125/22/78 123/23/76 
f 76/42/31 20/22/9 124/22/77 112/42/65 
s 1
f 126/3/79 127/2/79 128/1/12 129/4/12 
s 2
f 130/7/80 131/6/80 127/5/79 126/8/79 
s 1
f 132/10/81 133/9/81 131/6/80 130/7/80 
f 134/12/81 135/11/81 133/9/81 132/10/81 
s 2
f 136/14/80 137/13/80 135/11/81 134/12/81 
f 138/16/80 139/15/80 137/13/80 136/14/80 
s 1
f 140/18/81 141/17/81 139/15/80 138/16/80 
s 2
f 142/20/79 143/19/79 141/17/81 140/18/81 
s 1
f 144/23/82 145/22/82 143/21/79 142/24/79 
s 2
f 146/27/83 147/26/83 148/25/83 149/28/83 
f 150/30/84 151/29/84 147/26/83 146/27/83 
s 1
f 152/3/79 153/32/79 154/31/12 155/4/12 
f 127/3/79 152/2/79 155/1/12 128/4/12 
f 129/1/12 156/31/12 157/32/79 126/2/79 
s 2
f 158/7/80 159/34/80 153/33/79 152/8/79 
f 131/7/80 158/6/80 152/5/79 127/8/79 
f 126/5/79 157/33/79 160/34/80 130/6/80 
s 1
f 161/10/81 162/35/81 159/34/80 158/7/80 
f 133/10/81 161/9/81 158/6/80 131/7/80 
f 130/6/80 160/34/80 163/35/81 132/9/81 
f 164/12/81 165/36/81 162/35/81 161/10/81 
f 135/12/81 164/11/81 161/9/81 133/10/81 
f 132/9/81 163/35/81 166/36/81 134/11/81 
s 2
f 167/14/80 168/37/80 165/36/81 164/12/81 
f 137/14/80 167/13/80 164/11/81 135/12/81 
f 134/11/81 166/36/81 169/37/80 136/13/80 
f 170/16/80 171/38/80 168/37/80 167/14/80 
f 139/16/80 170/15/80 167/13/80 137/14/80 
f 136/13/80 169/37/80 172/38/80 138/15/80 
s 1
f 173/18/81 174/39/81 171/38/80 170/16/80 
f 141/18/81 173/17/81 170/15/80 139/16/80 
f 138/15/80 172/38/80 175/39/81 140/17/81 
s 2
f 176/20/79 177/40/79 174/39/81 173/18/81 
f 143/20/79 176/19/79 173/17/81 141/18/81 
f 140/17/81 175/39/81 178/40/79 142/19/79 
s 1
f 179/23/85 180/42/86 177/41/79 176/24/79 
f 145/23/82 179/22/85 176/21/79 143/24/79 
s 2
f 181/27/83 182/44/83 183/43/87 184/28/83 
f 147/27/83 181/26/83 184/25/83 148/28/83 
f 149/25/83 185/43/88 186/44/83 146/26/83 
f 187/30/84 188/45/84 182/44/83 181/27/83 
f 151/30/84 187/29/84 181/26/83 147/27/83 
f 146/26/83 186/44/83 189/45/84 150/29/84 
s 1
f 156/31/12 190/4/40 191/3/89 157/32/79 
s 2
f 157/33/79 191/8/89 192/7/90 160/34/80 
s 1
f 160/34/80 192/7/90 193/10/91 163/35/81 
f 163/35/81 193/10/91 194/12/92 166/36/81 
s 2
f 166/36/81 194/12/92 195/14/93 169/37/80 
f 169/37/80 195/14/93 196/16/94 172/38/80 
s 1
f 172/38/80 196/16/94 197/18/95 175/39/81 
s 2
f 175/39/81 197/18/95 198/20/89 178/40/79 
s 1
f 199/42/96 200/23/97 201/46/98 202/47/99 
s 2
f 202/50/99 201/49/98 203/48/100 204/51/101 
s 1
f 204/51/101 203/48/100 205/52/102 206/53/100 
s 2
f 206/53/100 205/52/102 207/54/100 208/55/101 
s 1
f 208/55/101 207/54/100 209/56/98 185/57/88 
s 2
f 185/43/88 209/28/98 210/27/103 186/44/83 
f 186/44/83 210/27/103 211/30/104 189/45/84 
s 1
f 153/32/79 212/2/105 213/1/60 154/31/12 
s 2
f 159/34/80 214/6/106 212/5/105 153/33/79 
s 1
f 162/35/81 215/9/107 214/6/106 159/34/80 
f 165/36/81 216/11/108 215/9/107 162/35/81 
s 2
f 168/37/80 217/13/109 216/11/108 165/36/81 
f 171/38/80 218/15/110 217/13/109 168/37/80 
s 1
f 174/39/81 219/17/111 218/15/110 171/38/80 
s 2
f 177/40/79 220/19/112 219/17/111 174/39/81 
s 1
f 180/42/86 221/22/113 220/21/112 177/41/79 
s 2
f 222/51/114 223/59/115 224/58/116 225/50/117 
s 1
f 226/53/118 227/60/114 223/59/115 222/51/114 
s 2
f 228/55/119 229/61/115 227/60/114 226/53/118 
s 1
f 183/57/87 230/62/120 229/61/115 228/55/119 
s 2
f 182/44/83 231/26/121 230/25/120 183/43/87 
f 188/45/84 232/29/122 231/26/121 182/44/83 
s 1
f 144/22/82 142/21/79 178/41/79 199/42/96 
f 199/42/96 178/41/79 198/24/89 200/23/97 
f 180/42/86 225/47/117 224/63/116 221/22/113 
s off
f 233/28/123 148/28/83 184/25/83 234/25/123 
f 235/28/123 149/28/83 148/25/83 233/25/123 
f 236/43/124 185/43/88 149/25/83 235/25/123 
f 237/42/125 199/42/96 202/47/99 238/47/126 
f 238/50/126 202/50/99 204/51/101 239/51/127 
f 239/51/127 204/51/101 206/53/100 240/53/128 
f 240/53/128 206/53/100 208/55/101 241/55/129 
f 241/55/129 208/55/101 185/57/88 236/57/124 
f 234/28/123 184/28/83 183/43/87 242/43/114 
f 243/51/130 222/51/114 225/50/117 244/50/131 
f 245/53/132 226/53/118 222/51/114 243/51/130 
f 246/55/133 228/55/119 226/53/118 245/53/132 
f 242/57/114 183/57/87 228/55/119 246/55/133 
f 244/47/131 225/47/117 180/42/86 247/42/134 
f 248/22/135 145/22/82 144/23/82 249/23/136 
f 247/42/134 180/42/86 179/23/85 250/23/137 
f 250/22/137 179/22/85 145/23/82 248/23/135 
f 249/22/136 144/22/82 199/42/96 237/42/125 
s 2
f 1/1/1 4/4/1 129/4/12 128/1/12 
s 1
f 26/30/12 25/29/12 151/29/84 150/30/84 
s 2
f 27/31/1 30/4/1 155/4/12 154/31/12 
f 30/1/1 1/4/1 128/4/12 155/1/12 
f 4/1/1 32/31/1 156/31/12 129/1/12 
s 1
f 63/30/12 62/45/12 188/45/84 187/30/84 
f 25/30/12 63/29/12 187/29/84 151/30/84 
f 64/45/12 26/29/12 150/29/84 189/45/84 
s 4
f 66/4/21 65/3/20 191/3/89 190/4/40 
s 2
f 32/31/1 66/4/21 190/4/40 156/31/12 
s 4
f 65/8/20 67/7/22 192/7/90 191/8/89 
f 67/7/22 68/10/23 193/10/91 192/7/90 
f 68/10/23 69/12/24 194/12/92 193/10/91 
f 69/12/24 70/14/25 195/14/93 194/12/92 
f 70/14/25 71/16/26 196/16/94 195/14/93 
f 71/16/26 72/18/27 197/18/95 196/16/94 
f 72/18/27 73/20/28 198/20/89 197/18/95 
f 75/23/30 74/46/29 201/46/98 200/23/97 
f 74/49/29 78/48/33 203/48/100 201/49/98 
f 78/48/33 80/52/35 205/52/102 203/48/100 
f 80/52/35 82/54/33 207/54/100 205/52/102 
f 82/54/33 84/56/38 209/56/98 207/54/100 
f 84/28/38 85/27/39 210/27/103 209/28/98 
f 85/27/39 86/30/40 211/30/104 210/27/103 
s 1
f 86/30/40 64/45/12 189/45/84 211/30/104 
s 4
f 88/2/42 87/1/41 213/1/60 212/2/105 
s 2
f 87/1/41 27/31/1 154/31/12 213/1/60 
s 4
f 89/6/43 88/5/42 212/5/105 214/6/106 
f 90/9/44 89/6/43 214/6/106 215/9/107 
f 91/11/45 90/9/44 215/9/107 216/11/108 
f 92/13/46 91/11/45 216/11/108 217/13/109 
f 93/15/47 92/13/46 217/13/109 218/15/110 
f 94/17/48 93/15/47 218/15/110 219/17/111 
f 95/19/49 94/17/48 219/17/111 220/19/112 
f 96/22/50 95/21/49 220/21/112 221/22/113 
f 98/59/52 97/58/51 224/58/116 223/59/115 
f 101/60/55 98/59/52 223/59/115 227/60/114 
f 103/61/52 101/60/55 227/60/114 229/61/115 
f 105/62/58 103/61/52 229/61/115 230/62/120 
f 106/26/59 105/25/58 230/25/120 231/26/121 
f 107/29/60 106/26/59 231/26/121 232/29/122 
s 1
f 62/45/12 107/29/60 232/29/122 188/45/84 
s 4
f 73/24/28 75/23/30 200/23/97 198/24/89 
f 97/63/51 96/22/50 221/22/113 224/63/116 
s 1
f 109/25/62 108/28/61 233/28/123 234/25/123 
f 108/25/61 110/28/63 235/28/123 233/25/123 
f 110/25/63 111/43/64 236/43/124 235/25/123 
f 113/47/66 112/42/65 237/42/125 238/47/126 
s 6
f 114/51/67 113/50/66 238/50/126 239/51/127 
s 1
f 115/53/68 114/51/67 239/51/127 240/53/128 
s 2
f 116/55/69 115/53/68 240/53/128 241/55/129 
s 1
f 111/57/64 116/55/69 241/55/129 236/57/124 
f 117/43/70 109/28/62 234/28/123 242/43/114 
s 3
f 119/50/72 118/51/71 243/51/130 244/50/131 
s 2
f 118/51/71 120/53/73 245/53/132 243/51/130 
s 3
f 120/53/73 121/55/74 246/55/133 245/53/132 
s 1
f 121/55/74 117/57/70 242/57/114 246/55/133 
f 122/42/75 119/47/72 244/47/131 247/42/134 
s 2
f 124/23/77 123/22/76 248/22/135 249/23/136 
f 125/23/78 122/42/75 247/42/134 250/23/137 
f 123/23/76 125/22/78 250/22/137 248/23/135 
f 112/42/65 124/22/77 249/22/136 237/42/125 
# 250 polygons

