# 3ds Max Wavefront OBJ Exporter v0.97b - (c)2007 guruware
# File Created: 20.03.2019 16:13:56

#
# object window
#

v  -25.8585 70.0000 10.0000
v  -30.0000 70.0000 10.0000
v  -30.0000 70.0000 1.8431
v  -25.8585 70.0000 1.8431
v  -30.0000 66.5282 1.8431
v  -25.8585 66.5282 1.8431
v  -30.0000 66.4371 1.7520
v  -25.8585 66.4371 1.7520
v  -30.0000 66.4371 1.3794
v  -25.8585 66.4371 1.3794
v  -30.0000 66.0423 0.9845
v  -25.8585 66.0423 0.9845
v  -30.0000 64.1173 0.9845
v  -25.8585 64.1173 0.9845
v  -30.0000 63.6313 0.4985
v  -25.8585 63.6313 0.4986
v  -30.0000 63.6313 0.0000
v  -25.8585 63.6313 0.0000
v  -30.0000 54.3037 0.0000
v  -25.8585 54.3037 0.0000
v  -25.8585 4.6424 0.0000
v  -30.0000 4.6424 0.0000
v  -30.0000 4.6424 1.3358
v  -25.8585 4.6424 1.3358
v  -30.0000 1.0401 1.3358
v  -25.8585 1.0401 1.3358
v  -30.0000 1.0401 2.0870
v  -25.8585 1.0401 2.0870
v  -30.0000 -0.0000 2.0870
v  -25.8585 -0.0000 2.0870
v  -30.0000 -0.0000 3.0423
v  -25.8585 -0.0000 3.0423
v  -30.0000 0.0000 10.0000
v  -25.8585 0.0000 10.0000
v  -30.0000 20.7117 0.0000
v  -25.8585 20.7117 0.0000
v  -15.0000 4.6424 0.0000
v  -15.0000 20.7117 0.0000
v  -25.8585 20.7117 1.7354
v  -25.8585 54.3037 1.7354
v  -15.0000 20.7117 1.7354
v  -24.6197 22.6855 1.7354
v  -24.6197 52.3299 1.7354
v  -15.0000 22.6855 1.7354
v  -24.6197 22.6855 0.0000
v  -24.6197 52.3299 0.0000
v  -15.0000 22.6855 0.0000
v  -15.0000 70.0000 10.0000
v  -15.0000 70.0000 1.8431
v  -15.0000 66.5282 1.8431
v  -15.0000 66.4371 1.7520
v  -15.0000 66.4371 1.3794
v  -15.0000 66.0423 0.9845
v  -15.0000 64.1173 0.9845
v  -15.0000 63.6313 0.4986
v  -15.0000 63.6313 0.0000
v  -15.0000 54.3037 0.0000
v  -15.0000 4.6424 1.3358
v  -15.0000 1.0401 1.3358
v  -15.0000 1.0401 2.0870
v  -15.0000 0.0000 2.0870
v  -15.0000 0.0000 3.0423
v  -15.0000 0.0000 10.0001
v  -15.0000 54.3037 1.7354
v  -15.0000 52.3299 1.7354
v  -15.0000 52.3299 0.0000
v  -4.1415 70.0000 10.0000
v  -4.1415 70.0000 1.8431
v  0.0000 70.0000 1.8431
v  0.0000 70.0000 10.0000
v  -4.1415 66.5282 1.8431
v  0.0000 66.5282 1.8431
v  -4.1415 66.4371 1.7520
v  0.0000 66.4371 1.7520
v  -4.1415 66.4371 1.3794
v  0.0000 66.4371 1.3794
v  -4.1415 66.0423 0.9845
v  0.0000 66.0423 0.9845
v  -4.1415 64.1173 0.9846
v  0.0000 64.1173 0.9845
v  -4.1415 63.6313 0.4986
v  0.0000 63.6313 0.4986
v  -4.1415 63.6313 0.0000
v  0.0000 63.6313 0.0000
v  -4.1415 54.3037 0.0001
v  0.0000 54.3037 0.0000
v  -4.1415 4.6424 0.0001
v  -4.1415 4.6424 1.3358
v  0.0000 4.6424 1.3358
v  0.0000 4.6424 0.0000
v  -4.1415 1.0401 1.3358
v  0.0000 1.0401 1.3358
v  -4.1415 1.0401 2.0870
v  0.0000 1.0401 2.0870
v  -4.1415 -0.0000 2.0870
v  0.0000 -0.0000 2.0870
v  -4.1415 -0.0000 3.0423
v  0.0000 -0.0000 3.0423
v  -4.1415 0.0000 10.0001
v  0.0000 0.0000 10.0001
v  -4.1415 20.7117 0.0000
v  0.0000 20.7117 0.0000
v  -4.1415 54.3037 1.7354
v  -4.1415 20.7117 1.7354
v  -5.3803 52.3299 1.7354
v  -5.3803 22.6855 1.7354
v  -5.3803 52.3299 0.0000
v  -5.3803 22.6855 0.0000
# 108 vertices

vn -0.0000 -1.0000 0.0000
vn -0.0000 -0.7071 0.7071
vn -0.0000 -0.3827 0.9239
vn -0.0000 -0.9239 0.3827
vn -0.0000 -0.3826 0.9239
vn -0.0000 -0.9239 0.3826
vn -0.0000 0.0000 1.0000
vn -0.3015 0.3015 0.9045
vn -0.0000 0.7071 0.7071
vn 0.0000 1.0000 -0.0000
vn -0.0000 1.0000 -0.0000
vn -0.3015 -0.3015 0.9045
vn -0.5774 -0.5774 0.5774
vn -0.5774 0.5773 0.5774
vn 0.3015 0.3015 0.9045
vn 0.3015 -0.3015 0.9045
vn 0.7071 0.7071 -0.0000
vn 0.7071 -0.7071 0.0000
vn 0.0000 -0.7071 0.7071
vn 0.0000 -0.3827 0.9239
vn 0.0000 -0.9239 0.3827
vn 0.0000 -0.9239 0.3826
vn 0.0000 -0.3826 0.9239
vn 0.0000 0.0000 1.0000
vn 0.0000 0.7071 0.7071
vn 0.5773 0.5773 0.5774
vn 0.5773 -0.5774 0.5774
vn -0.7071 -0.7071 -0.0000
vn -0.7071 0.7071 -0.0000
# 29 vertex normals

vt 0.5817 0.8334 0.0000
vt 0.5160 0.8334 0.0000
vt 0.5160 0.9628 0.0000
vt 0.5817 0.9628 0.0000
vt 0.8739 0.0756 0.0000
vt 0.8739 0.0079 0.0000
vt 0.9305 0.0079 0.0000
vt 0.9305 0.0756 0.0000
vt 0.9320 0.0079 0.0000
vt 0.9320 0.0756 0.0000
vt 0.9381 0.0079 0.0000
vt 0.9381 0.0756 0.0000
vt 0.9446 0.0079 0.0000
vt 0.9446 0.0756 0.0000
vt 0.9760 0.0079 0.0000
vt 0.9760 0.0756 0.0000
vt 0.9839 0.0079 0.0000
vt 0.9839 0.0756 0.0000
vt 0.9920 0.0079 0.0000
vt 0.9920 0.0756 0.0000
vt 0.0079 0.0599 0.0000
vt 0.0079 0.0079 0.0000
vt 0.1250 0.0079 0.0000
vt 0.1250 0.0599 0.0000
vt 0.7640 0.0755 0.0000
vt 0.7640 0.0079 0.0000
vt 0.7858 0.0079 0.0000
vt 0.7858 0.0755 0.0000
vt 0.8446 0.0079 0.0000
vt 0.8446 0.0755 0.0000
vt 0.8569 0.0079 0.0000
vt 0.8569 0.0755 0.0000
vt 0.8739 0.0755 0.0000
vt 0.0737 0.9589 0.0000
vt 0.0079 0.9589 0.0000
vt 0.0079 0.9438 0.0000
vt 0.0737 0.9438 0.0000
vt 0.0079 0.8334 0.0000
vt 0.0737 0.8334 0.0000
vt 0.5466 0.0079 0.0000
vt 0.5466 0.0599 0.0000
vt 0.7483 0.0079 0.0000
vt 0.7483 0.0599 0.0000
vt 0.7483 0.1962 0.0000
vt 0.5466 0.1962 0.0000
vt 0.0079 0.4016 0.0000
vt 0.4337 0.4016 0.0000
vt 0.4337 0.4236 0.0000
vt 0.0079 0.4236 0.0000
vt 0.2832 0.4236 0.0000
vt 0.1456 0.4236 0.0000
vt 0.1456 0.4016 0.0000
vt 0.2832 0.4016 0.0000
vt 0.0079 0.4747 0.0000
vt 0.4337 0.4747 0.0000
vt 0.4087 0.4904 0.0000
vt 0.0330 0.4904 0.0000
vt 0.2675 0.4251 0.0000
vt 0.4051 0.4251 0.0000
vt 0.4051 0.4501 0.0000
vt 0.2832 0.4501 0.0000
vt 0.3837 0.4016 0.0000
vt 0.3837 0.4236 0.0000
vt 0.2518 0.4236 0.0000
vt 0.1299 0.4236 0.0000
vt 0.1299 0.4016 0.0000
vt 0.2518 0.4016 0.0000
vt 0.7540 0.8334 0.0000
vt 0.7540 0.9628 0.0000
vt 0.8739 0.2528 0.0000
vt 0.9305 0.2528 0.0000
vt 0.9320 0.2528 0.0000
vt 0.9381 0.2528 0.0000
vt 0.9446 0.2528 0.0000
vt 0.9760 0.2528 0.0000
vt 0.9839 0.2528 0.0000
vt 0.9920 0.2528 0.0000
vt 0.0079 0.1962 0.0000
vt 0.1250 0.1962 0.0000
vt 0.7640 0.2528 0.0000
vt 0.7858 0.2528 0.0000
vt 0.8446 0.2528 0.0000
vt 0.8569 0.2528 0.0000
vt 0.2459 0.9589 0.0000
vt 0.2459 0.9438 0.0000
vt 0.2459 0.8334 0.0000
vt 0.1456 0.4501 0.0000
vt 0.0079 0.4501 0.0000
vt 0.0236 0.4251 0.0000
vt 0.1456 0.4251 0.0000
vt 0.9263 0.8334 0.0000
vt 0.9263 0.9628 0.0000
vt 0.9921 0.9628 0.0000
vt 0.9920 0.8334 0.0000
vt 0.8739 0.4301 0.0000
vt 0.9305 0.4301 0.0000
vt 0.9305 0.4977 0.0000
vt 0.8739 0.4977 0.0000
vt 0.9320 0.4301 0.0000
vt 0.9320 0.4977 0.0000
vt 0.9381 0.4301 0.0000
vt 0.9381 0.4977 0.0000
vt 0.9446 0.4301 0.0000
vt 0.9446 0.4977 0.0000
vt 0.9760 0.4301 0.0000
vt 0.9760 0.4977 0.0000
vt 0.9839 0.4301 0.0000
vt 0.9839 0.4977 0.0000
vt 0.9920 0.4301 0.0000
vt 0.9920 0.4977 0.0000
vt 0.0079 0.3325 0.0000
vt 0.1250 0.3325 0.0000
vt 0.1250 0.3845 0.0000
vt 0.0079 0.3845 0.0000
vt 0.7640 0.4301 0.0000
vt 0.7858 0.4301 0.0000
vt 0.7858 0.4977 0.0000
vt 0.7640 0.4977 0.0000
vt 0.8446 0.4301 0.0000
vt 0.8446 0.4977 0.0000
vt 0.8569 0.4301 0.0000
vt 0.8569 0.4977 0.0000
vt 0.4182 0.9589 0.0000
vt 0.4182 0.9438 0.0000
vt 0.4840 0.9438 0.0000
vt 0.4840 0.9589 0.0000
vt 0.4182 0.8334 0.0000
vt 0.4840 0.8334 0.0000
vt 0.5466 0.3325 0.0000
vt 0.5466 0.3845 0.0000
vt 0.7483 0.3325 0.0000
vt 0.7483 0.3845 0.0000
vt 0.0079 0.5061 0.0000
vt 0.4337 0.5061 0.0000
vt 0.5428 0.4251 0.0000
vt 0.5271 0.4501 0.0000
# 136 texture coords

o window
g window
s 1
f 1/1/1 2/2/1 3/3/2 4/4/2 
s 2
f 4/5/2 3/6/2 5/7/3 6/8/3 
s 1
f 6/8/3 5/7/3 7/9/4 8/10/4 
s 2
f 8/10/4 7/9/4 9/11/4 10/12/4 
s 1
f 10/12/4 9/11/4 11/13/5 12/14/3 
s 2
f 12/14/3 11/13/5 13/15/3 14/16/3 
s 1
f 14/16/3 13/15/3 15/17/6 16/18/4 
s 2
f 16/18/4 15/17/6 17/19/2 18/20/2 
s 1
f 18/21/2 17/22/2 19/23/7 20/24/8 
s 2
f 21/25/9 22/26/9 23/27/9 24/28/9 
s 1
f 24/28/9 23/27/9 25/29/9 26/30/9 
s 2
f 26/30/9 25/29/9 27/31/9 28/32/9 
s 1
f 28/32/9 27/31/9 29/6/9 30/33/9 
s 2
f 30/34/9 29/35/9 31/36/10 32/37/11 
f 32/37/11 31/36/10 33/38/10 34/39/10 
s 1
f 19/23/7 35/40/7 36/41/12 20/24/8 
f 35/40/7 22/42/9 21/43/9 36/41/12 
f 36/41/12 21/43/9 37/44/9 38/45/2 
s off
f 20/46/8 36/47/12 39/48/13 40/49/14 
f 36/50/12 38/51/2 41/52/2 39/53/13 
f 40/54/14 39/55/13 42/56/15 43/57/16 
f 39/58/13 41/59/2 44/60/9 42/61/15 
f 43/46/16 42/62/15 45/63/17 46/49/18 
f 42/64/15 44/65/9 47/66/10 45/67/17 
s 1
f 48/68/1 1/1/1 4/4/2 49/69/2 
s 2
f 49/70/2 4/5/2 6/8/3 50/71/3 
s 1
f 50/71/3 6/8/3 8/10/4 51/72/4 
s 2
f 51/72/4 8/10/4 10/12/4 52/73/4 
s 1
f 52/73/4 10/12/4 12/14/3 53/74/3 
s 2
f 53/74/3 12/14/3 14/16/3 54/75/3 
s 1
f 54/75/3 14/16/3 16/18/4 55/76/6 
s 2
f 55/76/6 16/18/4 18/20/2 56/77/2 
s 1
f 56/78/2 18/21/2 20/24/8 57/79/9 
s 2
f 37/80/9 21/25/9 24/28/9 58/81/9 
s 1
f 58/81/9 24/28/9 26/30/9 59/82/9 
s 2
f 59/82/9 26/30/9 28/32/9 60/83/9 
s 1
f 60/83/9 28/32/9 30/33/9 61/70/9 
s 2
f 61/84/9 30/34/9 32/37/11 62/85/10 
f 62/85/10 32/37/11 34/39/10 63/86/10 
s off
f 57/52/9 20/53/8 40/50/14 64/51/9 
f 64/87/9 40/88/14 43/89/16 65/90/2 
f 65/66/2 43/67/16 46/64/18 66/65/1 
s 1
f 67/91/1 68/92/19 69/93/19 70/94/1 
s 2
f 68/95/19 71/96/20 72/97/20 69/98/19 
s 1
f 71/96/20 73/99/21 74/100/21 72/97/20 
s 2
f 73/99/21 75/101/22 76/102/21 74/100/21 
s 1
f 75/101/22 77/103/20 78/104/23 76/102/21 
s 2
f 77/103/20 79/105/20 80/106/20 78/104/23 
s 1
f 79/105/20 81/107/21 82/108/22 80/106/20 
s 2
f 81/107/21 83/109/19 84/110/19 82/108/22 
s 1
f 83/111/19 85/112/15 86/113/24 84/114/19 
s 2
f 87/115/25 88/116/25 89/117/25 90/118/25 
s 1
f 88/116/25 91/119/25 92/120/25 89/117/25 
s 2
f 91/119/25 93/121/25 94/122/25 92/120/25 
s 1
f 93/121/25 95/95/25 96/98/25 94/122/25 
s 2
f 95/123/25 97/124/10 98/125/11 96/126/25 
f 97/124/10 99/127/11 100/128/11 98/125/11 
s 1
f 86/113/24 85/112/15 101/129/16 102/130/24 
f 102/130/24 101/129/16 87/131/25 90/132/25 
f 101/129/16 38/45/2 37/44/9 87/131/25 
s off
f 85/49/15 103/46/26 104/47/27 101/48/16 
f 101/49/16 104/46/27 41/52/2 38/51/2 
f 103/133/26 105/57/12 106/56/8 104/134/27 
f 104/135/27 106/136/8 44/60/9 41/59/2 
f 105/49/12 107/46/28 108/62/29 106/63/8 
f 106/49/8 108/46/29 47/66/10 44/65/9 
s 1
f 48/68/1 49/69/2 68/92/19 67/91/1 
s 2
f 49/70/2 50/71/3 71/96/20 68/95/19 
s 1
f 50/71/3 51/72/4 73/99/21 71/96/20 
s 2
f 51/72/4 52/73/4 75/101/22 73/99/21 
s 1
f 52/73/4 53/74/3 77/103/20 75/101/22 
s 2
f 53/74/3 54/75/3 79/105/20 77/103/20 
s 1
f 54/75/3 55/76/6 81/107/21 79/105/20 
s 2
f 55/76/6 56/77/2 83/109/19 81/107/21 
s 1
f 56/78/2 57/79/9 85/112/15 83/111/19 
s 2
f 37/80/9 58/81/9 88/116/25 87/115/25 
s 1
f 58/81/9 59/82/9 91/119/25 88/116/25 
s 2
f 59/82/9 60/83/9 93/121/25 91/119/25 
s 1
f 60/83/9 61/70/9 95/95/25 93/121/25 
s 2
f 61/84/9 62/85/10 97/124/10 95/123/25 
f 62/85/10 63/86/10 99/127/11 97/124/10 
s off
f 57/52/9 64/51/9 103/49/26 85/46/15 
f 64/87/9 65/90/2 105/58/12 103/61/26 
f 65/66/2 66/65/1 107/49/28 105/46/12 
# 84 polygons

