# 3ds Max Wavefront OBJ Exporter v0.97b - (c)2007 guruware
# File Created: 01.04.2019 12:29:33

#
# object window
#

v  -30.0000 69.9900 10.0000
v  -30.0000 69.9929 1.8502
v  -25.8585 69.9929 1.8502
v  -25.8585 69.9900 10.0000
v  -30.0000 66.5244 1.8524
v  -25.8585 66.5244 1.8524
v  -30.0000 66.4279 1.7558
v  -25.8585 66.4279 1.7558
v  -30.0000 66.4279 1.3832
v  -25.8585 66.4279 1.3832
v  -30.0000 66.0384 0.9938
v  -25.8585 66.0384 0.9938
v  -30.0000 64.1134 0.9938
v  -25.8585 64.1134 0.9938
v  -30.0000 63.6221 0.5024
v  -25.8585 63.6221 0.5024
v  -30.0000 63.6242 0.0071
v  -25.8585 63.6242 0.0071
v  -30.0000 54.3037 0.0100
v  -25.8615 54.3067 0.0091
v  -30.0000 4.6494 0.0071
v  -30.0000 4.6494 1.3428
v  -25.8585 4.6494 1.3429
v  -25.8585 4.6494 0.0071
v  -30.0000 1.0472 1.3429
v  -25.8585 1.0472 1.3429
v  -30.0000 1.0472 2.0940
v  -25.8585 1.0472 2.0940
v  -30.0000 0.0071 2.0940
v  -25.8585 0.0071 2.0940
v  -30.0000 0.0100 3.0423
v  -25.8585 0.0100 3.0423
v  -30.0000 0.0100 10.0000
v  -25.8585 0.0100 10.0000
v  -30.0000 20.7117 0.0100
v  -25.8615 20.7086 0.0091
v  -15.0000 4.6494 0.0071
v  -15.0000 20.7046 0.0071
v  -25.8643 20.7059 1.7412
v  -25.8643 54.3095 1.7412
v  -15.0000 20.7046 1.7425
v  -24.6167 22.6885 1.7444
v  -24.6167 52.3268 1.7444
v  -15.0000 22.6926 1.7425
v  -24.6126 22.6925 0.0000
v  -24.6126 52.3228 0.0000
v  -15.0000 22.6955 0.0000
v  -15.0000 69.9929 1.8502
v  -15.0000 69.9900 10.0000
v  -15.0000 66.5244 1.8524
v  -15.0000 66.4279 1.7558
v  -15.0000 66.4279 1.3832
v  -15.0000 66.0384 0.9938
v  -15.0000 64.1134 0.9938
v  -15.0000 63.6221 0.5024
v  -15.0000 63.6242 0.0071
v  -15.0000 54.3108 0.0071
v  -15.0000 4.6494 1.3429
v  -15.0000 1.0472 1.3429
v  -15.0000 1.0472 2.0940
v  -15.0000 0.0071 2.0940
v  -15.0000 0.0100 3.0423
v  -15.0000 0.0100 10.0001
v  -15.0000 54.3108 1.7425
v  -15.0000 52.3228 1.7425
v  -15.0000 52.3199 0.0000
v  0.0000 69.9900 10.0000
v  -4.1415 69.9900 10.0000
v  -4.1415 69.9929 1.8502
v  0.0000 69.9929 1.8502
v  -4.1415 66.5244 1.8524
v  0.0000 66.5244 1.8524
v  -4.1415 66.4279 1.7558
v  0.0000 66.4279 1.7558
v  -4.1415 66.4279 1.3832
v  0.0000 66.4279 1.3832
v  -4.1415 66.0384 0.9938
v  0.0000 66.0384 0.9938
v  -4.1415 64.1134 0.9938
v  0.0000 64.1134 0.9938
v  -4.1415 63.6221 0.5024
v  0.0000 63.6221 0.5024
v  -4.1415 63.6242 0.0071
v  0.0000 63.6242 0.0071
v  -4.1385 54.3067 0.0091
v  0.0000 54.3037 0.0100
v  0.0000 4.6494 0.0071
v  -4.1415 4.6494 0.0071
v  -4.1415 4.6494 1.3429
v  0.0000 4.6494 1.3429
v  -4.1415 1.0472 1.3429
v  0.0000 1.0472 1.3429
v  -4.1415 1.0472 2.0941
v  0.0000 1.0472 2.0940
v  -4.1415 0.0071 2.0941
v  0.0000 0.0071 2.0940
v  -4.1415 0.0100 3.0423
v  0.0000 0.0100 3.0423
v  -4.1415 0.0100 10.0001
v  0.0000 0.0100 10.0001
v  0.0000 20.7117 0.0100
v  -4.1385 20.7086 0.0091
v  -4.1357 54.3095 1.7412
v  -4.1357 20.7059 1.7412
v  -5.3833 52.3268 1.7445
v  -5.3833 22.6885 1.7444
v  -5.3873 52.3228 0.0000
v  -5.3874 22.6925 0.0000
v  -25.8585 70.0000 1.8431
v  -30.0000 70.0000 1.8431
v  -30.0000 70.0000 10.0000
v  -25.8585 70.0000 10.0000
v  -25.8585 66.5282 1.8431
v  -30.0000 66.5282 1.8431
v  -25.8585 66.4371 1.7520
v  -30.0000 66.4371 1.7520
v  -25.8585 66.4371 1.3794
v  -30.0000 66.4371 1.3794
v  -25.8585 66.0423 0.9845
v  -30.0000 66.0423 0.9845
v  -25.8585 64.1173 0.9845
v  -30.0000 64.1173 0.9845
v  -25.8585 63.6313 0.4986
v  -30.0000 63.6313 0.4985
v  -25.8585 63.6313 0.0000
v  -30.0000 63.6313 0.0000
v  -25.8585 54.3037 0.0000
v  -30.0000 54.3037 0.0000
v  -25.8585 4.6424 1.3358
v  -30.0000 4.6424 1.3358
v  -30.0000 4.6424 0.0000
v  -25.8585 4.6424 0.0000
v  -25.8585 1.0401 1.3358
v  -30.0000 1.0401 1.3358
v  -25.8585 1.0401 2.0870
v  -30.0000 1.0401 2.0870
v  -25.8585 -0.0000 2.0870
v  -30.0000 -0.0000 2.0870
v  -25.8585 -0.0000 3.0423
v  -30.0000 -0.0000 3.0423
v  -25.8585 0.0000 10.0000
v  -30.0000 0.0000 10.0000
v  -25.8585 20.7117 0.0000
v  -30.0000 20.7117 0.0000
v  -15.0000 20.7117 0.0000
v  -15.0000 4.6424 0.0000
v  -25.8585 20.7117 1.7354
v  -25.8585 54.3037 1.7354
v  -15.0000 20.7117 1.7354
v  -24.6197 22.6855 1.7354
v  -24.6197 52.3299 1.7354
v  -15.0000 22.6855 1.7354
v  -24.6197 22.6855 0.0000
v  -24.6197 52.3299 0.0000
v  -15.0000 22.6855 0.0000
v  -15.0000 70.0000 1.8431
v  -15.0000 70.0000 10.0000
v  -15.0000 66.5282 1.8431
v  -15.0000 66.4371 1.7520
v  -15.0000 66.4371 1.3794
v  -15.0000 66.0423 0.9845
v  -15.0000 64.1173 0.9845
v  -15.0000 63.6313 0.4986
v  -15.0000 63.6313 0.0000
v  -15.0000 54.3037 0.0000
v  -15.0000 4.6424 1.3358
v  -15.0000 1.0401 1.3358
v  -15.0000 1.0401 2.0870
v  -15.0000 0.0000 2.0870
v  -15.0000 0.0000 3.0423
v  -15.0000 0.0000 10.0001
v  -15.0000 54.3037 1.7354
v  -15.0000 52.3299 1.7354
v  -15.0000 52.3299 0.0000
v  -4.1415 70.0000 1.8431
v  -4.1415 70.0000 10.0000
v  0.0000 70.0000 10.0000
v  0.0000 70.0000 1.8431
v  -4.1415 66.5282 1.8431
v  0.0000 66.5282 1.8431
v  -4.1415 66.4371 1.7520
v  0.0000 66.4371 1.7520
v  -4.1415 66.4371 1.3794
v  0.0000 66.4371 1.3794
v  -4.1415 66.0423 0.9845
v  0.0000 66.0423 0.9845
v  -4.1415 64.1173 0.9846
v  0.0000 64.1173 0.9845
v  -4.1415 63.6313 0.4986
v  0.0000 63.6313 0.4986
v  -4.1415 63.6313 0.0000
v  0.0000 63.6313 0.0000
v  -4.1415 54.3037 0.0001
v  0.0000 54.3037 0.0000
v  -4.1415 4.6424 1.3358
v  -4.1415 4.6424 0.0001
v  0.0000 4.6424 0.0000
v  0.0000 4.6424 1.3358
v  -4.1415 1.0401 1.3358
v  0.0000 1.0401 1.3358
v  -4.1415 1.0401 2.0870
v  0.0000 1.0401 2.0870
v  -4.1415 -0.0000 2.0870
v  0.0000 -0.0000 2.0870
v  -4.1415 -0.0000 3.0423
v  0.0000 -0.0000 3.0423
v  -4.1415 0.0000 10.0001
v  0.0000 0.0000 10.0001
v  0.0000 20.7117 0.0000
v  -4.1415 20.7117 0.0000
v  -4.1415 20.7117 1.7354
v  -4.1415 54.3037 1.7354
v  -5.3803 22.6855 1.7354
v  -5.3803 52.3299 1.7354
v  -5.3803 22.6855 0.0000
v  -5.3803 52.3299 0.0000
# 216 vertices

vn -0.5773 -0.5775 0.5773
vn -0.9046 -0.3013 0.3014
vn -0.0000 -0.7070 0.7072
vn -0.0000 -0.7072 0.7070
vn -0.6302 -0.2969 0.7174
vn -0.0000 -0.3824 0.9240
vn -0.6303 -0.7173 0.2971
vn -0.0000 -0.9239 0.3827
vn -0.8042 -0.5491 0.2275
vn -0.8042 -0.2275 0.5491
vn -0.0000 -0.3827 0.9239
vn -0.6302 -0.2972 0.7173
vn -0.6299 -0.7182 0.2956
vn -0.0000 -0.9247 0.3807
vn -0.9051 -0.3013 0.3001
vn -0.0000 -0.7086 0.7056
vn -0.7070 0.0001 0.7072
vn -0.3020 0.3022 0.9042
vn -0.9046 0.3015 0.3015
vn -0.5774 0.5773 0.5774
vn -0.0000 0.7071 0.7071
vn -0.0000 0.7071 0.7072
vn -0.9045 0.3015 0.3015
vn -0.5774 0.5773 0.5773
vn -0.9049 0.3014 0.3005
vn -0.0000 0.7082 0.7060
vn -0.7068 0.7075 -0.0011
vn -0.0000 1.0000 -0.0015
vn -0.5774 0.5774 0.5773
vn -0.7070 -0.0001 0.7072
vn -0.3020 -0.3022 0.9042
vn -0.5780 -0.5779 0.5761
vn -0.5780 0.5780 0.5761
vn -0.0000 -0.7071 0.7071
vn 0.2996 0.3002 0.9056
vn 0.2996 -0.3002 0.9056
vn -0.0000 0.7067 0.7075
vn 0.3022 0.3023 -0.9041
vn 0.3022 -0.3023 -0.9041
vn 0.0000 0.7077 -0.7065
vn -0.0000 -0.9247 0.3806
vn -0.0000 -0.7087 0.7056
vn -0.0000 0.7070 0.7072
vn 0.0000 1.0000 -0.0015
vn -0.0000 -0.7067 0.7075
vn 0.0000 -0.7077 -0.7065
vn 0.5773 -0.5775 0.5773
vn 0.0000 -0.7072 0.7070
vn 0.0000 -0.7070 0.7072
vn 0.9046 -0.3013 0.3014
vn 0.0000 -0.3824 0.9240
vn 0.6302 -0.2969 0.7174
vn 0.0000 -0.9239 0.3827
vn 0.6303 -0.7173 0.2971
vn 0.8042 -0.5491 0.2275
vn 0.0000 -0.3827 0.9239
vn 0.8042 -0.2275 0.5491
vn 0.6302 -0.2972 0.7173
vn 0.0000 -0.9247 0.3807
vn 0.6299 -0.7182 0.2956
vn 0.0000 -0.7086 0.7056
vn 0.9051 -0.3013 0.3001
vn 0.3020 0.3022 0.9042
vn 0.7070 0.0001 0.7072
vn 0.9046 0.3015 0.3015
vn 0.0000 0.7071 0.7072
vn 0.0000 0.7071 0.7071
vn 0.5774 0.5773 0.5774
vn 0.9045 0.3015 0.3015
vn 0.0000 0.7082 0.7060
vn 0.9049 0.3014 0.3005
vn 0.7068 0.7075 -0.0011
vn 0.5774 0.5774 0.5773
vn 0.7070 -0.0001 0.7072
vn 0.3020 -0.3022 0.9042
vn 0.5780 0.5780 0.5761
vn 0.5780 -0.5779 0.5761
vn -0.2996 -0.3002 0.9056
vn -0.2996 0.3002 0.9056
vn -0.3022 -0.3023 -0.9041
vn -0.3022 0.3023 -0.9041
vn 0.0000 0.7071 -0.7071
vn -0.5773 0.5774 -0.5774
vn 0.0000 0.3827 -0.9239
vn -0.8042 0.2275 -0.5491
vn 0.0000 0.9239 -0.3827
vn -0.8042 0.5491 -0.2275
vn -0.6302 0.7173 -0.2972
vn -0.6303 0.2971 -0.7173
vn -0.8042 0.2275 -0.5492
vn -0.8042 0.5491 -0.2274
vn -0.5773 0.5774 -0.5773
vn 0.3015 -0.3015 -0.9045
vn -0.7071 -0.0000 -0.7071
vn 0.0000 -0.7071 -0.7071
vn -0.9045 -0.3015 -0.3015
vn -0.5773 -0.5773 -0.5774
vn -0.5773 -0.5774 -0.5773
vn 0.0000 -1.0000 0.0000
vn -0.7071 -0.7071 -0.0000
vn -0.5774 -0.5773 0.5773
vn 0.3015 0.3015 -0.9045
vn 0.5774 0.5774 -0.5774
vn 0.5774 -0.5773 -0.5774
vn -0.3015 -0.3015 -0.9045
vn -0.3015 0.3015 -0.9045
vn -0.5774 -0.5774 -0.5773
vn -0.5774 0.5774 -0.5774
vn 0.0000 0.9239 -0.3826
vn -0.0000 -1.0000 0.0000
vn -0.0000 0.7071 -0.7071
vn 0.5773 0.5774 -0.5774
vn -0.0000 0.3827 -0.9239
vn 0.8042 0.2275 -0.5491
vn -0.0000 0.9239 -0.3827
vn 0.8042 0.5491 -0.2275
vn -0.0000 0.9239 -0.3826
vn 0.6302 0.7173 -0.2972
vn 0.6303 0.2971 -0.7173
vn 0.8042 0.2275 -0.5492
vn 0.8042 0.5491 -0.2274
vn 0.5773 0.5774 -0.5773
vn 0.7071 -0.0000 -0.7071
vn -0.0000 -0.7071 -0.7071
vn 0.5773 -0.5773 -0.5774
vn 0.9045 -0.3015 -0.3015
vn 0.5774 -0.5774 -0.5773
vn 0.5774 -0.5774 -0.5774
vn 0.7071 -0.7071 -0.0000
vn 0.0000 -0.7071 0.7071
vn 0.5774 -0.5773 0.5774
vn 0.5774 0.5774 -0.5773
# 132 vertex normals

vt 0.5160 0.8334 0.0000
vt 0.5160 0.9628 0.0000
vt 0.5817 0.9628 0.0000
vt 0.5817 0.8334 0.0000
vt 0.8739 0.0079 0.0000
vt 0.9305 0.0079 0.0000
vt 0.9305 0.0756 0.0000
vt 0.8739 0.0756 0.0000
vt 0.9320 0.0079 0.0000
vt 0.9320 0.0756 0.0000
vt 0.9381 0.0079 0.0000
vt 0.9381 0.0756 0.0000
vt 0.9446 0.0079 0.0000
vt 0.9446 0.0756 0.0000
vt 0.9760 0.0079 0.0000
vt 0.9760 0.0756 0.0000
vt 0.9839 0.0079 0.0000
vt 0.9839 0.0756 0.0000
vt 0.9920 0.0079 0.0000
vt 0.9920 0.0756 0.0000
vt 0.0079 0.0079 0.0000
vt 0.1250 0.0079 0.0000
vt 0.1250 0.0599 0.0000
vt 0.0079 0.0599 0.0000
vt 0.7640 0.0079 0.0000
vt 0.7858 0.0079 0.0000
vt 0.7858 0.0755 0.0000
vt 0.7640 0.0755 0.0000
vt 0.8446 0.0079 0.0000
vt 0.8446 0.0755 0.0000
vt 0.8569 0.0079 0.0000
vt 0.8569 0.0755 0.0000
vt 0.8739 0.0755 0.0000
vt 0.0079 0.9589 0.0000
vt 0.0079 0.9438 0.0000
vt 0.0737 0.9438 0.0000
vt 0.0737 0.9589 0.0000
vt 0.0079 0.8334 0.0000
vt 0.0737 0.8334 0.0000
vt 0.5466 0.0079 0.0000
vt 0.5466 0.0599 0.0000
vt 0.7483 0.0079 0.0000
vt 0.7483 0.0599 0.0000
vt 0.7483 0.1962 0.0000
vt 0.5466 0.1962 0.0000
vt 0.0079 0.4016 0.0000
vt 0.4337 0.4016 0.0000
vt 0.4337 0.4236 0.0000
vt 0.0079 0.4236 0.0000
vt 0.1456 0.4236 0.0000
vt 0.1456 0.4016 0.0000
vt 0.2832 0.4016 0.0000
vt 0.2832 0.4236 0.0000
vt 0.0079 0.4747 0.0000
vt 0.4337 0.4747 0.0000
vt 0.4087 0.4904 0.0000
vt 0.0330 0.4904 0.0000
vt 0.4051 0.4251 0.0000
vt 0.4051 0.4501 0.0000
vt 0.2832 0.4501 0.0000
vt 0.2675 0.4251 0.0000
vt 0.3837 0.4016 0.0000
vt 0.3837 0.4236 0.0000
vt 0.1299 0.4236 0.0000
vt 0.1299 0.4016 0.0000
vt 0.2518 0.4016 0.0000
vt 0.2518 0.4236 0.0000
vt 0.7540 0.9628 0.0000
vt 0.7540 0.8334 0.0000
vt 0.9305 0.2528 0.0000
vt 0.8739 0.2528 0.0000
vt 0.9320 0.2528 0.0000
vt 0.9381 0.2528 0.0000
vt 0.9446 0.2528 0.0000
vt 0.9760 0.2528 0.0000
vt 0.9839 0.2528 0.0000
vt 0.9920 0.2528 0.0000
vt 0.1250 0.1962 0.0000
vt 0.0079 0.1962 0.0000
vt 0.7858 0.2528 0.0000
vt 0.7640 0.2528 0.0000
vt 0.8446 0.2528 0.0000
vt 0.8569 0.2528 0.0000
vt 0.2459 0.9438 0.0000
vt 0.2459 0.9589 0.0000
vt 0.2459 0.8334 0.0000
vt 0.1456 0.4501 0.0000
vt 0.0079 0.4501 0.0000
vt 0.0236 0.4251 0.0000
vt 0.1456 0.4251 0.0000
vt 0.9920 0.8334 0.0000
vt 0.9263 0.8334 0.0000
vt 0.9263 0.9628 0.0000
vt 0.9921 0.9628 0.0000
vt 0.8739 0.4977 0.0000
vt 0.8739 0.4301 0.0000
vt 0.9305 0.4301 0.0000
vt 0.9305 0.4977 0.0000
vt 0.9320 0.4301 0.0000
vt 0.9320 0.4977 0.0000
vt 0.9381 0.4301 0.0000
vt 0.9381 0.4977 0.0000
vt 0.9446 0.4301 0.0000
vt 0.9446 0.4977 0.0000
vt 0.9760 0.4301 0.0000
vt 0.9760 0.4977 0.0000
vt 0.9839 0.4301 0.0000
vt 0.9839 0.4977 0.0000
vt 0.9920 0.4301 0.0000
vt 0.9920 0.4977 0.0000
vt 0.0079 0.3845 0.0000
vt 0.0079 0.3325 0.0000
vt 0.1250 0.3325 0.0000
vt 0.1250 0.3845 0.0000
vt 0.7640 0.4977 0.0000
vt 0.7640 0.4301 0.0000
vt 0.7858 0.4301 0.0000
vt 0.7858 0.4977 0.0000
vt 0.8446 0.4301 0.0000
vt 0.8446 0.4977 0.0000
vt 0.8569 0.4301 0.0000
vt 0.8569 0.4977 0.0000
vt 0.4840 0.9589 0.0000
vt 0.4182 0.9589 0.0000
vt 0.4182 0.9438 0.0000
vt 0.4840 0.9438 0.0000
vt 0.4182 0.8334 0.0000
vt 0.4840 0.8334 0.0000
vt 0.5466 0.3845 0.0000
vt 0.5466 0.3325 0.0000
vt 0.7483 0.3845 0.0000
vt 0.7483 0.3325 0.0000
vt 0.0079 0.5061 0.0000
vt 0.4337 0.5061 0.0000
vt 0.5428 0.4251 0.0000
vt 0.5271 0.4501 0.0000
# 136 texture coords

o window
g window
s 1
f 1/1/1 2/2/2 3/3/3 4/4/4 
s 2
f 2/5/2 5/6/5 6/7/6 3/8/3 
s 1
f 5/6/5 7/9/7 8/10/8 6/7/6 
s 2
f 7/9/7 9/11/9 10/12/8 8/10/8 
s 1
f 9/11/9 11/13/10 12/14/11 10/12/8 
s 2
f 11/13/10 13/15/12 14/16/11 12/14/11 
s 1
f 13/15/12 15/17/13 16/18/14 14/16/11 
s 2
f 15/17/13 17/19/15 18/20/16 16/18/14 
s 1
f 17/21/15 19/22/17 20/23/18 18/24/16 
s 2
f 21/25/19 22/26/20 23/27/21 24/28/22 
s 1
f 22/26/20 25/29/23 26/30/21 23/27/21 
s 2
f 25/29/23 27/31/24 28/32/21 26/30/21 
s 1
f 27/31/24 29/5/25 30/33/26 28/32/21 
s 2
f 29/34/25 31/35/27 32/36/28 30/37/26 
f 31/35/27 33/38/29 34/39/21 32/36/28 
s 1
f 35/40/30 36/41/31 20/23/18 19/22/17 
f 21/42/19 24/43/22 36/41/31 35/40/30 
f 24/43/22 37/44/21 38/45/3 36/41/31 
s off
f 20/46/18 36/47/31 39/48/32 40/49/33 
f 38/50/3 41/51/34 39/52/32 36/53/31 
f 40/54/33 39/55/32 42/56/35 43/57/36 
f 41/58/34 44/59/37 42/60/35 39/61/32 
f 43/46/36 42/62/35 45/63/38 46/49/39 
f 44/64/37 47/65/40 45/66/38 42/67/35 
s 1
f 4/4/4 3/3/3 48/68/3 49/69/4 
s 2
f 3/8/3 6/7/6 50/70/6 48/71/3 
s 1
f 6/7/6 8/10/8 51/72/8 50/70/6 
s 2
f 8/10/8 10/12/8 52/73/8 51/72/8 
s 1
f 10/12/8 12/14/11 53/74/11 52/73/8 
s 2
f 12/14/11 14/16/11 54/75/11 53/74/11 
s 1
f 14/16/11 16/18/14 55/76/41 54/75/11 
s 2
f 16/18/14 18/20/16 56/77/42 55/76/41 
s 1
f 18/24/16 20/23/18 57/78/43 56/79/42 
s 2
f 24/28/22 23/27/21 58/80/21 37/81/21 
s 1
f 23/27/21 26/30/21 59/82/21 58/80/21 
s 2
f 26/30/21 28/32/21 60/83/21 59/82/21 
s 1
f 28/32/21 30/33/26 61/71/26 60/83/21 
s 2
f 30/37/26 32/36/28 62/84/44 61/85/26 
f 32/36/28 34/39/21 63/86/21 62/84/44 
s off
f 20/52/18 40/53/33 64/50/21 57/51/43 
f 64/87/21 40/88/33 43/89/36 65/90/45 
f 43/66/36 46/67/39 66/64/46 65/65/45 
s 1
f 67/91/47 68/92/48 69/93/49 70/94/50 
s 2
f 70/95/50 69/96/49 71/97/51 72/98/52 
s 1
f 72/98/52 71/97/51 73/99/53 74/100/54 
s 2
f 74/100/54 73/99/53 75/101/53 76/102/55 
s 1
f 76/102/55 75/101/53 77/103/56 78/104/57 
s 2
f 78/104/57 77/103/56 79/105/56 80/106/58 
s 1
f 80/106/58 79/105/56 81/107/59 82/108/60 
s 2
f 82/108/60 81/107/59 83/109/61 84/110/62 
s 1
f 84/111/62 83/112/61 85/113/63 86/114/64 
s 2
f 87/115/65 88/116/66 89/117/67 90/118/68 
s 1
f 90/118/68 89/117/67 91/119/67 92/120/69 
s 2
f 92/120/69 91/119/67 93/121/67 94/122/68 
s 1
f 94/122/68 93/121/67 95/96/70 96/95/71 
s 2
f 96/123/71 95/124/70 97/125/44 98/126/72 
f 98/126/72 97/125/44 99/127/67 100/128/73 
s 1
f 101/129/74 86/114/64 85/113/63 102/130/75 
f 87/131/65 101/129/74 102/130/75 88/132/66 
f 88/132/66 102/130/75 38/45/3 37/44/21 
s off
f 85/49/63 103/46/76 104/47/77 102/48/75 
f 38/50/3 102/49/75 104/46/77 41/51/34 
f 103/133/76 105/57/78 106/56/79 104/134/77 
f 41/58/34 104/135/77 106/136/79 44/59/37 
f 105/49/78 107/46/80 108/62/81 106/63/79 
f 44/64/37 106/49/79 108/46/81 47/65/40 
s 1
f 68/92/48 49/69/4 48/68/3 69/93/49 
s 2
f 69/96/49 48/71/3 50/70/6 71/97/51 
s 1
f 71/97/51 50/70/6 51/72/8 73/99/53 
s 2
f 73/99/53 51/72/8 52/73/8 75/101/53 
s 1
f 75/101/53 52/73/8 53/74/11 77/103/56 
s 2
f 77/103/56 53/74/11 54/75/11 79/105/56 
s 1
f 79/105/56 54/75/11 55/76/41 81/107/59 
s 2
f 81/107/59 55/76/41 56/77/42 83/109/61 
s 1
f 83/112/61 56/79/42 57/78/43 85/113/63 
s 2
f 88/116/66 37/81/21 58/80/21 89/117/67 
s 1
f 89/117/67 58/80/21 59/82/21 91/119/67 
s 2
f 91/119/67 59/82/21 60/83/21 93/121/67 
s 1
f 93/121/67 60/83/21 61/71/26 95/96/70 
s 2
f 95/124/70 61/85/26 62/84/44 97/125/44 
f 97/125/44 62/84/44 63/86/21 99/127/67 
s off
f 85/46/63 57/51/43 64/50/21 103/49/76 
f 64/87/21 65/90/45 105/61/78 103/60/76 
f 105/46/78 65/65/45 66/64/46 107/49/80 
s 1
f 109/3/82 110/2/83 111/1/24 112/4/21 
s 2
f 113/7/84 114/6/85 110/5/83 109/8/82 
s 1
f 115/10/86 116/9/87 114/6/85 113/7/84 
s 2
f 117/12/86 118/11/88 116/9/87 115/10/86 
s 1
f 119/14/84 120/13/89 118/11/88 117/12/86 
s 2
f 121/16/84 122/15/90 120/13/89 119/14/84 
s 1
f 123/18/86 124/17/91 122/15/90 121/16/84 
s 2
f 125/20/82 126/19/92 124/17/91 123/18/86 
s 1
f 127/23/93 128/22/94 126/21/92 125/24/82 
s 2
f 129/27/95 130/26/96 131/25/97 132/28/95 
s 1
f 133/30/95 134/29/97 130/26/96 129/27/95 
s 2
f 135/32/95 136/31/96 134/29/97 133/30/95 
s 1
f 137/33/95 138/5/98 136/31/96 135/32/95 
s 2
f 139/36/99 140/35/100 138/34/98 137/37/95 
f 141/39/34 142/38/101 140/35/100 139/36/99 
s 1
f 127/23/93 143/41/102 144/40/94 128/22/94 
f 143/41/102 132/43/95 131/42/97 144/40/94 
f 145/45/82 146/44/95 132/43/95 143/41/102 
s off
f 147/48/103 143/47/102 127/46/93 148/49/104 
f 147/52/103 149/51/82 145/50/82 143/53/102 
f 150/56/105 147/55/103 148/54/104 151/57/106 
f 150/60/105 152/59/95 149/58/82 147/61/103 
f 153/63/107 150/62/105 151/46/106 154/49/108 
f 153/66/107 155/65/95 152/64/95 150/67/105 
s 1
f 156/68/82 109/3/82 112/4/21 157/69/21 
s 2
f 158/70/84 113/7/84 109/8/82 156/71/82 
s 1
f 159/72/86 115/10/86 113/7/84 158/70/84 
s 2
f 160/73/86 117/12/86 115/10/86 159/72/86 
s 1
f 161/74/84 119/14/84 117/12/86 160/73/86 
s 2
f 162/75/84 121/16/84 119/14/84 161/74/84 
s 1
f 163/76/109 123/18/86 121/16/84 162/75/84 
s 2
f 164/77/82 125/20/82 123/18/86 163/76/109 
s 1
f 165/78/95 127/23/93 125/24/82 164/79/82 
s 2
f 166/80/95 129/27/95 132/28/95 146/81/95 
s 1
f 167/82/95 133/30/95 129/27/95 166/80/95 
s 2
f 168/83/95 135/32/95 133/30/95 167/82/95 
s 1
f 169/71/95 137/33/95 135/32/95 168/83/95 
s 2
f 170/84/110 139/36/99 137/37/95 169/85/95 
f 171/86/34 141/39/34 139/36/99 170/84/110 
s off
f 172/50/95 148/53/104 127/52/93 165/51/95 
f 151/89/106 148/88/104 172/87/95 173/90/82 
f 174/64/82 154/67/108 151/66/106 173/65/82 
s 1
f 175/93/111 176/92/67 177/91/68 178/94/112 
s 2
f 179/97/113 175/96/111 178/95/112 180/98/114 
s 1
f 181/99/115 179/97/113 180/98/114 182/100/116 
s 2
f 183/101/117 181/99/115 182/100/116 184/102/118 
s 1
f 185/103/113 183/101/117 184/102/118 186/104/119 
s 2
f 187/105/113 185/103/113 186/104/119 188/106/120 
s 1
f 189/107/115 187/105/113 188/106/120 190/108/121 
s 2
f 191/109/111 189/107/115 190/108/121 192/110/122 
s 1
f 193/113/105 191/112/111 192/111/122 194/114/123 
s 2
f 195/117/124 196/116/124 197/115/125 198/118/126 
s 1
f 199/119/124 195/117/124 198/118/126 200/120/127 
s 2
f 201/121/124 199/119/124 200/120/127 202/122/126 
s 1
f 203/96/124 201/121/124 202/122/126 204/95/128 
s 2
f 205/125/110 203/124/124 204/123/128 206/126/129 
f 207/127/130 205/125/110 206/126/129 208/128/131 
s 1
f 193/113/105 194/114/123 209/129/123 210/130/106 
f 210/130/106 209/129/123 197/131/125 196/132/124 
f 145/45/82 210/130/106 196/132/124 146/44/95 
s off
f 211/47/83 212/46/97 193/49/105 210/48/106 
f 211/46/83 210/49/106 145/50/82 149/51/82 
f 213/56/93 214/57/102 212/133/97 211/134/83 
f 213/136/93 211/135/83 149/58/82 152/59/95 
f 215/62/127 216/46/132 214/49/102 213/63/93 
f 215/46/127 213/49/93 152/64/95 155/65/95 
s 1
f 156/68/82 157/69/21 176/92/67 175/93/111 
s 2
f 158/70/84 156/71/82 175/96/111 179/97/113 
s 1
f 159/72/86 158/70/84 179/97/113 181/99/115 
s 2
f 160/73/86 159/72/86 181/99/115 183/101/117 
s 1
f 161/74/84 160/73/86 183/101/117 185/103/113 
s 2
f 162/75/84 161/74/84 185/103/113 187/105/113 
s 1
f 163/76/109 162/75/84 187/105/113 189/107/115 
s 2
f 164/77/82 163/76/109 189/107/115 191/109/111 
s 1
f 165/78/95 164/79/82 191/112/111 193/113/105 
s 2
f 166/80/95 146/81/95 196/116/124 195/117/124 
s 1
f 167/82/95 166/80/95 195/117/124 199/119/124 
s 2
f 168/83/95 167/82/95 199/119/124 201/121/124 
s 1
f 169/71/95 168/83/95 201/121/124 203/96/124 
s 2
f 170/84/110 169/85/95 203/124/124 205/125/110 
f 171/86/34 170/84/110 205/125/110 207/127/130 
s off
f 172/50/95 165/51/95 193/46/105 212/49/97 
f 214/61/102 173/90/82 172/87/95 212/60/97 
f 174/64/82 173/65/82 214/46/102 216/49/132 
s 4
f 2/2/2 1/1/1 111/1/24 110/2/83 
s 2
f 1/1/1 4/4/4 112/4/21 111/1/24 
s 4
f 5/6/5 2/5/2 110/5/83 114/6/85 
f 7/9/7 5/6/5 114/6/85 116/9/87 
f 9/11/9 7/9/7 116/9/87 118/11/88 
f 11/13/10 9/11/9 118/11/88 120/13/89 
f 13/15/12 11/13/10 120/13/89 122/15/90 
f 15/17/13 13/15/12 122/15/90 124/17/91 
f 17/19/15 15/17/13 124/17/91 126/19/92 
f 19/22/17 17/21/15 126/21/92 128/22/94 
f 22/26/20 21/25/19 131/25/97 130/26/96 
f 25/29/23 22/26/20 130/26/96 134/29/97 
f 27/31/24 25/29/23 134/29/97 136/31/96 
f 29/5/25 27/31/24 136/31/96 138/5/98 
f 31/35/27 29/34/25 138/34/98 140/35/100 
f 33/38/29 31/35/27 140/35/100 142/38/101 
s 1
f 34/39/21 33/38/29 142/38/101 141/39/34 
s 4
f 35/40/30 19/22/17 128/22/94 144/40/94 
f 21/42/19 35/40/30 144/40/94 131/42/97 
s 1
f 46/49/39 45/63/38 153/63/107 154/49/108 
f 45/66/38 47/65/40 155/65/95 153/66/107 
s 2
f 4/4/4 49/69/4 157/69/21 112/4/21 
s 1
f 63/86/21 34/39/21 141/39/34 171/86/34 
f 66/64/46 46/67/39 154/67/108 174/64/82 
s 2
f 68/92/48 67/91/47 177/91/68 176/92/67 
s 4
f 67/91/47 70/94/50 178/94/112 177/91/68 
f 70/95/50 72/98/52 180/98/114 178/95/112 
f 72/98/52 74/100/54 182/100/116 180/98/114 
f 74/100/54 76/102/55 184/102/118 182/100/116 
f 76/102/55 78/104/57 186/104/119 184/102/118 
f 78/104/57 80/106/58 188/106/120 186/104/119 
f 80/106/58 82/108/60 190/108/121 188/106/120 
f 82/108/60 84/110/62 192/110/122 190/108/121 
f 84/111/62 86/114/64 194/114/123 192/111/122 
f 87/115/65 90/118/68 198/118/126 197/115/125 
f 90/118/68 92/120/69 200/120/127 198/118/126 
f 92/120/69 94/122/68 202/122/126 200/120/127 
f 94/122/68 96/95/71 204/95/128 202/122/126 
f 96/123/71 98/126/72 206/126/129 204/123/128 
s 1
f 100/128/73 99/127/67 207/127/130 208/128/131 
s 4
f 98/126/72 100/128/73 208/128/131 206/126/129 
f 86/114/64 101/129/74 209/129/123 194/114/123 
f 101/129/74 87/131/65 197/131/125 209/129/123 
s 1
f 108/62/81 107/46/80 216/46/132 215/62/127 
f 47/65/40 108/46/81 215/46/127 155/65/95 
s 2
f 49/69/4 68/92/48 176/92/67 157/69/21 
s 1
f 99/127/67 63/86/21 171/86/34 207/127/130 
f 107/49/80 66/64/46 174/64/82 216/49/132 
# 216 polygons

