# 3ds Max Wavefront OBJ Exporter v0.97b - (c)2007 guruware
# File Created: 20.03.2019 16:13:58

#
# object window_left
#

v  -16.0498 70.0000 10.0000
v  -30.0000 70.0000 10.0000
v  -30.0000 70.0000 1.8431
v  -16.0498 70.0000 1.8431
v  -30.0000 66.5282 1.8431
v  -16.0498 66.5282 1.8431
v  -30.0000 66.4371 1.7520
v  -16.0498 66.4371 1.7520
v  -30.0000 66.4371 1.3794
v  -16.0498 66.4371 1.3794
v  -30.0000 66.0423 0.9845
v  -16.0498 66.0423 0.9845
v  -30.0000 64.1173 0.9845
v  -16.0498 64.1173 0.9845
v  -30.0000 63.6313 0.4985
v  -16.0498 63.6313 0.4985
v  -30.0000 63.6313 0.0000
v  -16.0498 63.6313 0.0000
v  -30.0000 54.3037 0.0000
v  -16.0498 54.3037 0.0000
v  -16.0498 4.6424 0.0000
v  -30.0000 4.6424 0.0000
v  -30.0000 4.6424 1.3358
v  -16.0498 4.6424 1.3358
v  -30.0000 1.0401 1.3358
v  -16.0498 1.0401 1.3358
v  -30.0000 1.0401 2.0870
v  -16.0498 1.0401 2.0870
v  -30.0000 -0.0000 2.0870
v  -16.0498 -0.0000 2.0870
v  -30.0000 -0.0000 3.0423
v  -16.0498 -0.0000 3.0423
v  -30.0000 0.0000 10.0000
v  -16.0498 0.0000 10.0000
v  -30.0000 20.7116 0.0000
v  -16.0498 20.7116 0.0000
v  0.0000 4.6424 0.0000
v  0.0000 20.7116 0.0000
v  -16.0498 20.7116 1.7354
v  -16.0498 54.3037 1.7354
v  0.0000 20.7116 1.7354
v  -14.8110 22.6855 1.7354
v  -14.8110 52.3299 1.7354
v  0.0000 22.6855 1.7354
v  -14.8110 22.6855 0.0000
v  -14.8110 52.3299 0.0000
v  0.0000 22.6855 0.0000
v  0.0000 70.0000 10.0000
v  0.0000 70.0000 1.8431
v  0.0000 66.5282 1.8431
v  0.0000 66.4371 1.7520
v  0.0000 66.4371 1.3794
v  0.0000 66.0423 0.9845
v  0.0000 64.1173 0.9845
v  0.0000 63.6313 0.4986
v  0.0000 63.6313 0.0000
v  0.0000 54.3037 0.0000
v  0.0000 4.6424 1.3358
v  0.0000 1.0401 1.3358
v  0.0000 1.0401 2.0870
v  0.0000 -0.0000 2.0870
v  0.0000 -0.0000 3.0423
v  0.0000 0.0000 10.0000
v  0.0000 54.3037 1.7354
v  0.0000 52.3299 1.7354
v  0.0000 52.3299 0.0000
# 66 vertices

vn -0.0000 -1.0000 0.0000
vn -0.0000 -0.7071 0.7071
vn -0.0000 -0.3827 0.9239
vn -0.0000 -0.9239 0.3827
vn -0.0000 -0.9239 0.3826
vn -0.0000 -0.3826 0.9239
vn -0.0000 0.0000 1.0000
vn -0.3015 0.3015 0.9045
vn -0.0000 0.7071 0.7071
vn 0.0000 1.0000 -0.0000
vn -0.3015 -0.3015 0.9045
vn -0.5774 -0.5774 0.5773
vn -0.5774 0.5774 0.5773
vn 0.3015 0.3015 0.9045
vn 0.3015 -0.3015 0.9045
vn 0.7071 0.7071 0.0000
vn 0.7071 -0.7071 0.0000
vn -0.0000 1.0000 -0.0000
# 18 vertex normals

vt 0.7374 0.8334 0.0000
vt 0.5160 0.8334 0.0000
vt 0.5160 0.9628 0.0000
vt 0.7374 0.9628 0.0000
vt 0.8739 0.2357 0.0000
vt 0.8739 0.0079 0.0000
vt 0.9305 0.0079 0.0000
vt 0.9305 0.2357 0.0000
vt 0.9320 0.0079 0.0000
vt 0.9320 0.2357 0.0000
vt 0.9381 0.0079 0.0000
vt 0.9381 0.2357 0.0000
vt 0.9446 0.0079 0.0000
vt 0.9446 0.2357 0.0000
vt 0.9760 0.0079 0.0000
vt 0.9760 0.2357 0.0000
vt 0.9839 0.0079 0.0000
vt 0.9839 0.2357 0.0000
vt 0.9920 0.0079 0.0000
vt 0.9920 0.2357 0.0000
vt 0.0079 0.1830 0.0000
vt 0.0079 0.0079 0.0000
vt 0.1250 0.0079 0.0000
vt 0.1250 0.1830 0.0000
vt 0.7640 0.2357 0.0000
vt 0.7640 0.0079 0.0000
vt 0.7858 0.0079 0.0000
vt 0.7858 0.2357 0.0000
vt 0.8446 0.0079 0.0000
vt 0.8446 0.2357 0.0000
vt 0.8569 0.0079 0.0000
vt 0.8569 0.2357 0.0000
vt 0.2293 0.9589 0.0000
vt 0.0079 0.9589 0.0000
vt 0.0079 0.9438 0.0000
vt 0.2293 0.9438 0.0000
vt 0.0079 0.8334 0.0000
vt 0.2293 0.8334 0.0000
vt 0.5466 0.0079 0.0000
vt 0.5466 0.1830 0.0000
vt 0.7483 0.0079 0.0000
vt 0.7483 0.1830 0.0000
vt 0.7483 0.3845 0.0000
vt 0.5466 0.3845 0.0000
vt 0.0079 0.4016 0.0000
vt 0.4337 0.4016 0.0000
vt 0.4337 0.4236 0.0000
vt 0.0079 0.4236 0.0000
vt 0.2114 0.4236 0.0000
vt 0.2114 0.4016 0.0000
vt 0.4337 0.5061 0.0000
vt 0.0079 0.5061 0.0000
vt 0.0330 0.4904 0.0000
vt 0.4087 0.4904 0.0000
vt 0.2114 0.4751 0.0000
vt 0.0079 0.4751 0.0000
vt 0.0079 0.4501 0.0000
vt 0.1957 0.4501 0.0000
vt 0.3837 0.4016 0.0000
vt 0.3837 0.4236 0.0000
vt 0.1957 0.4236 0.0000
vt 0.1957 0.4016 0.0000
vt 0.9920 0.8334 0.0000
vt 0.9921 0.9628 0.0000
vt 0.8739 0.4977 0.0000
vt 0.9305 0.4977 0.0000
vt 0.9320 0.4977 0.0000
vt 0.9381 0.4977 0.0000
vt 0.9446 0.4977 0.0000
vt 0.9760 0.4977 0.0000
vt 0.9839 0.4977 0.0000
vt 0.9920 0.4977 0.0000
vt 0.0079 0.3845 0.0000
vt 0.1250 0.3845 0.0000
vt 0.7640 0.4977 0.0000
vt 0.7858 0.4977 0.0000
vt 0.8446 0.4977 0.0000
vt 0.8569 0.4977 0.0000
vt 0.4840 0.9589 0.0000
vt 0.4840 0.9438 0.0000
vt 0.4840 0.8334 0.0000
vt 0.2114 0.4501 0.0000
vt 0.1957 0.4751 0.0000
# 83 texture coords

o window_left
g window_left
s 1
f 1/1/1 2/2/1 3/3/2 4/4/2 
s 2
f 4/5/2 3/6/2 5/7/3 6/8/3 
s 1
f 6/8/3 5/7/3 7/9/4 8/10/4 
s 2
f 8/10/4 7/9/4 9/11/5 10/12/4 
s 1
f 10/12/4 9/11/5 11/13/3 12/14/3 
s 2
f 12/14/3 11/13/3 13/15/3 14/16/6 
s 1
f 14/16/6 13/15/3 15/17/5 16/18/4 
s 2
f 16/18/4 15/17/5 17/19/2 18/20/2 
s 1
f 18/21/2 17/22/2 19/23/7 20/24/8 
s 2
f 21/25/9 22/26/9 23/27/9 24/28/9 
s 1
f 24/28/9 23/27/9 25/29/9 26/30/9 
s 2
f 26/30/9 25/29/9 27/31/9 28/32/9 
s 1
f 28/32/9 27/31/9 29/6/9 30/5/9 
s 2
f 30/33/9 29/34/9 31/35/10 32/36/10 
f 32/36/10 31/35/10 33/37/10 34/38/10 
s 1
f 19/23/7 35/39/7 36/40/11 20/24/8 
f 35/39/7 22/41/9 21/42/9 36/40/11 
f 36/40/11 21/42/9 37/43/9 38/44/2 
s off
f 20/45/8 36/46/11 39/47/12 40/48/13 
f 36/49/11 38/48/2 41/45/2 39/50/12 
f 40/51/13 39/52/12 42/53/14 43/54/15 
f 39/55/12 41/56/2 44/57/9 42/58/14 
f 43/45/15 42/59/14 45/60/16 46/48/17 
f 42/61/14 44/48/9 47/45/18 45/62/16 
s 1
f 48/63/1 1/1/1 4/4/2 49/64/2 
s 2
f 49/65/2 4/5/2 6/8/3 50/66/3 
s 1
f 50/66/3 6/8/3 8/10/4 51/67/4 
s 2
f 51/67/4 8/10/4 10/12/4 52/68/4 
s 1
f 52/68/4 10/12/4 12/14/3 53/69/6 
s 2
f 53/69/6 12/14/3 14/16/6 54/70/3 
s 1
f 54/70/3 14/16/6 16/18/4 55/71/5 
s 2
f 55/71/5 16/18/4 18/20/2 56/72/2 
s 1
f 56/73/2 18/21/2 20/24/8 57/74/9 
s 2
f 37/75/9 21/25/9 24/28/9 58/76/9 
s 1
f 58/76/9 24/28/9 26/30/9 59/77/9 
s 2
f 59/77/9 26/30/9 28/32/9 60/78/9 
s 1
f 60/78/9 28/32/9 30/5/9 61/65/9 
s 2
f 61/79/9 30/33/9 32/36/10 62/80/10 
f 62/80/10 32/36/10 34/38/10 63/81/10 
s off
f 57/45/9 20/50/8 40/49/13 64/48/9 
f 64/57/9 40/82/13 43/83/15 65/56/2 
f 65/45/2 43/62/15 46/61/17 66/48/1 
# 42 polygons

